G04*
G04 #@! TF.GenerationSoftware,Altium Limited,Altium Designer,22.7.1 (60)*
G04*
G04 Layer_Color=8388736*
%FSLAX44Y44*%
%MOMM*%
G71*
G04*
G04 #@! TF.SameCoordinates,7A3DA631-0345-4E00-B8C7-321365C47752*
G04*
G04*
G04 #@! TF.FilePolarity,Negative*
G04*
G01*
G75*
%ADD17R,0.7500X0.8500*%
%ADD18O,0.9000X0.4000*%
%ADD19O,0.4000X0.9000*%
%ADD20R,0.8500X0.7500*%
%ADD21O,5.1500X1.6500*%
%ADD22O,2.4000X1.6000*%
D17*
X470000Y390000D02*
D03*
Y376000D02*
D03*
X460000Y390000D02*
D03*
Y376000D02*
D03*
X470000Y346000D02*
D03*
X460000D02*
D03*
X470000Y332000D02*
D03*
X460000D02*
D03*
X390000Y323000D02*
D03*
X400000D02*
D03*
X362000D02*
D03*
X372000D02*
D03*
X428000D02*
D03*
X418000D02*
D03*
D18*
X407000Y374000D02*
D03*
X367000Y364000D02*
D03*
X407000D02*
D03*
Y359000D02*
D03*
Y354000D02*
D03*
X367000Y359000D02*
D03*
Y354000D02*
D03*
X407000Y369000D02*
D03*
X367000D02*
D03*
Y374000D02*
D03*
D19*
X387000Y384000D02*
D03*
X382000Y344000D02*
D03*
X397000Y384000D02*
D03*
Y344000D02*
D03*
X392000D02*
D03*
X382000Y384000D02*
D03*
X377000Y344000D02*
D03*
Y384000D02*
D03*
X392000D02*
D03*
X387000Y344000D02*
D03*
D20*
X417000Y403000D02*
D03*
Y413000D02*
D03*
X397000Y403000D02*
D03*
Y413000D02*
D03*
X431000D02*
D03*
Y403000D02*
D03*
X382000Y413000D02*
D03*
Y403000D02*
D03*
X442000Y376000D02*
D03*
Y366000D02*
D03*
Y346000D02*
D03*
Y356000D02*
D03*
X426000Y356000D02*
D03*
Y366000D02*
D03*
D21*
X345470Y286000D02*
D03*
X444530D02*
D03*
D22*
X276300Y382100D02*
D03*
X301700D02*
D03*
Y356700D02*
D03*
X276300D02*
D03*
Y331300D02*
D03*
X301700D02*
D03*
X276300Y305900D02*
D03*
X301700D02*
D03*
M02*
