G04*
G04 #@! TF.GenerationSoftware,Altium Limited,Altium Designer,22.7.1 (60)*
G04*
G04 Layer_Color=65535*
%FSLAX44Y44*%
%MOMM*%
G71*
G04*
G04 #@! TF.SameCoordinates,7A3DA631-0345-4E00-B8C7-321365C47752*
G04*
G04*
G04 #@! TF.FilePolarity,Positive*
G04*
G01*
G75*
%ADD10C,0.2000*%
%ADD11C,0.1000*%
G36*
X328731Y338830D02*
X328820Y338823D01*
X328909Y338808D01*
X329101Y338771D01*
X329116D01*
X329145Y338756D01*
X329197Y338741D01*
X329264Y338719D01*
X329345Y338697D01*
X329441Y338660D01*
X329537Y338623D01*
X329641Y338579D01*
X329397Y337980D01*
X329382Y337987D01*
X329345Y338002D01*
X329293Y338017D01*
X329227Y338046D01*
X329145Y338069D01*
X329064Y338098D01*
X328983Y338120D01*
X328909Y338143D01*
X328901D01*
X328879Y338150D01*
X328842Y338157D01*
X328791Y338172D01*
X328739Y338180D01*
X328672Y338187D01*
X328539Y338194D01*
X328502D01*
X328465Y338187D01*
X328414Y338180D01*
X328303Y338150D01*
X328251Y338128D01*
X328199Y338091D01*
X328192Y338083D01*
X328184Y338076D01*
X328162Y338046D01*
X328140Y338017D01*
X328118Y337980D01*
X328103Y337936D01*
X328088Y337884D01*
X328081Y337825D01*
Y337817D01*
Y337810D01*
X328088Y337766D01*
X328103Y337706D01*
X328125Y337640D01*
X328133Y337625D01*
X328162Y337596D01*
X328214Y337544D01*
X328280Y337492D01*
X328288D01*
X328303Y337477D01*
X328332Y337463D01*
X328384Y337433D01*
X328443Y337403D01*
X328532Y337359D01*
X328635Y337307D01*
X328768Y337241D01*
X328776D01*
X328791Y337234D01*
X328820Y337219D01*
X328850Y337197D01*
X328938Y337152D01*
X329049Y337086D01*
X329168Y337012D01*
X329278Y336930D01*
X329382Y336842D01*
X329434Y336797D01*
X329470Y336753D01*
X329478Y336746D01*
X329500Y336709D01*
X329530Y336657D01*
X329567Y336583D01*
X329604Y336502D01*
X329633Y336398D01*
X329655Y336280D01*
X329663Y336147D01*
Y336139D01*
Y336125D01*
Y336103D01*
X329655Y336066D01*
X329648Y335977D01*
X329618Y335866D01*
X329574Y335748D01*
X329515Y335615D01*
X329426Y335489D01*
X329367Y335430D01*
X329308Y335378D01*
X329300D01*
X329293Y335363D01*
X329271Y335356D01*
X329241Y335334D01*
X329204Y335312D01*
X329160Y335289D01*
X329108Y335267D01*
X329049Y335238D01*
X328983Y335208D01*
X328909Y335186D01*
X328739Y335142D01*
X328539Y335112D01*
X328317Y335097D01*
X328221D01*
X328170Y335105D01*
X328111Y335112D01*
X327970Y335127D01*
X327808Y335149D01*
X327637Y335186D01*
X327460Y335238D01*
X327283Y335304D01*
Y336029D01*
X327290D01*
X327298Y336021D01*
X327342Y335999D01*
X327416Y335970D01*
X327497Y335933D01*
X327601Y335896D01*
X327704Y335859D01*
X327808Y335822D01*
X327904Y335792D01*
X327918D01*
X327948Y335785D01*
X328000Y335770D01*
X328059Y335763D01*
X328133Y335748D01*
X328214Y335733D01*
X328377Y335726D01*
X328421D01*
X328465Y335733D01*
X328517Y335740D01*
X328643Y335770D01*
X328709Y335792D01*
X328761Y335822D01*
X328768Y335829D01*
X328783Y335836D01*
X328805Y335866D01*
X328835Y335896D01*
X328857Y335933D01*
X328879Y335984D01*
X328894Y336043D01*
X328901Y336110D01*
Y336117D01*
Y336132D01*
X328894Y336176D01*
X328879Y336236D01*
X328842Y336302D01*
Y336310D01*
X328835Y336317D01*
X328798Y336354D01*
X328746Y336406D01*
X328665Y336465D01*
X328657Y336472D01*
X328643Y336479D01*
X328613Y336494D01*
X328561Y336524D01*
X328502Y336553D01*
X328421Y336598D01*
X328317Y336650D01*
X328192Y336709D01*
X328177Y336716D01*
X328140Y336738D01*
X328081Y336768D01*
X328007Y336805D01*
X327926Y336856D01*
X327837Y336908D01*
X327763Y336960D01*
X327689Y337012D01*
X327682Y337019D01*
X327660Y337041D01*
X327630Y337071D01*
X327593Y337108D01*
X327556Y337160D01*
X327512Y337219D01*
X327423Y337352D01*
X327416Y337359D01*
X327408Y337389D01*
X327394Y337426D01*
X327379Y337477D01*
X327357Y337544D01*
X327342Y337625D01*
X327334Y337706D01*
X327327Y337803D01*
Y337810D01*
Y337825D01*
Y337847D01*
X327334Y337884D01*
X327342Y337973D01*
X327371Y338076D01*
X327408Y338194D01*
X327467Y338320D01*
X327549Y338446D01*
X327593Y338505D01*
X327652Y338557D01*
X327660D01*
X327667Y338571D01*
X327689Y338586D01*
X327711Y338601D01*
X327785Y338645D01*
X327889Y338697D01*
X328022Y338749D01*
X328177Y338793D01*
X328354Y338823D01*
X328561Y338837D01*
X328665D01*
X328731Y338830D01*
D02*
G37*
G36*
X324895Y335142D02*
X324171D01*
Y336864D01*
Y336871D01*
Y336886D01*
Y336916D01*
Y336945D01*
Y337034D01*
Y337145D01*
Y337152D01*
Y337182D01*
X324178Y337234D01*
Y337270D01*
Y337315D01*
X324186Y337366D01*
Y337426D01*
Y337492D01*
X324193Y337574D01*
X324201Y337662D01*
Y337758D01*
X324208Y337869D01*
X324215Y337995D01*
X324186D01*
X323247Y335142D01*
X322537D01*
X321665Y338002D01*
X321643D01*
Y337995D01*
Y337965D01*
X321650Y337921D01*
Y337862D01*
Y337788D01*
X321658Y337706D01*
Y337618D01*
X321665Y337529D01*
X321673Y337330D01*
X321680Y337137D01*
Y337049D01*
X321687Y336967D01*
Y336894D01*
Y336834D01*
Y335142D01*
X321000D01*
Y338786D01*
X322050D01*
X322914Y335999D01*
X322929D01*
X323846Y338786D01*
X324895D01*
Y335142D01*
D02*
G37*
G36*
X342731Y338778D02*
X342790D01*
X342864Y338771D01*
X342938Y338764D01*
X343026Y338749D01*
X343204Y338719D01*
X343388Y338667D01*
X343559Y338601D01*
X343633Y338564D01*
X343706Y338512D01*
X343714D01*
X343721Y338497D01*
X343765Y338460D01*
X343817Y338401D01*
X343884Y338313D01*
X343950Y338194D01*
X344009Y338054D01*
X344046Y337884D01*
X344054Y337795D01*
X344061Y337692D01*
Y337677D01*
Y337640D01*
X344054Y337574D01*
X344039Y337500D01*
X344017Y337411D01*
X343987Y337315D01*
X343943Y337211D01*
X343884Y337115D01*
X343876Y337108D01*
X343854Y337078D01*
X343810Y337034D01*
X343758Y336975D01*
X343684Y336916D01*
X343603Y336849D01*
X343499Y336783D01*
X343388Y336724D01*
X343396Y336709D01*
X343425Y336672D01*
X343462Y336605D01*
X343522Y336524D01*
X343588Y336428D01*
X343662Y336317D01*
X343743Y336191D01*
X343832Y336066D01*
X344009Y335799D01*
X344098Y335667D01*
X344187Y335541D01*
X344268Y335423D01*
X344342Y335312D01*
X344409Y335216D01*
X344460Y335142D01*
X343603D01*
X342731Y336539D01*
X342317D01*
Y335142D01*
X341548D01*
Y338786D01*
X342679D01*
X342731Y338778D01*
D02*
G37*
G36*
X340624Y335142D02*
X339855D01*
Y338786D01*
X340624D01*
Y335142D01*
D02*
G37*
G36*
X326588D02*
X325819D01*
Y338786D01*
X326588D01*
Y335142D01*
D02*
G37*
G36*
X332043Y338837D02*
X332109Y338830D01*
X332191Y338823D01*
X332279Y338808D01*
X332383Y338786D01*
X332590Y338727D01*
X332693Y338690D01*
X332804Y338638D01*
X332907Y338586D01*
X333004Y338520D01*
X333100Y338446D01*
X333188Y338357D01*
X333196Y338350D01*
X333211Y338335D01*
X333233Y338305D01*
X333255Y338268D01*
X333292Y338217D01*
X333329Y338157D01*
X333366Y338083D01*
X333410Y338002D01*
X333455Y337914D01*
X333492Y337810D01*
X333528Y337692D01*
X333565Y337566D01*
X333587Y337433D01*
X333610Y337285D01*
X333624Y337130D01*
X333632Y336967D01*
Y336960D01*
Y336930D01*
Y336879D01*
X333624Y336819D01*
X333617Y336746D01*
X333610Y336657D01*
X333595Y336561D01*
X333573Y336450D01*
X333521Y336228D01*
X333484Y336110D01*
X333440Y335999D01*
X333388Y335888D01*
X333329Y335777D01*
X333262Y335674D01*
X333181Y335578D01*
X333174Y335570D01*
X333159Y335556D01*
X333137Y335533D01*
X333100Y335504D01*
X333055Y335467D01*
X332996Y335423D01*
X332930Y335386D01*
X332856Y335341D01*
X332767Y335289D01*
X332671Y335253D01*
X332567Y335208D01*
X332449Y335171D01*
X332324Y335142D01*
X332191Y335120D01*
X332050Y335105D01*
X331895Y335097D01*
X331814D01*
X331754Y335105D01*
X331688Y335112D01*
X331607Y335120D01*
X331518Y335134D01*
X331422Y335157D01*
X331215Y335216D01*
X331104Y335253D01*
X331001Y335297D01*
X330897Y335356D01*
X330794Y335423D01*
X330698Y335496D01*
X330609Y335578D01*
X330601Y335585D01*
X330587Y335600D01*
X330564Y335630D01*
X330542Y335667D01*
X330505Y335718D01*
X330468Y335777D01*
X330431Y335851D01*
X330387Y335933D01*
X330343Y336021D01*
X330306Y336125D01*
X330269Y336243D01*
X330232Y336369D01*
X330210Y336502D01*
X330187Y336650D01*
X330173Y336805D01*
X330165Y336967D01*
Y336975D01*
Y337004D01*
Y337056D01*
X330173Y337115D01*
X330180Y337197D01*
X330187Y337285D01*
X330202Y337381D01*
X330224Y337485D01*
X330276Y337714D01*
X330313Y337825D01*
X330350Y337943D01*
X330402Y338054D01*
X330461Y338165D01*
X330527Y338268D01*
X330609Y338364D01*
X330616Y338372D01*
X330631Y338386D01*
X330653Y338409D01*
X330690Y338438D01*
X330742Y338475D01*
X330794Y338520D01*
X330860Y338557D01*
X330941Y338608D01*
X331030Y338653D01*
X331126Y338690D01*
X331230Y338734D01*
X331348Y338771D01*
X331474Y338800D01*
X331607Y338823D01*
X331747Y338837D01*
X331902Y338845D01*
X331984D01*
X332043Y338837D01*
D02*
G37*
G36*
X346633D02*
X346700Y338830D01*
X346781Y338823D01*
X346870Y338808D01*
X346973Y338786D01*
X347180Y338727D01*
X347284Y338690D01*
X347395Y338638D01*
X347498Y338586D01*
X347594Y338520D01*
X347690Y338446D01*
X347779Y338357D01*
X347786Y338350D01*
X347801Y338335D01*
X347823Y338305D01*
X347846Y338268D01*
X347882Y338217D01*
X347920Y338157D01*
X347956Y338083D01*
X348001Y338002D01*
X348045Y337914D01*
X348082Y337810D01*
X348119Y337692D01*
X348156Y337566D01*
X348178Y337433D01*
X348200Y337285D01*
X348215Y337130D01*
X348223Y336967D01*
Y336960D01*
Y336938D01*
Y336908D01*
Y336864D01*
X348215Y336805D01*
X348208Y336738D01*
X348200Y336672D01*
X348193Y336590D01*
X348163Y336420D01*
X348126Y336243D01*
X348067Y336058D01*
X347993Y335888D01*
Y335881D01*
X347986Y335866D01*
X347971Y335844D01*
X347949Y335814D01*
X347897Y335740D01*
X347831Y335644D01*
X347735Y335541D01*
X347616Y335437D01*
X347483Y335334D01*
X347328Y335253D01*
X348208Y334277D01*
X347217D01*
X346545Y335097D01*
X346404D01*
X346345Y335105D01*
X346279Y335112D01*
X346197Y335120D01*
X346109Y335134D01*
X346012Y335157D01*
X345806Y335216D01*
X345695Y335253D01*
X345591Y335297D01*
X345488Y335356D01*
X345384Y335423D01*
X345288Y335496D01*
X345199Y335578D01*
X345192Y335585D01*
X345177Y335600D01*
X345155Y335630D01*
X345133Y335667D01*
X345096Y335718D01*
X345059Y335777D01*
X345022Y335851D01*
X344978Y335933D01*
X344933Y336021D01*
X344896Y336125D01*
X344859Y336243D01*
X344823Y336369D01*
X344800Y336502D01*
X344778Y336650D01*
X344763Y336805D01*
X344756Y336967D01*
Y336975D01*
Y337004D01*
Y337056D01*
X344763Y337115D01*
X344771Y337197D01*
X344778Y337285D01*
X344793Y337381D01*
X344815Y337485D01*
X344867Y337714D01*
X344904Y337825D01*
X344941Y337943D01*
X344992Y338054D01*
X345052Y338165D01*
X345118Y338268D01*
X345199Y338364D01*
X345207Y338372D01*
X345222Y338386D01*
X345244Y338409D01*
X345281Y338438D01*
X345332Y338475D01*
X345384Y338520D01*
X345451Y338557D01*
X345532Y338608D01*
X345621Y338653D01*
X345717Y338690D01*
X345820Y338734D01*
X345939Y338771D01*
X346064Y338800D01*
X346197Y338823D01*
X346338Y338837D01*
X346493Y338845D01*
X346574D01*
X346633Y338837D01*
D02*
G37*
G36*
X336936Y333989D02*
X336389D01*
Y339000D01*
X336936D01*
Y333989D01*
D02*
G37*
G36*
X367500Y402268D02*
X258500D01*
Y418000D01*
X367500D01*
Y402268D01*
D02*
G37*
G36*
X324047Y361830D02*
X324106Y361823D01*
X324173D01*
X324247Y361808D01*
X324410Y361786D01*
X324594Y361741D01*
X324786Y361690D01*
X324986Y361616D01*
X324727Y360995D01*
X324720D01*
X324713Y361002D01*
X324691Y361017D01*
X324661Y361024D01*
X324580Y361061D01*
X324476Y361098D01*
X324351Y361128D01*
X324210Y361165D01*
X324055Y361187D01*
X323900Y361194D01*
X323848D01*
X323818Y361187D01*
X323774D01*
X323722Y361180D01*
X323611Y361150D01*
X323486Y361113D01*
X323345Y361054D01*
X323212Y360965D01*
X323153Y360914D01*
X323094Y360854D01*
X323079Y360840D01*
X323064Y360817D01*
X323050Y360795D01*
X322998Y360721D01*
X322946Y360618D01*
X322887Y360485D01*
X322835Y360337D01*
X322806Y360152D01*
X322791Y359953D01*
Y359945D01*
Y359923D01*
Y359893D01*
X322798Y359856D01*
Y359805D01*
X322806Y359746D01*
X322820Y359613D01*
X322850Y359465D01*
X322894Y359317D01*
X322953Y359169D01*
X323035Y359044D01*
X323050Y359029D01*
X323079Y358992D01*
X323138Y358947D01*
X323212Y358888D01*
X323316Y358829D01*
X323434Y358785D01*
X323582Y358748D01*
X323744Y358733D01*
X323833D01*
X323900Y358740D01*
X323974Y358748D01*
X324055Y358755D01*
X324232Y358785D01*
Y359539D01*
X323545D01*
Y360189D01*
X324994D01*
Y358297D01*
X324986D01*
X324979Y358289D01*
X324934Y358275D01*
X324868Y358260D01*
X324779Y358230D01*
X324676Y358208D01*
X324565Y358179D01*
X324446Y358157D01*
X324328Y358142D01*
X324314D01*
X324277Y358134D01*
X324210Y358127D01*
X324136Y358120D01*
X324040Y358112D01*
X323929Y358105D01*
X323811Y358097D01*
X323611D01*
X323560Y358105D01*
X323486Y358112D01*
X323404Y358120D01*
X323323Y358134D01*
X323227Y358157D01*
X323020Y358216D01*
X322916Y358253D01*
X322813Y358297D01*
X322710Y358356D01*
X322606Y358423D01*
X322517Y358497D01*
X322429Y358578D01*
X322421Y358585D01*
X322414Y358600D01*
X322392Y358629D01*
X322362Y358666D01*
X322333Y358718D01*
X322296Y358777D01*
X322251Y358851D01*
X322214Y358933D01*
X322177Y359021D01*
X322133Y359125D01*
X322096Y359243D01*
X322066Y359369D01*
X322037Y359502D01*
X322022Y359650D01*
X322007Y359805D01*
X322000Y359967D01*
Y359975D01*
Y360004D01*
Y360049D01*
X322007Y360115D01*
X322015Y360189D01*
X322030Y360270D01*
X322044Y360367D01*
X322066Y360470D01*
X322126Y360692D01*
X322163Y360803D01*
X322214Y360921D01*
X322273Y361032D01*
X322340Y361143D01*
X322414Y361246D01*
X322503Y361342D01*
X322510Y361350D01*
X322525Y361364D01*
X322554Y361386D01*
X322599Y361423D01*
X322643Y361460D01*
X322710Y361497D01*
X322784Y361542D01*
X322865Y361594D01*
X322961Y361638D01*
X323064Y361682D01*
X323183Y361719D01*
X323301Y361763D01*
X323441Y361793D01*
X323582Y361815D01*
X323737Y361830D01*
X323900Y361837D01*
X323996D01*
X324047Y361830D01*
D02*
G37*
G36*
X329088Y358142D02*
X328105D01*
X326524Y360899D01*
X326501D01*
Y360891D01*
Y360869D01*
X326509Y360832D01*
Y360780D01*
Y360721D01*
X326516Y360647D01*
X326524Y360492D01*
X326531Y360322D01*
X326538Y360152D01*
X326546Y359990D01*
Y359923D01*
Y359856D01*
Y358142D01*
X325858D01*
Y361786D01*
X326834D01*
X328416Y359051D01*
X328430D01*
Y359058D01*
Y359080D01*
Y359117D01*
X328423Y359169D01*
Y359228D01*
X328416Y359295D01*
Y359443D01*
X328408Y359605D01*
X328401Y359775D01*
X328394Y359930D01*
Y359997D01*
Y360056D01*
Y361786D01*
X329088D01*
Y358142D01*
D02*
G37*
G36*
X340878D02*
X340035D01*
X338801Y361786D01*
X339577D01*
X340264Y359613D01*
Y359605D01*
X340271Y359576D01*
X340286Y359539D01*
X340301Y359487D01*
X340316Y359420D01*
X340338Y359339D01*
X340360Y359258D01*
X340382Y359162D01*
Y359154D01*
X340390Y359125D01*
X340405Y359080D01*
X340412Y359021D01*
X340442Y358910D01*
X340449Y358859D01*
X340456Y358814D01*
Y358829D01*
X340464Y358859D01*
X340471Y358918D01*
X340493Y358999D01*
X340515Y359110D01*
X340552Y359250D01*
X340567Y359324D01*
X340597Y359413D01*
X340619Y359509D01*
X340648Y359613D01*
X341336Y361786D01*
X342119D01*
X340878Y358142D01*
D02*
G37*
G36*
X347648Y361778D02*
X347722Y361771D01*
X347811Y361763D01*
X347907Y361749D01*
X348010Y361726D01*
X348232Y361667D01*
X348350Y361630D01*
X348461Y361586D01*
X348579Y361534D01*
X348690Y361468D01*
X348794Y361394D01*
X348890Y361313D01*
X348897Y361305D01*
X348912Y361290D01*
X348934Y361261D01*
X348971Y361224D01*
X349008Y361180D01*
X349045Y361120D01*
X349090Y361046D01*
X349141Y360973D01*
X349186Y360884D01*
X349230Y360780D01*
X349267Y360677D01*
X349311Y360559D01*
X349341Y360433D01*
X349363Y360293D01*
X349378Y360152D01*
X349385Y359997D01*
Y359990D01*
Y359960D01*
Y359908D01*
X349378Y359849D01*
X349370Y359775D01*
X349356Y359687D01*
X349341Y359590D01*
X349319Y359487D01*
X349296Y359376D01*
X349259Y359265D01*
X349215Y359147D01*
X349171Y359036D01*
X349104Y358918D01*
X349038Y358814D01*
X348956Y358711D01*
X348868Y358615D01*
X348860Y358607D01*
X348846Y358593D01*
X348816Y358570D01*
X348772Y358541D01*
X348720Y358504D01*
X348653Y358467D01*
X348579Y358423D01*
X348491Y358378D01*
X348395Y358334D01*
X348284Y358289D01*
X348158Y358253D01*
X348032Y358216D01*
X347885Y358186D01*
X347729Y358164D01*
X347567Y358149D01*
X347389Y358142D01*
X346362D01*
Y361786D01*
X347589D01*
X347648Y361778D01*
D02*
G37*
G36*
X343864D02*
X343938Y361771D01*
X344026Y361763D01*
X344123Y361749D01*
X344226Y361726D01*
X344448Y361667D01*
X344566Y361630D01*
X344677Y361586D01*
X344795Y361534D01*
X344906Y361468D01*
X345009Y361394D01*
X345106Y361313D01*
X345113Y361305D01*
X345128Y361290D01*
X345150Y361261D01*
X345187Y361224D01*
X345224Y361180D01*
X345261Y361120D01*
X345305Y361046D01*
X345357Y360973D01*
X345401Y360884D01*
X345446Y360780D01*
X345482Y360677D01*
X345527Y360559D01*
X345556Y360433D01*
X345579Y360293D01*
X345593Y360152D01*
X345601Y359997D01*
Y359990D01*
Y359960D01*
Y359908D01*
X345593Y359849D01*
X345586Y359775D01*
X345571Y359687D01*
X345556Y359590D01*
X345534Y359487D01*
X345512Y359376D01*
X345475Y359265D01*
X345431Y359147D01*
X345386Y359036D01*
X345320Y358918D01*
X345253Y358814D01*
X345172Y358711D01*
X345083Y358615D01*
X345076Y358607D01*
X345061Y358593D01*
X345032Y358570D01*
X344987Y358541D01*
X344935Y358504D01*
X344869Y358467D01*
X344795Y358423D01*
X344706Y358378D01*
X344610Y358334D01*
X344499Y358289D01*
X344374Y358253D01*
X344248Y358216D01*
X344100Y358186D01*
X343945Y358164D01*
X343782Y358149D01*
X343605Y358142D01*
X342578D01*
Y361786D01*
X343805D01*
X343864Y361778D01*
D02*
G37*
G36*
X331298D02*
X331372Y361771D01*
X331461Y361763D01*
X331557Y361749D01*
X331661Y361726D01*
X331882Y361667D01*
X332001Y361630D01*
X332111Y361586D01*
X332230Y361534D01*
X332341Y361468D01*
X332444Y361394D01*
X332540Y361313D01*
X332547Y361305D01*
X332562Y361290D01*
X332584Y361261D01*
X332621Y361224D01*
X332658Y361180D01*
X332695Y361120D01*
X332740Y361046D01*
X332791Y360973D01*
X332836Y360884D01*
X332880Y360780D01*
X332917Y360677D01*
X332961Y360559D01*
X332991Y360433D01*
X333013Y360293D01*
X333028Y360152D01*
X333035Y359997D01*
Y359990D01*
Y359960D01*
Y359908D01*
X333028Y359849D01*
X333021Y359775D01*
X333006Y359687D01*
X332991Y359590D01*
X332969Y359487D01*
X332947Y359376D01*
X332910Y359265D01*
X332865Y359147D01*
X332821Y359036D01*
X332755Y358918D01*
X332688Y358814D01*
X332607Y358711D01*
X332518Y358615D01*
X332511Y358607D01*
X332496Y358593D01*
X332466Y358570D01*
X332422Y358541D01*
X332370Y358504D01*
X332304Y358467D01*
X332230Y358423D01*
X332141Y358378D01*
X332045Y358334D01*
X331934Y358289D01*
X331808Y358253D01*
X331683Y358216D01*
X331535Y358186D01*
X331380Y358164D01*
X331217Y358149D01*
X331040Y358142D01*
X330012D01*
Y361786D01*
X331239D01*
X331298Y361778D01*
D02*
G37*
G36*
X336339Y356989D02*
X335792D01*
Y362000D01*
X336339D01*
Y356989D01*
D02*
G37*
G36*
X343532Y354830D02*
X343621Y354823D01*
X343710Y354808D01*
X343902Y354771D01*
X343917D01*
X343946Y354756D01*
X343998Y354741D01*
X344065Y354719D01*
X344146Y354697D01*
X344242Y354660D01*
X344338Y354623D01*
X344442Y354579D01*
X344198Y353980D01*
X344183Y353987D01*
X344146Y354002D01*
X344094Y354017D01*
X344028Y354047D01*
X343946Y354069D01*
X343865Y354098D01*
X343784Y354120D01*
X343710Y354143D01*
X343702D01*
X343680Y354150D01*
X343643Y354157D01*
X343591Y354172D01*
X343540Y354180D01*
X343473Y354187D01*
X343340Y354194D01*
X343303D01*
X343266Y354187D01*
X343215Y354180D01*
X343104Y354150D01*
X343052Y354128D01*
X343000Y354091D01*
X342993Y354084D01*
X342985Y354076D01*
X342963Y354047D01*
X342941Y354017D01*
X342919Y353980D01*
X342904Y353936D01*
X342889Y353884D01*
X342882Y353825D01*
Y353817D01*
Y353810D01*
X342889Y353766D01*
X342904Y353707D01*
X342926Y353640D01*
X342934Y353625D01*
X342963Y353596D01*
X343015Y353544D01*
X343082Y353492D01*
X343089D01*
X343104Y353477D01*
X343133Y353463D01*
X343185Y353433D01*
X343244Y353404D01*
X343333Y353359D01*
X343436Y353307D01*
X343569Y353241D01*
X343577D01*
X343591Y353233D01*
X343621Y353219D01*
X343651Y353196D01*
X343739Y353152D01*
X343850Y353086D01*
X343969Y353012D01*
X344079Y352930D01*
X344183Y352842D01*
X344235Y352797D01*
X344272Y352753D01*
X344279Y352746D01*
X344301Y352709D01*
X344331Y352657D01*
X344368Y352583D01*
X344405Y352502D01*
X344434Y352398D01*
X344456Y352280D01*
X344464Y352147D01*
Y352140D01*
Y352125D01*
Y352103D01*
X344456Y352066D01*
X344449Y351977D01*
X344419Y351866D01*
X344375Y351748D01*
X344316Y351615D01*
X344227Y351489D01*
X344168Y351430D01*
X344109Y351378D01*
X344101D01*
X344094Y351363D01*
X344072Y351356D01*
X344042Y351334D01*
X344006Y351312D01*
X343961Y351289D01*
X343909Y351267D01*
X343850Y351238D01*
X343784Y351208D01*
X343710Y351186D01*
X343540Y351142D01*
X343340Y351112D01*
X343119Y351097D01*
X343022D01*
X342971Y351105D01*
X342911Y351112D01*
X342771Y351127D01*
X342608Y351149D01*
X342439Y351186D01*
X342261Y351238D01*
X342084Y351304D01*
Y352029D01*
X342091D01*
X342099Y352021D01*
X342143Y351999D01*
X342217Y351970D01*
X342298Y351933D01*
X342402Y351896D01*
X342505Y351859D01*
X342608Y351822D01*
X342705Y351792D01*
X342719D01*
X342749Y351785D01*
X342801Y351770D01*
X342860Y351763D01*
X342934Y351748D01*
X343015Y351733D01*
X343178Y351726D01*
X343222D01*
X343266Y351733D01*
X343318Y351740D01*
X343444Y351770D01*
X343510Y351792D01*
X343562Y351822D01*
X343569Y351829D01*
X343584Y351837D01*
X343606Y351866D01*
X343636Y351896D01*
X343658Y351933D01*
X343680Y351984D01*
X343695Y352043D01*
X343702Y352110D01*
Y352117D01*
Y352132D01*
X343695Y352177D01*
X343680Y352236D01*
X343643Y352302D01*
Y352310D01*
X343636Y352317D01*
X343599Y352354D01*
X343547Y352406D01*
X343466Y352465D01*
X343459Y352472D01*
X343444Y352480D01*
X343414Y352494D01*
X343362Y352524D01*
X343303Y352553D01*
X343222Y352598D01*
X343119Y352650D01*
X342993Y352709D01*
X342978Y352716D01*
X342941Y352738D01*
X342882Y352768D01*
X342808Y352805D01*
X342727Y352856D01*
X342638Y352908D01*
X342564Y352960D01*
X342490Y353012D01*
X342483Y353019D01*
X342461Y353041D01*
X342431Y353071D01*
X342394Y353108D01*
X342357Y353160D01*
X342313Y353219D01*
X342224Y353352D01*
X342217Y353359D01*
X342209Y353389D01*
X342195Y353426D01*
X342180Y353477D01*
X342158Y353544D01*
X342143Y353625D01*
X342135Y353707D01*
X342128Y353803D01*
Y353810D01*
Y353825D01*
Y353847D01*
X342135Y353884D01*
X342143Y353973D01*
X342172Y354076D01*
X342209Y354194D01*
X342268Y354320D01*
X342350Y354446D01*
X342394Y354505D01*
X342453Y354557D01*
X342461D01*
X342468Y354571D01*
X342490Y354586D01*
X342512Y354601D01*
X342586Y354645D01*
X342690Y354697D01*
X342823Y354749D01*
X342978Y354793D01*
X343155Y354823D01*
X343362Y354837D01*
X343466D01*
X343532Y354830D01*
D02*
G37*
G36*
X340694D02*
X340746D01*
X340805Y354823D01*
X340864Y354815D01*
X340938Y354808D01*
X341101Y354771D01*
X341285Y354726D01*
X341478Y354667D01*
X341677Y354579D01*
X341426Y353950D01*
X341418Y353958D01*
X341389Y353965D01*
X341352Y353987D01*
X341300Y354010D01*
X341234Y354032D01*
X341167Y354061D01*
X341012Y354120D01*
X341005D01*
X340975Y354135D01*
X340938Y354143D01*
X340886Y354157D01*
X340820Y354172D01*
X340753Y354180D01*
X340605Y354194D01*
X340561D01*
X340532Y354187D01*
X340458Y354180D01*
X340354Y354150D01*
X340251Y354113D01*
X340132Y354054D01*
X340022Y353973D01*
X339977Y353921D01*
X339925Y353862D01*
X339918Y353847D01*
X339903Y353825D01*
X339888Y353803D01*
X339851Y353729D01*
X339807Y353625D01*
X339763Y353500D01*
X339726Y353344D01*
X339696Y353160D01*
X339689Y352953D01*
Y352938D01*
Y352901D01*
X339696Y352842D01*
X339704Y352760D01*
X339718Y352672D01*
X339741Y352568D01*
X339763Y352457D01*
X339807Y352346D01*
X339851Y352228D01*
X339911Y352117D01*
X339985Y352014D01*
X340073Y351925D01*
X340184Y351844D01*
X340302Y351785D01*
X340443Y351748D01*
X340605Y351733D01*
X340672D01*
X340709Y351740D01*
X340753D01*
X340864Y351755D01*
X341005Y351777D01*
X341160Y351814D01*
X341337Y351859D01*
X341537Y351925D01*
Y351275D01*
X341529D01*
X341515Y351267D01*
X341492Y351260D01*
X341455Y351245D01*
X341418Y351230D01*
X341367Y351216D01*
X341308Y351201D01*
X341241Y351186D01*
X341093Y351157D01*
X340923Y351127D01*
X340731Y351105D01*
X340532Y351097D01*
X340458D01*
X340398Y351105D01*
X340332Y351112D01*
X340258Y351119D01*
X340177Y351134D01*
X340081Y351157D01*
X339888Y351216D01*
X339785Y351253D01*
X339689Y351297D01*
X339585Y351349D01*
X339489Y351415D01*
X339401Y351489D01*
X339319Y351570D01*
X339312Y351578D01*
X339305Y351593D01*
X339282Y351622D01*
X339253Y351659D01*
X339223Y351711D01*
X339186Y351770D01*
X339149Y351844D01*
X339112Y351925D01*
X339068Y352014D01*
X339031Y352117D01*
X338994Y352236D01*
X338965Y352354D01*
X338935Y352487D01*
X338913Y352635D01*
X338905Y352790D01*
X338898Y352953D01*
Y352960D01*
Y352975D01*
Y353012D01*
Y353049D01*
X338905Y353100D01*
X338913Y353152D01*
X338928Y353293D01*
X338950Y353448D01*
X338987Y353610D01*
X339038Y353788D01*
X339105Y353950D01*
Y353958D01*
X339112Y353973D01*
X339127Y353995D01*
X339142Y354024D01*
X339194Y354098D01*
X339260Y354194D01*
X339342Y354298D01*
X339445Y354409D01*
X339563Y354512D01*
X339696Y354608D01*
X339704D01*
X339711Y354616D01*
X339733Y354631D01*
X339763Y354645D01*
X339800Y354660D01*
X339844Y354682D01*
X339955Y354726D01*
X340088Y354763D01*
X340243Y354800D01*
X340421Y354830D01*
X340605Y354837D01*
X340657D01*
X340694Y354830D01*
D02*
G37*
G36*
X327796D02*
X327848D01*
X327907Y354823D01*
X327966Y354815D01*
X328040Y354808D01*
X328203Y354771D01*
X328387Y354726D01*
X328580Y354667D01*
X328779Y354579D01*
X328528Y353950D01*
X328521Y353958D01*
X328491Y353965D01*
X328454Y353987D01*
X328402Y354010D01*
X328336Y354032D01*
X328269Y354061D01*
X328114Y354120D01*
X328107D01*
X328077Y354135D01*
X328040Y354143D01*
X327988Y354157D01*
X327922Y354172D01*
X327855Y354180D01*
X327707Y354194D01*
X327663D01*
X327634Y354187D01*
X327560Y354180D01*
X327456Y354150D01*
X327353Y354113D01*
X327234Y354054D01*
X327123Y353973D01*
X327079Y353921D01*
X327027Y353862D01*
X327020Y353847D01*
X327005Y353825D01*
X326991Y353803D01*
X326954Y353729D01*
X326909Y353625D01*
X326865Y353500D01*
X326828Y353344D01*
X326798Y353160D01*
X326791Y352953D01*
Y352938D01*
Y352901D01*
X326798Y352842D01*
X326806Y352760D01*
X326820Y352672D01*
X326843Y352568D01*
X326865Y352457D01*
X326909Y352346D01*
X326954Y352228D01*
X327013Y352117D01*
X327086Y352014D01*
X327175Y351925D01*
X327286Y351844D01*
X327404Y351785D01*
X327545Y351748D01*
X327707Y351733D01*
X327774D01*
X327811Y351740D01*
X327855D01*
X327966Y351755D01*
X328107Y351777D01*
X328262Y351814D01*
X328439Y351859D01*
X328639Y351925D01*
Y351275D01*
X328631D01*
X328617Y351267D01*
X328594Y351260D01*
X328557Y351245D01*
X328521Y351230D01*
X328469Y351216D01*
X328410Y351201D01*
X328343Y351186D01*
X328195Y351157D01*
X328025Y351127D01*
X327833Y351105D01*
X327634Y351097D01*
X327560D01*
X327500Y351105D01*
X327434Y351112D01*
X327360Y351119D01*
X327279Y351134D01*
X327183Y351157D01*
X326991Y351216D01*
X326887Y351253D01*
X326791Y351297D01*
X326687Y351349D01*
X326591Y351415D01*
X326503Y351489D01*
X326421Y351570D01*
X326414Y351578D01*
X326407Y351593D01*
X326384Y351622D01*
X326355Y351659D01*
X326325Y351711D01*
X326288Y351770D01*
X326251Y351844D01*
X326214Y351925D01*
X326170Y352014D01*
X326133Y352117D01*
X326096Y352236D01*
X326067Y352354D01*
X326037Y352487D01*
X326015Y352635D01*
X326007Y352790D01*
X326000Y352953D01*
Y352960D01*
Y352975D01*
Y353012D01*
Y353049D01*
X326007Y353100D01*
X326015Y353152D01*
X326030Y353293D01*
X326052Y353448D01*
X326089Y353610D01*
X326140Y353788D01*
X326207Y353950D01*
Y353958D01*
X326214Y353973D01*
X326229Y353995D01*
X326244Y354024D01*
X326296Y354098D01*
X326362Y354194D01*
X326443Y354298D01*
X326547Y354409D01*
X326665Y354512D01*
X326798Y354608D01*
X326806D01*
X326813Y354616D01*
X326835Y354631D01*
X326865Y354645D01*
X326902Y354660D01*
X326946Y354682D01*
X327057Y354726D01*
X327190Y354763D01*
X327345Y354800D01*
X327523Y354830D01*
X327707Y354837D01*
X327759D01*
X327796Y354830D01*
D02*
G37*
G36*
X348359Y351142D02*
X347376D01*
X345794Y353899D01*
X345772D01*
Y353891D01*
Y353869D01*
X345779Y353832D01*
Y353780D01*
Y353721D01*
X345787Y353647D01*
X345794Y353492D01*
X345802Y353322D01*
X345809Y353152D01*
X345816Y352990D01*
Y352923D01*
Y352856D01*
Y351142D01*
X345129D01*
Y354786D01*
X346105D01*
X347686Y352051D01*
X347701D01*
Y352058D01*
Y352080D01*
Y352117D01*
X347694Y352169D01*
Y352228D01*
X347686Y352295D01*
Y352443D01*
X347679Y352605D01*
X347672Y352775D01*
X347664Y352930D01*
Y352997D01*
Y353056D01*
Y354786D01*
X348359D01*
Y351142D01*
D02*
G37*
G36*
X331514Y354150D02*
X330183D01*
Y353352D01*
X331418D01*
Y352716D01*
X330183D01*
Y351777D01*
X331514D01*
Y351142D01*
X329415D01*
Y354786D01*
X331514D01*
Y354150D01*
D02*
G37*
G36*
X336141Y349989D02*
X335594D01*
Y355000D01*
X336141D01*
Y349989D01*
D02*
G37*
G36*
X321646Y263000D02*
X259340D01*
Y273000D01*
X321646D01*
Y263000D01*
D02*
G37*
G36*
X349249Y346830D02*
X349338Y346823D01*
X349426Y346808D01*
X349619Y346771D01*
X349633D01*
X349663Y346756D01*
X349715Y346741D01*
X349781Y346719D01*
X349863Y346697D01*
X349959Y346660D01*
X350055Y346623D01*
X350158Y346579D01*
X349914Y345980D01*
X349899Y345987D01*
X349863Y346002D01*
X349811Y346017D01*
X349744Y346046D01*
X349663Y346069D01*
X349582Y346098D01*
X349500Y346120D01*
X349426Y346143D01*
X349419D01*
X349397Y346150D01*
X349360Y346157D01*
X349308Y346172D01*
X349256Y346180D01*
X349190Y346187D01*
X349057Y346194D01*
X349020D01*
X348983Y346187D01*
X348931Y346180D01*
X348820Y346150D01*
X348769Y346128D01*
X348717Y346091D01*
X348709Y346083D01*
X348702Y346076D01*
X348680Y346046D01*
X348658Y346017D01*
X348635Y345980D01*
X348621Y345936D01*
X348606Y345884D01*
X348599Y345825D01*
Y345817D01*
Y345810D01*
X348606Y345766D01*
X348621Y345706D01*
X348643Y345640D01*
X348650Y345625D01*
X348680Y345596D01*
X348732Y345544D01*
X348798Y345492D01*
X348806D01*
X348820Y345477D01*
X348850Y345463D01*
X348902Y345433D01*
X348961Y345404D01*
X349049Y345359D01*
X349153Y345307D01*
X349286Y345241D01*
X349293D01*
X349308Y345233D01*
X349338Y345219D01*
X349367Y345196D01*
X349456Y345152D01*
X349567Y345086D01*
X349685Y345012D01*
X349796Y344930D01*
X349899Y344842D01*
X349951Y344797D01*
X349988Y344753D01*
X349995Y344746D01*
X350018Y344709D01*
X350047Y344657D01*
X350084Y344583D01*
X350121Y344502D01*
X350151Y344398D01*
X350173Y344280D01*
X350180Y344147D01*
Y344140D01*
Y344125D01*
Y344103D01*
X350173Y344066D01*
X350165Y343977D01*
X350136Y343866D01*
X350092Y343748D01*
X350033Y343615D01*
X349944Y343489D01*
X349885Y343430D01*
X349826Y343378D01*
X349818D01*
X349811Y343363D01*
X349789Y343356D01*
X349759Y343334D01*
X349722Y343312D01*
X349678Y343289D01*
X349626Y343267D01*
X349567Y343238D01*
X349500Y343208D01*
X349426Y343186D01*
X349256Y343142D01*
X349057Y343112D01*
X348835Y343097D01*
X348739D01*
X348687Y343105D01*
X348628Y343112D01*
X348488Y343127D01*
X348325Y343149D01*
X348155Y343186D01*
X347978Y343238D01*
X347800Y343304D01*
Y344029D01*
X347808D01*
X347815Y344021D01*
X347859Y343999D01*
X347933Y343969D01*
X348015Y343933D01*
X348118Y343896D01*
X348222Y343859D01*
X348325Y343822D01*
X348421Y343792D01*
X348436D01*
X348465Y343785D01*
X348517Y343770D01*
X348576Y343763D01*
X348650Y343748D01*
X348732Y343733D01*
X348894Y343726D01*
X348939D01*
X348983Y343733D01*
X349035Y343740D01*
X349160Y343770D01*
X349227Y343792D01*
X349279Y343822D01*
X349286Y343829D01*
X349301Y343837D01*
X349323Y343866D01*
X349352Y343896D01*
X349375Y343933D01*
X349397Y343984D01*
X349412Y344044D01*
X349419Y344110D01*
Y344117D01*
Y344132D01*
X349412Y344176D01*
X349397Y344236D01*
X349360Y344302D01*
Y344310D01*
X349352Y344317D01*
X349315Y344354D01*
X349264Y344406D01*
X349183Y344465D01*
X349175Y344472D01*
X349160Y344479D01*
X349131Y344494D01*
X349079Y344524D01*
X349020Y344553D01*
X348939Y344598D01*
X348835Y344650D01*
X348709Y344709D01*
X348695Y344716D01*
X348658Y344738D01*
X348599Y344768D01*
X348525Y344805D01*
X348443Y344856D01*
X348355Y344908D01*
X348281Y344960D01*
X348207Y345012D01*
X348199Y345019D01*
X348177Y345041D01*
X348148Y345071D01*
X348111Y345108D01*
X348074Y345160D01*
X348029Y345219D01*
X347941Y345352D01*
X347933Y345359D01*
X347926Y345389D01*
X347911Y345426D01*
X347896Y345477D01*
X347874Y345544D01*
X347859Y345625D01*
X347852Y345706D01*
X347845Y345803D01*
Y345810D01*
Y345825D01*
Y345847D01*
X347852Y345884D01*
X347859Y345973D01*
X347889Y346076D01*
X347926Y346194D01*
X347985Y346320D01*
X348066Y346446D01*
X348111Y346505D01*
X348170Y346557D01*
X348177D01*
X348185Y346571D01*
X348207Y346586D01*
X348229Y346601D01*
X348303Y346645D01*
X348406Y346697D01*
X348539Y346749D01*
X348695Y346793D01*
X348872Y346823D01*
X349079Y346837D01*
X349183D01*
X349249Y346830D01*
D02*
G37*
G36*
X325441D02*
X325530Y346823D01*
X325619Y346808D01*
X325811Y346771D01*
X325826D01*
X325855Y346756D01*
X325907Y346741D01*
X325974Y346719D01*
X326055Y346697D01*
X326151Y346660D01*
X326247Y346623D01*
X326351Y346579D01*
X326106Y345980D01*
X326092Y345987D01*
X326055Y346002D01*
X326003Y346017D01*
X325937Y346046D01*
X325855Y346069D01*
X325774Y346098D01*
X325693Y346120D01*
X325619Y346143D01*
X325611D01*
X325589Y346150D01*
X325552Y346157D01*
X325500Y346172D01*
X325449Y346180D01*
X325382Y346187D01*
X325249Y346194D01*
X325212D01*
X325175Y346187D01*
X325123Y346180D01*
X325013Y346150D01*
X324961Y346128D01*
X324909Y346091D01*
X324902Y346083D01*
X324894Y346076D01*
X324872Y346046D01*
X324850Y346017D01*
X324828Y345980D01*
X324813Y345936D01*
X324798Y345884D01*
X324791Y345825D01*
Y345817D01*
Y345810D01*
X324798Y345766D01*
X324813Y345706D01*
X324835Y345640D01*
X324843Y345625D01*
X324872Y345596D01*
X324924Y345544D01*
X324990Y345492D01*
X324998D01*
X325013Y345477D01*
X325042Y345463D01*
X325094Y345433D01*
X325153Y345404D01*
X325242Y345359D01*
X325345Y345307D01*
X325478Y345241D01*
X325486D01*
X325500Y345233D01*
X325530Y345219D01*
X325560Y345196D01*
X325648Y345152D01*
X325759Y345086D01*
X325877Y345012D01*
X325988Y344930D01*
X326092Y344842D01*
X326143Y344797D01*
X326180Y344753D01*
X326188Y344746D01*
X326210Y344709D01*
X326240Y344657D01*
X326277Y344583D01*
X326314Y344502D01*
X326343Y344398D01*
X326365Y344280D01*
X326373Y344147D01*
Y344140D01*
Y344125D01*
Y344103D01*
X326365Y344066D01*
X326358Y343977D01*
X326328Y343866D01*
X326284Y343748D01*
X326225Y343615D01*
X326136Y343489D01*
X326077Y343430D01*
X326018Y343378D01*
X326010D01*
X326003Y343363D01*
X325981Y343356D01*
X325951Y343334D01*
X325914Y343312D01*
X325870Y343289D01*
X325818Y343267D01*
X325759Y343238D01*
X325693Y343208D01*
X325619Y343186D01*
X325449Y343142D01*
X325249Y343112D01*
X325027Y343097D01*
X324931D01*
X324880Y343105D01*
X324820Y343112D01*
X324680Y343127D01*
X324517Y343149D01*
X324347Y343186D01*
X324170Y343238D01*
X323993Y343304D01*
Y344029D01*
X324000D01*
X324007Y344021D01*
X324052Y343999D01*
X324126Y343969D01*
X324207Y343933D01*
X324310Y343896D01*
X324414Y343859D01*
X324517Y343822D01*
X324613Y343792D01*
X324628D01*
X324658Y343785D01*
X324710Y343770D01*
X324769Y343763D01*
X324843Y343748D01*
X324924Y343733D01*
X325087Y343726D01*
X325131D01*
X325175Y343733D01*
X325227Y343740D01*
X325353Y343770D01*
X325419Y343792D01*
X325471Y343822D01*
X325478Y343829D01*
X325493Y343837D01*
X325515Y343866D01*
X325545Y343896D01*
X325567Y343933D01*
X325589Y343984D01*
X325604Y344044D01*
X325611Y344110D01*
Y344117D01*
Y344132D01*
X325604Y344176D01*
X325589Y344236D01*
X325552Y344302D01*
Y344310D01*
X325545Y344317D01*
X325508Y344354D01*
X325456Y344406D01*
X325375Y344465D01*
X325367Y344472D01*
X325353Y344479D01*
X325323Y344494D01*
X325271Y344524D01*
X325212Y344553D01*
X325131Y344598D01*
X325027Y344650D01*
X324902Y344709D01*
X324887Y344716D01*
X324850Y344738D01*
X324791Y344768D01*
X324717Y344805D01*
X324636Y344856D01*
X324547Y344908D01*
X324473Y344960D01*
X324399Y345012D01*
X324392Y345019D01*
X324370Y345041D01*
X324340Y345071D01*
X324303Y345108D01*
X324266Y345160D01*
X324222Y345219D01*
X324133Y345352D01*
X324126Y345359D01*
X324118Y345389D01*
X324104Y345426D01*
X324089Y345477D01*
X324067Y345544D01*
X324052Y345625D01*
X324044Y345706D01*
X324037Y345803D01*
Y345810D01*
Y345825D01*
Y345847D01*
X324044Y345884D01*
X324052Y345973D01*
X324081Y346076D01*
X324118Y346194D01*
X324177Y346320D01*
X324259Y346446D01*
X324303Y346505D01*
X324362Y346557D01*
X324370D01*
X324377Y346571D01*
X324399Y346586D01*
X324421Y346601D01*
X324495Y346645D01*
X324599Y346697D01*
X324732Y346749D01*
X324887Y346793D01*
X325064Y346823D01*
X325271Y346837D01*
X325375D01*
X325441Y346830D01*
D02*
G37*
G36*
X328671D02*
X328723D01*
X328782Y346823D01*
X328841Y346815D01*
X328915Y346808D01*
X329078Y346771D01*
X329263Y346726D01*
X329455Y346667D01*
X329654Y346579D01*
X329403Y345950D01*
X329396Y345958D01*
X329366Y345965D01*
X329329Y345987D01*
X329277Y346010D01*
X329211Y346032D01*
X329144Y346061D01*
X328989Y346120D01*
X328982D01*
X328952Y346135D01*
X328915Y346143D01*
X328863Y346157D01*
X328797Y346172D01*
X328731Y346180D01*
X328583Y346194D01*
X328538D01*
X328509Y346187D01*
X328435Y346180D01*
X328331Y346150D01*
X328228Y346113D01*
X328110Y346054D01*
X327999Y345973D01*
X327954Y345921D01*
X327903Y345862D01*
X327895Y345847D01*
X327881Y345825D01*
X327866Y345803D01*
X327829Y345729D01*
X327784Y345625D01*
X327740Y345500D01*
X327703Y345344D01*
X327673Y345160D01*
X327666Y344953D01*
Y344938D01*
Y344901D01*
X327673Y344842D01*
X327681Y344760D01*
X327696Y344672D01*
X327718Y344568D01*
X327740Y344457D01*
X327784Y344347D01*
X327829Y344228D01*
X327888Y344117D01*
X327962Y344014D01*
X328050Y343925D01*
X328161Y343844D01*
X328280Y343785D01*
X328420Y343748D01*
X328583Y343733D01*
X328649D01*
X328686Y343740D01*
X328731D01*
X328841Y343755D01*
X328982Y343777D01*
X329137Y343814D01*
X329314Y343859D01*
X329514Y343925D01*
Y343275D01*
X329507D01*
X329492Y343267D01*
X329470Y343260D01*
X329433Y343245D01*
X329396Y343230D01*
X329344Y343216D01*
X329285Y343201D01*
X329218Y343186D01*
X329071Y343157D01*
X328900Y343127D01*
X328708Y343105D01*
X328509Y343097D01*
X328435D01*
X328376Y343105D01*
X328309Y343112D01*
X328235Y343120D01*
X328154Y343134D01*
X328058Y343157D01*
X327866Y343216D01*
X327762Y343253D01*
X327666Y343297D01*
X327563Y343349D01*
X327467Y343415D01*
X327378Y343489D01*
X327297Y343570D01*
X327289Y343578D01*
X327282Y343593D01*
X327260Y343622D01*
X327230Y343659D01*
X327201Y343711D01*
X327164Y343770D01*
X327127Y343844D01*
X327090Y343925D01*
X327045Y344014D01*
X327008Y344117D01*
X326971Y344236D01*
X326942Y344354D01*
X326912Y344487D01*
X326890Y344635D01*
X326883Y344790D01*
X326875Y344953D01*
Y344960D01*
Y344975D01*
Y345012D01*
Y345049D01*
X326883Y345100D01*
X326890Y345152D01*
X326905Y345293D01*
X326927Y345448D01*
X326964Y345610D01*
X327016Y345788D01*
X327082Y345950D01*
Y345958D01*
X327090Y345973D01*
X327104Y345995D01*
X327119Y346024D01*
X327171Y346098D01*
X327237Y346194D01*
X327319Y346298D01*
X327422Y346409D01*
X327541Y346512D01*
X327673Y346608D01*
X327681D01*
X327688Y346616D01*
X327710Y346630D01*
X327740Y346645D01*
X327777Y346660D01*
X327821Y346682D01*
X327932Y346726D01*
X328065Y346763D01*
X328220Y346800D01*
X328398Y346830D01*
X328583Y346837D01*
X328634D01*
X328671Y346830D01*
D02*
G37*
G36*
X331938Y345167D02*
X333217Y343142D01*
X332345D01*
X331384Y344672D01*
X331059Y344443D01*
Y343142D01*
X330290D01*
Y346786D01*
X331059D01*
Y345115D01*
X331362Y345544D01*
X332352Y346786D01*
X333210D01*
X331938Y345167D01*
D02*
G37*
G36*
X343040Y343142D02*
X342316D01*
Y344864D01*
Y344871D01*
Y344886D01*
Y344916D01*
Y344945D01*
Y345034D01*
Y345145D01*
Y345152D01*
Y345182D01*
X342323Y345233D01*
Y345270D01*
Y345315D01*
X342331Y345367D01*
Y345426D01*
Y345492D01*
X342338Y345574D01*
X342345Y345662D01*
Y345758D01*
X342353Y345869D01*
X342360Y345995D01*
X342331D01*
X341392Y343142D01*
X340682D01*
X339810Y346002D01*
X339788D01*
Y345995D01*
Y345965D01*
X339795Y345921D01*
Y345862D01*
Y345788D01*
X339803Y345706D01*
Y345618D01*
X339810Y345529D01*
X339818Y345330D01*
X339825Y345137D01*
Y345049D01*
X339832Y344967D01*
Y344893D01*
Y344834D01*
Y343142D01*
X339145D01*
Y346786D01*
X340195D01*
X341059Y343999D01*
X341074D01*
X341991Y346786D01*
X343040D01*
Y343142D01*
D02*
G37*
G36*
X351614D02*
X350846D01*
Y346786D01*
X351614D01*
Y343142D01*
D02*
G37*
G36*
X345679Y346837D02*
X345746Y346830D01*
X345827Y346823D01*
X345915Y346808D01*
X346019Y346786D01*
X346226Y346726D01*
X346329Y346690D01*
X346440Y346638D01*
X346544Y346586D01*
X346640Y346520D01*
X346736Y346446D01*
X346825Y346357D01*
X346832Y346350D01*
X346847Y346335D01*
X346869Y346305D01*
X346891Y346268D01*
X346928Y346217D01*
X346965Y346157D01*
X347002Y346083D01*
X347046Y346002D01*
X347091Y345914D01*
X347128Y345810D01*
X347165Y345692D01*
X347202Y345566D01*
X347224Y345433D01*
X347246Y345285D01*
X347261Y345130D01*
X347268Y344967D01*
Y344960D01*
Y344930D01*
Y344879D01*
X347261Y344820D01*
X347253Y344746D01*
X347246Y344657D01*
X347231Y344561D01*
X347209Y344450D01*
X347157Y344228D01*
X347120Y344110D01*
X347076Y343999D01*
X347024Y343888D01*
X346965Y343777D01*
X346898Y343674D01*
X346817Y343578D01*
X346810Y343570D01*
X346795Y343556D01*
X346773Y343534D01*
X346736Y343504D01*
X346692Y343467D01*
X346632Y343423D01*
X346566Y343386D01*
X346492Y343341D01*
X346403Y343289D01*
X346307Y343253D01*
X346204Y343208D01*
X346086Y343171D01*
X345960Y343142D01*
X345827Y343120D01*
X345686Y343105D01*
X345531Y343097D01*
X345450D01*
X345391Y343105D01*
X345324Y343112D01*
X345243Y343120D01*
X345154Y343134D01*
X345058Y343157D01*
X344851Y343216D01*
X344740Y343253D01*
X344637Y343297D01*
X344533Y343356D01*
X344430Y343423D01*
X344334Y343497D01*
X344245Y343578D01*
X344238Y343585D01*
X344223Y343600D01*
X344201Y343629D01*
X344179Y343666D01*
X344142Y343718D01*
X344105Y343777D01*
X344068Y343851D01*
X344023Y343933D01*
X343979Y344021D01*
X343942Y344125D01*
X343905Y344243D01*
X343868Y344369D01*
X343846Y344502D01*
X343824Y344650D01*
X343809Y344805D01*
X343801Y344967D01*
Y344975D01*
Y345004D01*
Y345056D01*
X343809Y345115D01*
X343816Y345196D01*
X343824Y345285D01*
X343839Y345381D01*
X343861Y345485D01*
X343912Y345714D01*
X343949Y345825D01*
X343986Y345943D01*
X344038Y346054D01*
X344097Y346165D01*
X344164Y346268D01*
X344245Y346364D01*
X344252Y346372D01*
X344267Y346386D01*
X344289Y346409D01*
X344326Y346438D01*
X344378Y346475D01*
X344430Y346520D01*
X344496Y346557D01*
X344578Y346608D01*
X344666Y346653D01*
X344762Y346690D01*
X344866Y346734D01*
X344984Y346771D01*
X345110Y346800D01*
X345243Y346823D01*
X345383Y346837D01*
X345538Y346845D01*
X345620D01*
X345679Y346837D01*
D02*
G37*
G36*
X336225Y341989D02*
X335678D01*
Y347000D01*
X336225D01*
Y341989D01*
D02*
G37*
G36*
X334234Y371991D02*
X334317Y371972D01*
X334410Y371945D01*
X334502Y371889D01*
X334585Y371806D01*
X334622Y371750D01*
X334650Y371686D01*
X334659Y371612D01*
X334669Y371529D01*
Y371519D01*
Y371492D01*
X334659Y371455D01*
X334650Y371399D01*
X334613Y371288D01*
X334585Y371233D01*
X334539Y371186D01*
X334530Y371177D01*
X334511Y371168D01*
X334484Y371149D01*
X334447Y371131D01*
X334391Y371103D01*
X334317Y371085D01*
X334243Y371075D01*
X334151Y371066D01*
X334132D01*
X334068Y371075D01*
X333984Y371094D01*
X333892Y371122D01*
X333800Y371177D01*
X333716Y371260D01*
X333679Y371316D01*
X333652Y371381D01*
X333642Y371445D01*
X333633Y371529D01*
Y371538D01*
Y371547D01*
X333642Y371602D01*
X333661Y371676D01*
X333698Y371769D01*
X333763Y371852D01*
X333855Y371926D01*
X333910Y371954D01*
X333984Y371982D01*
X334058Y371991D01*
X334151Y372000D01*
X334169D01*
X334234Y371991D01*
D02*
G37*
G36*
X337710Y370687D02*
X337821Y370678D01*
X337951Y370659D01*
X338099Y370613D01*
X338256Y370558D01*
X338404Y370475D01*
X338533Y370364D01*
X338543Y370345D01*
X338579Y370308D01*
X338635Y370225D01*
X338690Y370123D01*
X338746Y369994D01*
X338801Y369827D01*
X338838Y369633D01*
X338848Y369411D01*
Y367146D01*
X337895D01*
Y369180D01*
Y369199D01*
Y369245D01*
X337886Y369310D01*
X337877Y369393D01*
X337858Y369485D01*
X337840Y369578D01*
X337803Y369670D01*
X337757Y369744D01*
X337747Y369753D01*
X337729Y369772D01*
X337701Y369799D01*
X337655Y369837D01*
X337599Y369874D01*
X337525Y369901D01*
X337433Y369920D01*
X337331Y369929D01*
X337267D01*
X337193Y369920D01*
X337109Y369892D01*
X337017Y369864D01*
X336915Y369818D01*
X336823Y369753D01*
X336749Y369661D01*
X336740Y369652D01*
X336721Y369615D01*
X336693Y369550D01*
X336666Y369458D01*
X336629Y369337D01*
X336601Y369180D01*
X336582Y368995D01*
X336573Y368783D01*
Y367146D01*
X335621D01*
Y370632D01*
X336351D01*
X336481Y370179D01*
X336536D01*
X336545Y370188D01*
X336564Y370225D01*
X336601Y370271D01*
X336647Y370326D01*
X336712Y370391D01*
X336786Y370456D01*
X336869Y370512D01*
X336971Y370567D01*
X336980Y370576D01*
X337017Y370585D01*
X337082Y370604D01*
X337156Y370632D01*
X337248Y370659D01*
X337359Y370678D01*
X337479Y370687D01*
X337609Y370696D01*
X337664D01*
X337710Y370687D01*
D02*
G37*
G36*
X341159D02*
X341224Y370678D01*
X341381Y370659D01*
X341566Y370632D01*
X341778Y370576D01*
X342000Y370512D01*
X342222Y370419D01*
X341936Y369735D01*
X341926Y369744D01*
X341889Y369753D01*
X341843Y369772D01*
X341769Y369799D01*
X341695Y369827D01*
X341612Y369864D01*
X341436Y369920D01*
X341427D01*
X341399Y369929D01*
X341353Y369948D01*
X341298Y369957D01*
X341224Y369975D01*
X341150Y369985D01*
X340974Y369994D01*
X340909D01*
X340845Y369985D01*
X340771Y369966D01*
X340687Y369938D01*
X340623Y369892D01*
X340577Y369837D01*
X340567Y369799D01*
X340558Y369763D01*
Y369753D01*
Y369744D01*
X340577Y369689D01*
X340614Y369615D01*
X340641Y369578D01*
X340687Y369541D01*
X340697D01*
X340715Y369522D01*
X340752Y369504D01*
X340817Y369476D01*
X340891Y369430D01*
X341002Y369384D01*
X341131Y369328D01*
X341288Y369263D01*
X341298D01*
X341307Y369254D01*
X341353Y369236D01*
X341427Y369199D01*
X341520Y369162D01*
X341714Y369060D01*
X341806Y369004D01*
X341880Y368949D01*
X341889Y368940D01*
X341908Y368921D01*
X341945Y368894D01*
X341991Y368857D01*
X342084Y368755D01*
X342130Y368690D01*
X342167Y368625D01*
Y368616D01*
X342185Y368588D01*
X342195Y368551D01*
X342213Y368505D01*
X342231Y368440D01*
X342241Y368357D01*
X342259Y368274D01*
Y368182D01*
Y368172D01*
Y368154D01*
Y368126D01*
X342250Y368089D01*
X342241Y367997D01*
X342213Y367877D01*
X342167Y367738D01*
X342102Y367608D01*
X342010Y367470D01*
X341880Y367359D01*
X341862Y367350D01*
X341815Y367322D01*
X341723Y367276D01*
X341603Y367229D01*
X341446Y367174D01*
X341261Y367137D01*
X341030Y367100D01*
X340771Y367091D01*
X340641D01*
X340549Y367100D01*
X340447D01*
X340336Y367109D01*
X340225Y367118D01*
X340123Y367137D01*
X340114D01*
X340077Y367146D01*
X340022Y367155D01*
X339957Y367174D01*
X339883Y367192D01*
X339800Y367220D01*
X339615Y367285D01*
Y368071D01*
X339624Y368061D01*
X339661Y368052D01*
X339717Y368024D01*
X339791Y367997D01*
X339883Y367960D01*
X339985Y367923D01*
X340096Y367895D01*
X340216Y367858D01*
X340234D01*
X340271Y367849D01*
X340336Y367830D01*
X340410Y367821D01*
X340503Y367803D01*
X340604Y367784D01*
X340798Y367775D01*
X340817D01*
X340882Y367784D01*
X340965Y367793D01*
X341057Y367812D01*
X341150Y367849D01*
X341233Y367904D01*
X341298Y367969D01*
X341307Y368015D01*
X341316Y368071D01*
Y368080D01*
Y368089D01*
X341307Y368135D01*
X341288Y368200D01*
X341242Y368256D01*
X341233Y368265D01*
X341187Y368302D01*
X341122Y368357D01*
X341067Y368385D01*
X341011Y368413D01*
X341002D01*
X340983Y368431D01*
X340946Y368450D01*
X340891Y368477D01*
X340826Y368505D01*
X340752Y368542D01*
X340660Y368579D01*
X340558Y368625D01*
X340540Y368635D01*
X340493Y368653D01*
X340419Y368690D01*
X340336Y368727D01*
X340142Y368829D01*
X340050Y368875D01*
X339966Y368931D01*
X339957Y368940D01*
X339939Y368958D01*
X339902Y368986D01*
X339865Y369032D01*
X339772Y369134D01*
X339735Y369199D01*
X339698Y369263D01*
Y369272D01*
X339689Y369300D01*
X339670Y369337D01*
X339661Y369393D01*
X339643Y369458D01*
X339624Y369541D01*
X339615Y369624D01*
Y369726D01*
Y369735D01*
Y369744D01*
X339624Y369799D01*
X339633Y369883D01*
X339661Y369985D01*
X339698Y370105D01*
X339763Y370225D01*
X339846Y370336D01*
X339966Y370438D01*
X339985Y370447D01*
X340031Y370475D01*
X340114Y370521D01*
X340234Y370567D01*
X340373Y370613D01*
X340549Y370659D01*
X340761Y370687D01*
X340993Y370696D01*
X341104D01*
X341159Y370687D01*
D02*
G37*
G36*
X334622Y367146D02*
X333670D01*
Y370632D01*
X334622D01*
Y367146D01*
D02*
G37*
G36*
X331331Y371695D02*
X331396D01*
X331479Y371686D01*
X331664Y371658D01*
X331867Y371621D01*
X332071Y371556D01*
X332274Y371464D01*
X332366Y371408D01*
X332450Y371344D01*
X332459D01*
X332468Y371325D01*
X332514Y371279D01*
X332588Y371196D01*
X332672Y371075D01*
X332746Y370928D01*
X332820Y370743D01*
X332866Y370530D01*
X332884Y370410D01*
Y370280D01*
Y370271D01*
Y370253D01*
Y370206D01*
X332875Y370160D01*
Y370095D01*
X332856Y370031D01*
X332829Y369864D01*
X332773Y369679D01*
X332690Y369494D01*
X332635Y369402D01*
X332579Y369310D01*
X332505Y369226D01*
X332422Y369152D01*
X332413D01*
X332403Y369134D01*
X332376Y369115D01*
X332339Y369088D01*
X332293Y369060D01*
X332237Y369032D01*
X332163Y368995D01*
X332089Y368958D01*
X332006Y368921D01*
X331904Y368884D01*
X331802Y368857D01*
X331682Y368829D01*
X331553Y368801D01*
X331423Y368783D01*
X331275Y368773D01*
X331118Y368764D01*
X330702D01*
Y367146D01*
X329741D01*
Y371704D01*
X331275D01*
X331331Y371695D01*
D02*
G37*
G36*
X459159Y304487D02*
Y302721D01*
X458197D01*
Y304459D01*
X456690Y307279D01*
X457735D01*
X458678Y305402D01*
X459630Y307279D01*
X460675D01*
X459159Y304487D01*
D02*
G37*
G36*
X463310Y302721D02*
X462348D01*
Y305356D01*
X462358Y305791D01*
X462367Y306262D01*
X462358Y306253D01*
X462330Y306225D01*
X462284Y306179D01*
X462237Y306133D01*
X462127Y306031D01*
X462071Y305985D01*
X462034Y305948D01*
X461516Y305532D01*
X461045Y306105D01*
X462515Y307279D01*
X463310D01*
Y302721D01*
D02*
G37*
G36*
X368282Y389357D02*
Y389348D01*
Y389339D01*
Y389311D01*
Y389274D01*
X368273Y389173D01*
X368254Y389052D01*
X368227Y388914D01*
X368180Y388766D01*
X368125Y388618D01*
X368051Y388470D01*
X368042Y388451D01*
X368014Y388405D01*
X367958Y388340D01*
X367884Y388257D01*
X367792Y388165D01*
X367681Y388063D01*
X367552Y387971D01*
X367404Y387887D01*
X367394D01*
X367385Y387878D01*
X367330Y387860D01*
X367237Y387823D01*
X367117Y387795D01*
X366969Y387758D01*
X366803Y387721D01*
X366609Y387702D01*
X366396Y387693D01*
X366313D01*
X366248Y387702D01*
X366174D01*
X366091Y387721D01*
X365998Y387730D01*
X365887Y387749D01*
X365666Y387804D01*
X365444Y387878D01*
X365222Y387989D01*
X365111Y388063D01*
X365018Y388137D01*
X365009Y388146D01*
X365000Y388156D01*
X364972Y388183D01*
X364944Y388220D01*
X364907Y388266D01*
X364870Y388322D01*
X364824Y388387D01*
X364778Y388461D01*
X364686Y388636D01*
X364612Y388840D01*
X364556Y389089D01*
X364547Y389228D01*
X364538Y389367D01*
Y392307D01*
X365499D01*
Y389515D01*
Y389505D01*
Y389496D01*
Y389468D01*
Y389431D01*
X365508Y389339D01*
X365527Y389219D01*
X365555Y389089D01*
X365592Y388969D01*
X365638Y388840D01*
X365712Y388738D01*
X365721Y388729D01*
X365749Y388701D01*
X365804Y388655D01*
X365878Y388618D01*
X365980Y388572D01*
X366100Y388525D01*
X366248Y388498D01*
X366414Y388488D01*
X366498D01*
X366581Y388498D01*
X366683Y388516D01*
X366793Y388553D01*
X366914Y388590D01*
X367015Y388655D01*
X367108Y388738D01*
X367117Y388747D01*
X367145Y388784D01*
X367173Y388849D01*
X367219Y388932D01*
X367256Y389034D01*
X367284Y389173D01*
X367311Y389330D01*
X367320Y389515D01*
Y392307D01*
X368282D01*
Y389357D01*
D02*
G37*
G36*
X371463Y387749D02*
X370501D01*
Y390384D01*
X370510Y390818D01*
X370519Y391290D01*
X370510Y391281D01*
X370482Y391253D01*
X370436Y391207D01*
X370390Y391160D01*
X370279Y391059D01*
X370224Y391012D01*
X370187Y390975D01*
X369669Y390559D01*
X369197Y391133D01*
X370667Y392307D01*
X371463D01*
Y387749D01*
D02*
G37*
G36*
X399117Y394330D02*
X399219Y394321D01*
X399339Y394302D01*
X399469Y394274D01*
X399598Y394237D01*
X399718Y394182D01*
X399737Y394173D01*
X399774Y394154D01*
X399829Y394117D01*
X399903Y394071D01*
X399986Y394006D01*
X400070Y393932D01*
X400153Y393840D01*
X400227Y393738D01*
X400236Y393729D01*
X400254Y393692D01*
X400282Y393627D01*
X400319Y393553D01*
X400356Y393461D01*
X400384Y393350D01*
X400402Y393230D01*
X400412Y393100D01*
Y393091D01*
Y393045D01*
X400402Y392989D01*
Y392906D01*
X400384Y392814D01*
X400365Y392721D01*
X400338Y392610D01*
X400301Y392509D01*
X400291Y392499D01*
X400282Y392462D01*
X400254Y392407D01*
X400218Y392333D01*
X400171Y392250D01*
X400107Y392157D01*
X400042Y392056D01*
X399959Y391945D01*
X399949Y391935D01*
X399912Y391889D01*
X399857Y391824D01*
X399774Y391732D01*
X399663Y391621D01*
X399515Y391473D01*
X399348Y391316D01*
X399145Y391122D01*
X398553Y390567D01*
Y390521D01*
X400541D01*
Y389716D01*
X397351D01*
Y390382D01*
X398498Y391538D01*
X398507Y391547D01*
X398516Y391566D01*
X398544Y391584D01*
X398581Y391621D01*
X398664Y391713D01*
X398775Y391824D01*
X398886Y391945D01*
X398997Y392065D01*
X399090Y392176D01*
X399164Y392259D01*
X399173Y392268D01*
X399191Y392296D01*
X399219Y392333D01*
X399247Y392379D01*
X399321Y392499D01*
X399385Y392629D01*
Y392638D01*
X399395Y392656D01*
X399413Y392693D01*
X399422Y392740D01*
X399450Y392860D01*
X399459Y392989D01*
Y392999D01*
Y393036D01*
X399450Y393082D01*
X399441Y393147D01*
X399422Y393211D01*
X399395Y393276D01*
X399358Y393341D01*
X399302Y393396D01*
X399293Y393405D01*
X399274Y393415D01*
X399247Y393442D01*
X399200Y393470D01*
X399145Y393489D01*
X399071Y393516D01*
X398997Y393526D01*
X398905Y393535D01*
X398858D01*
X398803Y393526D01*
X398738Y393516D01*
X398664Y393507D01*
X398572Y393489D01*
X398479Y393452D01*
X398387Y393415D01*
X398378Y393405D01*
X398341Y393396D01*
X398294Y393368D01*
X398230Y393322D01*
X398146Y393276D01*
X398063Y393220D01*
X397971Y393147D01*
X397869Y393063D01*
X397342Y393683D01*
X397361Y393692D01*
X397398Y393729D01*
X397462Y393784D01*
X397536Y393840D01*
X397629Y393905D01*
X397721Y393979D01*
X397814Y394034D01*
X397897Y394090D01*
X397906Y394099D01*
X397934Y394108D01*
X397980Y394136D01*
X398045Y394154D01*
X398110Y394191D01*
X398193Y394219D01*
X398378Y394274D01*
X398387D01*
X398424Y394284D01*
X398479Y394293D01*
X398553Y394311D01*
X398637Y394321D01*
X398738Y394330D01*
X398849Y394339D01*
X399043D01*
X399117Y394330D01*
D02*
G37*
G36*
X394938Y394265D02*
X395012D01*
X395105Y394256D01*
X395197Y394247D01*
X395308Y394228D01*
X395530Y394191D01*
X395761Y394127D01*
X395974Y394043D01*
X396066Y393997D01*
X396159Y393932D01*
X396168D01*
X396177Y393914D01*
X396233Y393868D01*
X396297Y393794D01*
X396381Y393683D01*
X396464Y393535D01*
X396538Y393359D01*
X396584Y393147D01*
X396593Y393036D01*
X396602Y392906D01*
Y392888D01*
Y392841D01*
X396593Y392758D01*
X396575Y392666D01*
X396547Y392555D01*
X396510Y392435D01*
X396455Y392305D01*
X396381Y392185D01*
X396371Y392176D01*
X396344Y392139D01*
X396288Y392083D01*
X396223Y392009D01*
X396131Y391935D01*
X396029Y391852D01*
X395900Y391769D01*
X395761Y391695D01*
X395770Y391676D01*
X395807Y391630D01*
X395854Y391547D01*
X395928Y391445D01*
X396011Y391325D01*
X396103Y391186D01*
X396205Y391029D01*
X396316Y390872D01*
X396538Y390539D01*
X396649Y390373D01*
X396760Y390216D01*
X396861Y390068D01*
X396954Y389929D01*
X397037Y389809D01*
X397102Y389716D01*
X396029D01*
X394938Y391464D01*
X394421D01*
Y389716D01*
X393459D01*
Y394274D01*
X394874D01*
X394938Y394265D01*
D02*
G37*
G36*
X399139Y331661D02*
X398177D01*
Y334296D01*
X398187Y334730D01*
X398196Y335202D01*
X398187Y335193D01*
X398159Y335165D01*
X398113Y335119D01*
X398066Y335073D01*
X397955Y334971D01*
X397900Y334925D01*
X397863Y334888D01*
X397345Y334472D01*
X396874Y335045D01*
X398344Y336219D01*
X399139D01*
Y331661D01*
D02*
G37*
G36*
X394340Y336210D02*
X394414D01*
X394507Y336200D01*
X394599Y336191D01*
X394710Y336173D01*
X394932Y336136D01*
X395163Y336071D01*
X395376Y335988D01*
X395468Y335942D01*
X395561Y335877D01*
X395570D01*
X395579Y335858D01*
X395635Y335812D01*
X395700Y335738D01*
X395783Y335627D01*
X395866Y335479D01*
X395940Y335304D01*
X395986Y335091D01*
X395995Y334980D01*
X396005Y334851D01*
Y334832D01*
Y334786D01*
X395995Y334703D01*
X395977Y334610D01*
X395949Y334499D01*
X395912Y334379D01*
X395857Y334250D01*
X395783Y334129D01*
X395774Y334120D01*
X395746Y334083D01*
X395690Y334028D01*
X395625Y333954D01*
X395533Y333880D01*
X395431Y333797D01*
X395302Y333713D01*
X395163Y333639D01*
X395173Y333621D01*
X395210Y333575D01*
X395256Y333492D01*
X395330Y333390D01*
X395413Y333270D01*
X395505Y333131D01*
X395607Y332974D01*
X395718Y332817D01*
X395940Y332484D01*
X396051Y332317D01*
X396162Y332160D01*
X396264Y332012D01*
X396356Y331874D01*
X396439Y331753D01*
X396504Y331661D01*
X395431D01*
X394340Y333408D01*
X393823D01*
Y331661D01*
X392861D01*
Y336219D01*
X394276D01*
X394340Y336210D01*
D02*
G37*
G36*
X443724Y390330D02*
X443798Y390321D01*
X443955Y390302D01*
X444131Y390265D01*
X444325Y390219D01*
X444501Y390145D01*
X444667Y390052D01*
X444677D01*
X444686Y390043D01*
X444732Y389997D01*
X444797Y389932D01*
X444880Y389849D01*
X444954Y389729D01*
X445019Y389590D01*
X445065Y389433D01*
X445083Y389341D01*
Y389248D01*
Y389230D01*
Y389174D01*
X445074Y389100D01*
X445056Y388998D01*
X445019Y388888D01*
X444972Y388758D01*
X444908Y388638D01*
X444824Y388518D01*
X444815Y388508D01*
X444778Y388471D01*
X444714Y388416D01*
X444640Y388361D01*
X444529Y388287D01*
X444408Y388222D01*
X444261Y388157D01*
X444094Y388111D01*
Y388092D01*
X444122D01*
X444150Y388083D01*
X444187Y388074D01*
X444288Y388055D01*
X444408Y388028D01*
X444538Y387981D01*
X444677Y387926D01*
X444815Y387852D01*
X444926Y387760D01*
X444935Y387750D01*
X444972Y387713D01*
X445019Y387649D01*
X445074Y387565D01*
X445120Y387464D01*
X445167Y387344D01*
X445204Y387196D01*
X445213Y387038D01*
Y387029D01*
Y387011D01*
Y386974D01*
X445204Y386927D01*
X445194Y386872D01*
X445185Y386817D01*
X445157Y386669D01*
X445093Y386502D01*
X445009Y386336D01*
X444954Y386253D01*
X444889Y386169D01*
X444815Y386095D01*
X444732Y386021D01*
X444723D01*
X444714Y386003D01*
X444686Y385984D01*
X444649Y385966D01*
X444593Y385938D01*
X444538Y385910D01*
X444464Y385873D01*
X444390Y385846D01*
X444297Y385809D01*
X444196Y385772D01*
X444085Y385744D01*
X443965Y385716D01*
X443826Y385698D01*
X443687Y385679D01*
X443539Y385661D01*
X443253D01*
X443188Y385670D01*
X443105D01*
X443022Y385679D01*
X442929Y385689D01*
X442726Y385716D01*
X442504Y385763D01*
X442282Y385818D01*
X442060Y385892D01*
Y386715D01*
X442069Y386706D01*
X442106Y386696D01*
X442162Y386669D01*
X442236Y386641D01*
X442319Y386604D01*
X442421Y386567D01*
X442532Y386530D01*
X442643Y386493D01*
X442661D01*
X442698Y386484D01*
X442763Y386465D01*
X442837Y386456D01*
X442938Y386437D01*
X443040Y386419D01*
X443271Y386410D01*
X443354D01*
X443438Y386419D01*
X443539Y386428D01*
X443650Y386447D01*
X443770Y386484D01*
X443881Y386521D01*
X443974Y386576D01*
X443983Y386585D01*
X444011Y386604D01*
X444048Y386650D01*
X444094Y386706D01*
X444131Y386780D01*
X444168Y386863D01*
X444196Y386974D01*
X444205Y387094D01*
Y387112D01*
Y387149D01*
X444196Y387205D01*
X444168Y387270D01*
X444140Y387344D01*
X444094Y387417D01*
X444029Y387491D01*
X443937Y387547D01*
X443928Y387556D01*
X443891Y387565D01*
X443826Y387593D01*
X443734Y387621D01*
X443623Y387639D01*
X443475Y387667D01*
X443308Y387676D01*
X443105Y387686D01*
X442763D01*
Y388425D01*
X443197D01*
X443290Y388435D01*
X443410Y388444D01*
X443530Y388462D01*
X443660Y388481D01*
X443780Y388518D01*
X443881Y388564D01*
X443891Y388573D01*
X443918Y388592D01*
X443965Y388629D01*
X444011Y388675D01*
X444048Y388740D01*
X444094Y388823D01*
X444122Y388925D01*
X444131Y389045D01*
Y389054D01*
Y389063D01*
X444122Y389128D01*
X444094Y389211D01*
X444048Y389304D01*
X444020Y389350D01*
X443974Y389396D01*
X443918Y389442D01*
X443863Y389479D01*
X443780Y389516D01*
X443697Y389544D01*
X443595Y389553D01*
X443484Y389562D01*
X443401D01*
X443345Y389553D01*
X443271Y389544D01*
X443197Y389525D01*
X443022Y389479D01*
X443012D01*
X442985Y389461D01*
X442938Y389442D01*
X442874Y389424D01*
X442800Y389387D01*
X442707Y389341D01*
X442615Y389285D01*
X442513Y389220D01*
X442069Y389886D01*
X442079Y389895D01*
X442097Y389905D01*
X442134Y389932D01*
X442180Y389960D01*
X442236Y389988D01*
X442310Y390034D01*
X442393Y390071D01*
X442485Y390117D01*
X442587Y390154D01*
X442707Y390201D01*
X442957Y390265D01*
X443234Y390321D01*
X443391Y390330D01*
X443549Y390339D01*
X443669D01*
X443724Y390330D01*
D02*
G37*
G36*
X439749Y386511D02*
X441598D01*
Y385716D01*
X438787D01*
Y390274D01*
X439749D01*
Y386511D01*
D02*
G37*
G36*
X427812Y379302D02*
X427914Y379293D01*
X428034Y379274D01*
X428163Y379247D01*
X428293Y379210D01*
X428413Y379154D01*
X428432Y379145D01*
X428469Y379127D01*
X428524Y379090D01*
X428598Y379043D01*
X428681Y378979D01*
X428764Y378905D01*
X428848Y378812D01*
X428922Y378710D01*
X428931Y378701D01*
X428949Y378664D01*
X428977Y378600D01*
X429014Y378526D01*
X429051Y378433D01*
X429079Y378322D01*
X429097Y378202D01*
X429106Y378073D01*
Y378063D01*
Y378017D01*
X429097Y377962D01*
Y377878D01*
X429079Y377786D01*
X429060Y377693D01*
X429033Y377583D01*
X428996Y377481D01*
X428986Y377472D01*
X428977Y377435D01*
X428949Y377379D01*
X428912Y377305D01*
X428866Y377222D01*
X428801Y377129D01*
X428737Y377028D01*
X428653Y376917D01*
X428644Y376908D01*
X428607Y376861D01*
X428552Y376797D01*
X428469Y376704D01*
X428358Y376593D01*
X428210Y376445D01*
X428043Y376288D01*
X427840Y376094D01*
X427248Y375539D01*
Y375493D01*
X429236D01*
Y374689D01*
X426046D01*
Y375354D01*
X427193Y376510D01*
X427202Y376519D01*
X427211Y376538D01*
X427239Y376556D01*
X427276Y376593D01*
X427359Y376686D01*
X427470Y376797D01*
X427581Y376917D01*
X427692Y377037D01*
X427784Y377148D01*
X427858Y377231D01*
X427868Y377240D01*
X427886Y377268D01*
X427914Y377305D01*
X427942Y377351D01*
X428016Y377472D01*
X428080Y377601D01*
Y377610D01*
X428089Y377629D01*
X428108Y377666D01*
X428117Y377712D01*
X428145Y377832D01*
X428154Y377962D01*
Y377971D01*
Y378008D01*
X428145Y378054D01*
X428136Y378119D01*
X428117Y378183D01*
X428089Y378248D01*
X428052Y378313D01*
X427997Y378368D01*
X427988Y378378D01*
X427969Y378387D01*
X427942Y378415D01*
X427895Y378442D01*
X427840Y378461D01*
X427766Y378489D01*
X427692Y378498D01*
X427599Y378507D01*
X427553D01*
X427498Y378498D01*
X427433Y378489D01*
X427359Y378479D01*
X427267Y378461D01*
X427174Y378424D01*
X427082Y378387D01*
X427072Y378378D01*
X427035Y378368D01*
X426989Y378341D01*
X426925Y378294D01*
X426841Y378248D01*
X426758Y378193D01*
X426666Y378119D01*
X426564Y378036D01*
X426037Y378655D01*
X426055Y378664D01*
X426092Y378701D01*
X426157Y378757D01*
X426231Y378812D01*
X426324Y378877D01*
X426416Y378951D01*
X426508Y379006D01*
X426592Y379062D01*
X426601Y379071D01*
X426629Y379080D01*
X426675Y379108D01*
X426740Y379127D01*
X426804Y379164D01*
X426888Y379191D01*
X427072Y379247D01*
X427082D01*
X427119Y379256D01*
X427174Y379265D01*
X427248Y379284D01*
X427331Y379293D01*
X427433Y379302D01*
X427544Y379311D01*
X427738D01*
X427812Y379302D01*
D02*
G37*
G36*
X423726Y375484D02*
X425575D01*
Y374689D01*
X422764D01*
Y379247D01*
X423726D01*
Y375484D01*
D02*
G37*
G36*
X444455Y331721D02*
X443493D01*
Y334356D01*
X443502Y334790D01*
X443512Y335262D01*
X443502Y335253D01*
X443475Y335225D01*
X443428Y335179D01*
X443382Y335133D01*
X443271Y335031D01*
X443216Y334985D01*
X443179Y334948D01*
X442661Y334532D01*
X442189Y335105D01*
X443660Y336279D01*
X444455D01*
Y331721D01*
D02*
G37*
G36*
X439749Y332516D02*
X441598D01*
Y331721D01*
X438787D01*
Y336279D01*
X439749D01*
Y332516D01*
D02*
G37*
G36*
X265612Y285391D02*
X264650D01*
Y288026D01*
X264660Y288461D01*
X264669Y288932D01*
X264660Y288923D01*
X264632Y288895D01*
X264586Y288849D01*
X264539Y288803D01*
X264429Y288701D01*
X264373Y288655D01*
X264336Y288618D01*
X263818Y288202D01*
X263347Y288775D01*
X264817Y289949D01*
X265612D01*
Y285391D01*
D02*
G37*
G36*
X262394Y285678D02*
Y285669D01*
Y285641D01*
Y285604D01*
X262385Y285548D01*
Y285484D01*
X262376Y285410D01*
X262348Y285234D01*
X262302Y285040D01*
X262237Y284837D01*
X262145Y284652D01*
X262025Y284476D01*
X262006Y284457D01*
X261960Y284411D01*
X261877Y284337D01*
X261756Y284263D01*
X261609Y284189D01*
X261424Y284115D01*
X261202Y284069D01*
X261082Y284060D01*
X260952Y284051D01*
X260841D01*
X260767Y284060D01*
X260675Y284069D01*
X260582Y284078D01*
X260388Y284125D01*
Y284929D01*
X260397D01*
X260434Y284920D01*
X260481Y284911D01*
X260536Y284901D01*
X260610Y284883D01*
X260684Y284874D01*
X260841Y284864D01*
X260897D01*
X260952Y284874D01*
X261017Y284892D01*
X261091Y284911D01*
X261165Y284947D01*
X261239Y285003D01*
X261294Y285068D01*
X261303Y285077D01*
X261313Y285105D01*
X261340Y285151D01*
X261368Y285216D01*
X261387Y285299D01*
X261414Y285410D01*
X261424Y285530D01*
X261433Y285678D01*
Y289949D01*
X262394D01*
Y285678D01*
D02*
G37*
G36*
X420687Y336330D02*
X420752D01*
X420826Y336321D01*
X420900Y336311D01*
X420992Y336302D01*
X421196Y336256D01*
X421427Y336200D01*
X421667Y336127D01*
X421917Y336016D01*
X421602Y335230D01*
X421593Y335239D01*
X421556Y335248D01*
X421510Y335276D01*
X421445Y335304D01*
X421362Y335331D01*
X421279Y335368D01*
X421085Y335442D01*
X421075D01*
X421039Y335461D01*
X420992Y335470D01*
X420928Y335489D01*
X420844Y335507D01*
X420761Y335516D01*
X420576Y335535D01*
X420521D01*
X420484Y335526D01*
X420391Y335516D01*
X420262Y335479D01*
X420132Y335433D01*
X419985Y335359D01*
X419846Y335257D01*
X419790Y335193D01*
X419726Y335119D01*
X419716Y335100D01*
X419698Y335073D01*
X419679Y335045D01*
X419633Y334952D01*
X419578Y334823D01*
X419522Y334666D01*
X419476Y334472D01*
X419439Y334240D01*
X419430Y333982D01*
Y333963D01*
Y333917D01*
X419439Y333843D01*
X419448Y333741D01*
X419467Y333630D01*
X419494Y333501D01*
X419522Y333362D01*
X419578Y333223D01*
X419633Y333075D01*
X419707Y332937D01*
X419799Y332807D01*
X419911Y332696D01*
X420049Y332595D01*
X420197Y332521D01*
X420373Y332475D01*
X420576Y332456D01*
X420659D01*
X420706Y332465D01*
X420761D01*
X420900Y332484D01*
X421075Y332511D01*
X421270Y332558D01*
X421492Y332613D01*
X421741Y332696D01*
Y331883D01*
X421732D01*
X421713Y331874D01*
X421686Y331864D01*
X421639Y331846D01*
X421593Y331827D01*
X421529Y331809D01*
X421455Y331790D01*
X421371Y331772D01*
X421186Y331735D01*
X420974Y331698D01*
X420733Y331670D01*
X420484Y331661D01*
X420391D01*
X420317Y331670D01*
X420234Y331679D01*
X420142Y331689D01*
X420040Y331707D01*
X419920Y331735D01*
X419679Y331809D01*
X419550Y331855D01*
X419430Y331911D01*
X419300Y331975D01*
X419180Y332058D01*
X419069Y332151D01*
X418967Y332253D01*
X418958Y332262D01*
X418949Y332280D01*
X418921Y332317D01*
X418884Y332364D01*
X418847Y332428D01*
X418801Y332502D01*
X418755Y332595D01*
X418709Y332696D01*
X418653Y332807D01*
X418607Y332937D01*
X418561Y333085D01*
X418524Y333233D01*
X418487Y333399D01*
X418459Y333584D01*
X418450Y333778D01*
X418440Y333982D01*
Y333991D01*
Y334009D01*
Y334055D01*
Y334102D01*
X418450Y334166D01*
X418459Y334231D01*
X418477Y334407D01*
X418505Y334601D01*
X418551Y334804D01*
X418616Y335026D01*
X418699Y335230D01*
Y335239D01*
X418709Y335257D01*
X418727Y335285D01*
X418745Y335322D01*
X418810Y335415D01*
X418894Y335535D01*
X418995Y335664D01*
X419125Y335803D01*
X419272Y335932D01*
X419439Y336053D01*
X419448D01*
X419458Y336062D01*
X419485Y336080D01*
X419522Y336099D01*
X419568Y336117D01*
X419624Y336145D01*
X419763Y336200D01*
X419929Y336247D01*
X420123Y336293D01*
X420345Y336330D01*
X420576Y336339D01*
X420641D01*
X420687Y336330D01*
D02*
G37*
G36*
X424071Y336321D02*
X424191Y336302D01*
X424330Y336274D01*
X424478Y336228D01*
X424626Y336173D01*
X424774Y336090D01*
X424792Y336080D01*
X424838Y336043D01*
X424903Y335988D01*
X424986Y335914D01*
X425079Y335812D01*
X425181Y335692D01*
X425273Y335553D01*
X425356Y335396D01*
Y335387D01*
X425365Y335378D01*
X425375Y335350D01*
X425384Y335313D01*
X425421Y335220D01*
X425458Y335100D01*
X425495Y334943D01*
X425532Y334758D01*
X425550Y334555D01*
X425560Y334324D01*
Y334305D01*
Y334268D01*
Y334194D01*
X425550Y334102D01*
X425541Y333991D01*
X425532Y333861D01*
X425513Y333723D01*
X425486Y333565D01*
X425421Y333242D01*
X425375Y333075D01*
X425319Y332909D01*
X425254Y332743D01*
X425171Y332595D01*
X425088Y332447D01*
X424986Y332317D01*
X424977Y332308D01*
X424959Y332290D01*
X424931Y332253D01*
X424885Y332216D01*
X424820Y332169D01*
X424746Y332114D01*
X424663Y332049D01*
X424561Y331994D01*
X424450Y331929D01*
X424321Y331864D01*
X424182Y331809D01*
X424025Y331763D01*
X423858Y331726D01*
X423683Y331689D01*
X423489Y331670D01*
X423276Y331661D01*
X423137D01*
X423045Y331670D01*
X422943D01*
X422841Y331679D01*
X422749Y331689D01*
X422656Y331698D01*
Y332465D01*
X422666D01*
X422703Y332456D01*
X422758Y332447D01*
X422823Y332438D01*
X422906Y332419D01*
X423008Y332410D01*
X423211Y332401D01*
X423294D01*
X423378Y332410D01*
X423489Y332419D01*
X423618Y332438D01*
X423747Y332456D01*
X423877Y332493D01*
X423997Y332539D01*
X424016Y332548D01*
X424053Y332567D01*
X424108Y332604D01*
X424173Y332650D01*
X424256Y332715D01*
X424330Y332789D01*
X424413Y332881D01*
X424478Y332992D01*
X424487Y333011D01*
X424506Y333048D01*
X424533Y333112D01*
X424561Y333214D01*
X424598Y333334D01*
X424626Y333473D01*
X424654Y333639D01*
X424672Y333824D01*
X424635D01*
X424626Y333815D01*
X424607Y333778D01*
X424561Y333732D01*
X424515Y333667D01*
X424450Y333602D01*
X424376Y333529D01*
X424293Y333473D01*
X424210Y333418D01*
X424200Y333408D01*
X424173Y333399D01*
X424117Y333381D01*
X424053Y333362D01*
X423960Y333334D01*
X423858Y333316D01*
X423747Y333307D01*
X423618Y333297D01*
X423563D01*
X423516Y333307D01*
X423415Y333316D01*
X423276Y333344D01*
X423128Y333390D01*
X422971Y333455D01*
X422823Y333547D01*
X422684Y333676D01*
X422666Y333695D01*
X422629Y333750D01*
X422573Y333834D01*
X422518Y333954D01*
X422453Y334111D01*
X422398Y334287D01*
X422361Y334499D01*
X422342Y334740D01*
Y334749D01*
Y334777D01*
Y334814D01*
X422351Y334860D01*
Y334925D01*
X422361Y334989D01*
X422398Y335156D01*
X422444Y335341D01*
X422518Y335535D01*
X422619Y335720D01*
X422684Y335812D01*
X422758Y335895D01*
X422767Y335905D01*
X422777Y335914D01*
X422804Y335932D01*
X422832Y335960D01*
X422925Y336034D01*
X423054Y336117D01*
X423220Y336191D01*
X423405Y336265D01*
X423637Y336311D01*
X423757Y336330D01*
X423969D01*
X424071Y336321D01*
D02*
G37*
G36*
X364687Y336330D02*
X364752D01*
X364826Y336321D01*
X364900Y336311D01*
X364992Y336302D01*
X365196Y336256D01*
X365427Y336200D01*
X365667Y336127D01*
X365917Y336016D01*
X365602Y335230D01*
X365593Y335239D01*
X365556Y335248D01*
X365510Y335276D01*
X365445Y335304D01*
X365362Y335331D01*
X365279Y335368D01*
X365085Y335442D01*
X365075D01*
X365038Y335461D01*
X364992Y335470D01*
X364927Y335489D01*
X364844Y335507D01*
X364761Y335516D01*
X364576Y335535D01*
X364521D01*
X364484Y335526D01*
X364391Y335516D01*
X364262Y335479D01*
X364132Y335433D01*
X363984Y335359D01*
X363846Y335257D01*
X363790Y335193D01*
X363726Y335119D01*
X363716Y335100D01*
X363698Y335073D01*
X363679Y335045D01*
X363633Y334952D01*
X363578Y334823D01*
X363522Y334666D01*
X363476Y334472D01*
X363439Y334240D01*
X363430Y333982D01*
Y333963D01*
Y333917D01*
X363439Y333843D01*
X363448Y333741D01*
X363467Y333630D01*
X363494Y333501D01*
X363522Y333362D01*
X363578Y333223D01*
X363633Y333075D01*
X363707Y332937D01*
X363800Y332807D01*
X363910Y332696D01*
X364049Y332595D01*
X364197Y332521D01*
X364373Y332475D01*
X364576Y332456D01*
X364659D01*
X364706Y332465D01*
X364761D01*
X364900Y332484D01*
X365075Y332511D01*
X365270Y332558D01*
X365491Y332613D01*
X365741Y332696D01*
Y331883D01*
X365732D01*
X365713Y331874D01*
X365686Y331864D01*
X365639Y331846D01*
X365593Y331827D01*
X365528Y331809D01*
X365454Y331790D01*
X365371Y331772D01*
X365186Y331735D01*
X364974Y331698D01*
X364733Y331670D01*
X364484Y331661D01*
X364391D01*
X364317Y331670D01*
X364234Y331679D01*
X364142Y331689D01*
X364040Y331707D01*
X363920Y331735D01*
X363679Y331809D01*
X363550Y331855D01*
X363430Y331911D01*
X363300Y331975D01*
X363180Y332058D01*
X363069Y332151D01*
X362967Y332253D01*
X362958Y332262D01*
X362949Y332280D01*
X362921Y332317D01*
X362884Y332364D01*
X362847Y332428D01*
X362801Y332502D01*
X362755Y332595D01*
X362709Y332696D01*
X362653Y332807D01*
X362607Y332937D01*
X362561Y333085D01*
X362524Y333233D01*
X362487Y333399D01*
X362459Y333584D01*
X362450Y333778D01*
X362440Y333982D01*
Y333991D01*
Y334009D01*
Y334055D01*
Y334102D01*
X362450Y334166D01*
X362459Y334231D01*
X362477Y334407D01*
X362505Y334601D01*
X362551Y334804D01*
X362616Y335026D01*
X362699Y335230D01*
Y335239D01*
X362709Y335257D01*
X362727Y335285D01*
X362746Y335322D01*
X362810Y335415D01*
X362893Y335535D01*
X362995Y335664D01*
X363125Y335803D01*
X363273Y335932D01*
X363439Y336053D01*
X363448D01*
X363457Y336062D01*
X363485Y336080D01*
X363522Y336099D01*
X363568Y336117D01*
X363624Y336145D01*
X363763Y336200D01*
X363929Y336247D01*
X364123Y336293D01*
X364345Y336330D01*
X364576Y336339D01*
X364641D01*
X364687Y336330D01*
D02*
G37*
G36*
X368126Y336321D02*
X368191Y336311D01*
X368339Y336293D01*
X368506Y336256D01*
X368681Y336210D01*
X368857Y336136D01*
X369014Y336034D01*
X369023D01*
X369033Y336025D01*
X369079Y335979D01*
X369143Y335914D01*
X369217Y335821D01*
X369291Y335710D01*
X369356Y335572D01*
X369402Y335415D01*
X369421Y335322D01*
Y335230D01*
Y335211D01*
Y335174D01*
X369412Y335100D01*
X369393Y335017D01*
X369375Y334925D01*
X369338Y334814D01*
X369291Y334712D01*
X369227Y334601D01*
X369217Y334592D01*
X369190Y334555D01*
X369143Y334509D01*
X369079Y334444D01*
X368986Y334370D01*
X368875Y334287D01*
X368746Y334203D01*
X368598Y334120D01*
X368607D01*
X368616Y334111D01*
X368644Y334092D01*
X368681Y334074D01*
X368774Y334019D01*
X368885Y333945D01*
X369005Y333861D01*
X369125Y333760D01*
X369245Y333658D01*
X369338Y333547D01*
X369347Y333538D01*
X369375Y333492D01*
X369412Y333436D01*
X369449Y333353D01*
X369486Y333260D01*
X369523Y333149D01*
X369550Y333020D01*
X369560Y332891D01*
Y332881D01*
Y332863D01*
Y332835D01*
X369550Y332798D01*
X369541Y332696D01*
X369504Y332567D01*
X369449Y332428D01*
X369375Y332280D01*
X369264Y332132D01*
X369190Y332058D01*
X369116Y331994D01*
X369106D01*
X369097Y331975D01*
X369070Y331966D01*
X369033Y331938D01*
X368996Y331920D01*
X368940Y331892D01*
X368811Y331827D01*
X368644Y331763D01*
X368441Y331716D01*
X368219Y331679D01*
X367960Y331661D01*
X367886D01*
X367840Y331670D01*
X367775D01*
X367701Y331679D01*
X367535Y331698D01*
X367341Y331735D01*
X367146Y331790D01*
X366962Y331874D01*
X366786Y331975D01*
X366767Y331994D01*
X366721Y332031D01*
X366647Y332105D01*
X366573Y332206D01*
X366499Y332336D01*
X366425Y332484D01*
X366379Y332669D01*
X366370Y332770D01*
X366361Y332872D01*
Y332891D01*
Y332937D01*
X366370Y333011D01*
X366388Y333103D01*
X366407Y333214D01*
X366444Y333325D01*
X366499Y333445D01*
X366564Y333556D01*
X366573Y333565D01*
X366601Y333612D01*
X366656Y333667D01*
X366730Y333741D01*
X366823Y333824D01*
X366934Y333908D01*
X367072Y334000D01*
X367230Y334092D01*
X367211Y334102D01*
X367165Y334139D01*
X367100Y334185D01*
X367017Y334250D01*
X366925Y334333D01*
X366832Y334416D01*
X366740Y334518D01*
X366666Y334619D01*
X366656Y334629D01*
X366638Y334666D01*
X366610Y334730D01*
X366582Y334804D01*
X366555Y334897D01*
X366527Y334999D01*
X366508Y335119D01*
X366499Y335239D01*
Y335248D01*
Y335257D01*
Y335285D01*
X366508Y335322D01*
X366518Y335405D01*
X366555Y335526D01*
X366601Y335646D01*
X366675Y335775D01*
X366777Y335905D01*
X366832Y335969D01*
X366906Y336025D01*
X366915D01*
X366925Y336034D01*
X366980Y336071D01*
X367072Y336117D01*
X367193Y336182D01*
X367341Y336237D01*
X367525Y336284D01*
X367729Y336321D01*
X367960Y336330D01*
X368071D01*
X368126Y336321D01*
D02*
G37*
G36*
X482627Y378330D02*
X482692D01*
X482766Y378321D01*
X482840Y378311D01*
X482932Y378302D01*
X483135Y378256D01*
X483367Y378200D01*
X483607Y378126D01*
X483857Y378016D01*
X483542Y377230D01*
X483533Y377239D01*
X483496Y377248D01*
X483450Y377276D01*
X483385Y377304D01*
X483302Y377331D01*
X483219Y377368D01*
X483025Y377442D01*
X483015D01*
X482978Y377461D01*
X482932Y377470D01*
X482867Y377489D01*
X482784Y377507D01*
X482701Y377516D01*
X482516Y377535D01*
X482461D01*
X482424Y377525D01*
X482331Y377516D01*
X482202Y377479D01*
X482072Y377433D01*
X481924Y377359D01*
X481786Y377257D01*
X481730Y377193D01*
X481665Y377119D01*
X481656Y377100D01*
X481638Y377072D01*
X481619Y377045D01*
X481573Y376952D01*
X481518Y376823D01*
X481462Y376666D01*
X481416Y376471D01*
X481379Y376240D01*
X481370Y375981D01*
Y375963D01*
Y375917D01*
X481379Y375843D01*
X481388Y375741D01*
X481407Y375630D01*
X481434Y375501D01*
X481462Y375362D01*
X481518Y375223D01*
X481573Y375075D01*
X481647Y374937D01*
X481739Y374807D01*
X481850Y374696D01*
X481989Y374595D01*
X482137Y374521D01*
X482313Y374474D01*
X482516Y374456D01*
X482599D01*
X482645Y374465D01*
X482701D01*
X482840Y374484D01*
X483015Y374511D01*
X483209Y374558D01*
X483431Y374613D01*
X483681Y374696D01*
Y373883D01*
X483672D01*
X483653Y373873D01*
X483626Y373864D01*
X483579Y373846D01*
X483533Y373827D01*
X483468Y373809D01*
X483394Y373790D01*
X483311Y373772D01*
X483126Y373735D01*
X482914Y373698D01*
X482673Y373670D01*
X482424Y373661D01*
X482331D01*
X482257Y373670D01*
X482174Y373679D01*
X482081Y373689D01*
X481980Y373707D01*
X481860Y373735D01*
X481619Y373809D01*
X481490Y373855D01*
X481370Y373910D01*
X481240Y373975D01*
X481120Y374058D01*
X481009Y374151D01*
X480907Y374253D01*
X480898Y374262D01*
X480889Y374280D01*
X480861Y374317D01*
X480824Y374364D01*
X480787Y374428D01*
X480741Y374502D01*
X480695Y374595D01*
X480648Y374696D01*
X480593Y374807D01*
X480547Y374937D01*
X480500Y375085D01*
X480464Y375233D01*
X480427Y375399D01*
X480399Y375584D01*
X480390Y375778D01*
X480380Y375981D01*
Y375991D01*
Y376009D01*
Y376055D01*
Y376102D01*
X480390Y376166D01*
X480399Y376231D01*
X480417Y376407D01*
X480445Y376601D01*
X480491Y376804D01*
X480556Y377026D01*
X480639Y377230D01*
Y377239D01*
X480648Y377257D01*
X480667Y377285D01*
X480685Y377322D01*
X480750Y377415D01*
X480833Y377535D01*
X480935Y377664D01*
X481064Y377803D01*
X481212Y377932D01*
X481379Y378052D01*
X481388D01*
X481397Y378062D01*
X481425Y378080D01*
X481462Y378099D01*
X481508Y378117D01*
X481564Y378145D01*
X481702Y378200D01*
X481869Y378247D01*
X482063Y378293D01*
X482285Y378330D01*
X482516Y378339D01*
X482581D01*
X482627Y378330D01*
D02*
G37*
G36*
X487518Y377664D02*
X485789Y373716D01*
X484781D01*
X486492Y377452D01*
X484245D01*
Y378265D01*
X487518D01*
Y377664D01*
D02*
G37*
G36*
X486806Y392321D02*
X486908D01*
X487009Y392311D01*
X487102Y392293D01*
X487194Y392274D01*
Y391507D01*
X487185D01*
X487148Y391516D01*
X487093Y391525D01*
X487019Y391544D01*
X486936Y391553D01*
X486843Y391562D01*
X486649Y391572D01*
X486566D01*
X486473Y391562D01*
X486362Y391553D01*
X486233Y391535D01*
X486094Y391507D01*
X485965Y391470D01*
X485835Y391415D01*
X485826Y391405D01*
X485780Y391387D01*
X485724Y391350D01*
X485660Y391304D01*
X485586Y391239D01*
X485502Y391165D01*
X485428Y391073D01*
X485364Y390971D01*
X485354Y390961D01*
X485336Y390915D01*
X485317Y390851D01*
X485290Y390758D01*
X485253Y390647D01*
X485225Y390499D01*
X485206Y390342D01*
X485188Y390148D01*
X485225D01*
Y390157D01*
X485243Y390166D01*
X485262Y390194D01*
X485280Y390231D01*
X485354Y390314D01*
X485465Y390416D01*
X485604Y390508D01*
X485770Y390592D01*
X485872Y390629D01*
X485974Y390656D01*
X486094Y390666D01*
X486214Y390675D01*
X486270D01*
X486316Y390666D01*
X486427Y390656D01*
X486566Y390629D01*
X486714Y390583D01*
X486871Y390508D01*
X487028Y390416D01*
X487167Y390287D01*
X487185Y390268D01*
X487222Y390213D01*
X487278Y390129D01*
X487342Y390009D01*
X487407Y389861D01*
X487463Y389686D01*
X487500Y389473D01*
X487518Y389233D01*
Y389223D01*
Y389205D01*
Y389159D01*
X487509Y389112D01*
Y389048D01*
X487500Y388983D01*
X487463Y388817D01*
X487416Y388632D01*
X487342Y388438D01*
X487241Y388253D01*
X487176Y388160D01*
X487102Y388077D01*
X487083Y388058D01*
X487056Y388040D01*
X487028Y388012D01*
X486936Y387948D01*
X486806Y387873D01*
X486649Y387790D01*
X486455Y387726D01*
X486224Y387679D01*
X486094Y387670D01*
X485965Y387661D01*
X485882D01*
X485780Y387670D01*
X485660Y387689D01*
X485521Y387716D01*
X485373Y387753D01*
X485225Y387809D01*
X485077Y387883D01*
X485059Y387892D01*
X485012Y387929D01*
X484948Y387985D01*
X484865Y388058D01*
X484772Y388151D01*
X484679Y388271D01*
X484587Y388410D01*
X484504Y388567D01*
Y388576D01*
X484495Y388585D01*
X484485Y388613D01*
X484476Y388650D01*
X484439Y388743D01*
X484402Y388872D01*
X484365Y389029D01*
X484328Y389214D01*
X484310Y389417D01*
X484300Y389649D01*
Y389667D01*
Y389704D01*
Y389778D01*
X484310Y389871D01*
X484319Y389981D01*
X484328Y390111D01*
X484347Y390250D01*
X484374Y390407D01*
X484439Y390730D01*
X484485Y390906D01*
X484541Y391073D01*
X484606Y391230D01*
X484689Y391387D01*
X484772Y391535D01*
X484874Y391664D01*
X484883Y391674D01*
X484901Y391692D01*
X484938Y391729D01*
X484985Y391766D01*
X485040Y391821D01*
X485114Y391877D01*
X485206Y391932D01*
X485299Y391997D01*
X485419Y392062D01*
X485539Y392117D01*
X485687Y392173D01*
X485835Y392228D01*
X486002Y392265D01*
X486187Y392302D01*
X486381Y392321D01*
X486584Y392330D01*
X486723D01*
X486806Y392321D01*
D02*
G37*
G36*
X482627Y392330D02*
X482692D01*
X482766Y392321D01*
X482840Y392311D01*
X482932Y392302D01*
X483135Y392256D01*
X483367Y392201D01*
X483607Y392127D01*
X483857Y392015D01*
X483542Y391230D01*
X483533Y391239D01*
X483496Y391248D01*
X483450Y391276D01*
X483385Y391304D01*
X483302Y391331D01*
X483219Y391368D01*
X483025Y391442D01*
X483015D01*
X482978Y391461D01*
X482932Y391470D01*
X482867Y391488D01*
X482784Y391507D01*
X482701Y391516D01*
X482516Y391535D01*
X482461D01*
X482424Y391525D01*
X482331Y391516D01*
X482202Y391479D01*
X482072Y391433D01*
X481924Y391359D01*
X481786Y391257D01*
X481730Y391193D01*
X481665Y391119D01*
X481656Y391100D01*
X481638Y391073D01*
X481619Y391045D01*
X481573Y390952D01*
X481518Y390823D01*
X481462Y390666D01*
X481416Y390471D01*
X481379Y390240D01*
X481370Y389981D01*
Y389963D01*
Y389917D01*
X481379Y389843D01*
X481388Y389741D01*
X481407Y389630D01*
X481434Y389501D01*
X481462Y389362D01*
X481518Y389223D01*
X481573Y389075D01*
X481647Y388937D01*
X481739Y388807D01*
X481850Y388696D01*
X481989Y388595D01*
X482137Y388521D01*
X482313Y388475D01*
X482516Y388456D01*
X482599D01*
X482645Y388465D01*
X482701D01*
X482840Y388484D01*
X483015Y388512D01*
X483209Y388558D01*
X483431Y388613D01*
X483681Y388696D01*
Y387883D01*
X483672D01*
X483653Y387873D01*
X483626Y387864D01*
X483579Y387846D01*
X483533Y387827D01*
X483468Y387809D01*
X483394Y387790D01*
X483311Y387772D01*
X483126Y387735D01*
X482914Y387698D01*
X482673Y387670D01*
X482424Y387661D01*
X482331D01*
X482257Y387670D01*
X482174Y387679D01*
X482081Y387689D01*
X481980Y387707D01*
X481860Y387735D01*
X481619Y387809D01*
X481490Y387855D01*
X481370Y387910D01*
X481240Y387975D01*
X481120Y388058D01*
X481009Y388151D01*
X480907Y388253D01*
X480898Y388262D01*
X480889Y388280D01*
X480861Y388317D01*
X480824Y388363D01*
X480787Y388428D01*
X480741Y388502D01*
X480695Y388595D01*
X480648Y388696D01*
X480593Y388807D01*
X480547Y388937D01*
X480500Y389085D01*
X480464Y389233D01*
X480427Y389399D01*
X480399Y389584D01*
X480390Y389778D01*
X480380Y389981D01*
Y389991D01*
Y390009D01*
Y390056D01*
Y390102D01*
X480390Y390166D01*
X480399Y390231D01*
X480417Y390407D01*
X480445Y390601D01*
X480491Y390804D01*
X480556Y391026D01*
X480639Y391230D01*
Y391239D01*
X480648Y391257D01*
X480667Y391285D01*
X480685Y391322D01*
X480750Y391415D01*
X480833Y391535D01*
X480935Y391664D01*
X481064Y391803D01*
X481212Y391932D01*
X481379Y392052D01*
X481388D01*
X481397Y392062D01*
X481425Y392080D01*
X481462Y392099D01*
X481508Y392117D01*
X481564Y392145D01*
X481702Y392201D01*
X481869Y392247D01*
X482063Y392293D01*
X482285Y392330D01*
X482516Y392339D01*
X482581D01*
X482627Y392330D01*
D02*
G37*
G36*
X378719Y394330D02*
X378784D01*
X378858Y394321D01*
X378932Y394311D01*
X379025Y394302D01*
X379228Y394256D01*
X379459Y394201D01*
X379700Y394127D01*
X379949Y394016D01*
X379635Y393230D01*
X379626Y393239D01*
X379589Y393248D01*
X379542Y393276D01*
X379478Y393304D01*
X379394Y393331D01*
X379311Y393368D01*
X379117Y393442D01*
X379108D01*
X379071Y393461D01*
X379025Y393470D01*
X378960Y393489D01*
X378877Y393507D01*
X378793Y393516D01*
X378609Y393535D01*
X378553D01*
X378516Y393526D01*
X378424Y393516D01*
X378294Y393479D01*
X378165Y393433D01*
X378017Y393359D01*
X377878Y393257D01*
X377823Y393193D01*
X377758Y393119D01*
X377749Y393100D01*
X377730Y393073D01*
X377712Y393045D01*
X377665Y392952D01*
X377610Y392823D01*
X377555Y392666D01*
X377508Y392472D01*
X377471Y392240D01*
X377462Y391982D01*
Y391963D01*
Y391917D01*
X377471Y391843D01*
X377481Y391741D01*
X377499Y391630D01*
X377527Y391501D01*
X377555Y391362D01*
X377610Y391223D01*
X377665Y391075D01*
X377739Y390937D01*
X377832Y390807D01*
X377943Y390696D01*
X378082Y390595D01*
X378229Y390521D01*
X378405Y390475D01*
X378609Y390456D01*
X378692D01*
X378738Y390465D01*
X378793D01*
X378932Y390484D01*
X379108Y390512D01*
X379302Y390558D01*
X379524Y390613D01*
X379773Y390696D01*
Y389883D01*
X379764D01*
X379746Y389874D01*
X379718Y389864D01*
X379672Y389846D01*
X379626Y389827D01*
X379561Y389809D01*
X379487Y389790D01*
X379404Y389772D01*
X379219Y389735D01*
X379006Y389698D01*
X378766Y389670D01*
X378516Y389661D01*
X378424D01*
X378350Y389670D01*
X378266Y389679D01*
X378174Y389689D01*
X378072Y389707D01*
X377952Y389735D01*
X377712Y389809D01*
X377582Y389855D01*
X377462Y389911D01*
X377333Y389975D01*
X377212Y390058D01*
X377102Y390151D01*
X377000Y390253D01*
X376991Y390262D01*
X376981Y390280D01*
X376954Y390317D01*
X376917Y390364D01*
X376880Y390428D01*
X376833Y390502D01*
X376787Y390595D01*
X376741Y390696D01*
X376685Y390807D01*
X376639Y390937D01*
X376593Y391085D01*
X376556Y391233D01*
X376519Y391399D01*
X376491Y391584D01*
X376482Y391778D01*
X376473Y391982D01*
Y391991D01*
Y392009D01*
Y392056D01*
Y392102D01*
X376482Y392166D01*
X376491Y392231D01*
X376510Y392407D01*
X376538Y392601D01*
X376584Y392804D01*
X376648Y393026D01*
X376732Y393230D01*
Y393239D01*
X376741Y393257D01*
X376759Y393285D01*
X376778Y393322D01*
X376843Y393415D01*
X376926Y393535D01*
X377028Y393664D01*
X377157Y393803D01*
X377305Y393932D01*
X377471Y394053D01*
X377481D01*
X377490Y394062D01*
X377518Y394080D01*
X377555Y394099D01*
X377601Y394117D01*
X377656Y394145D01*
X377795Y394201D01*
X377961Y394247D01*
X378156Y394293D01*
X378377Y394330D01*
X378609Y394339D01*
X378673D01*
X378719Y394330D01*
D02*
G37*
G36*
X383213Y393452D02*
X381586D01*
X381502Y392564D01*
X381613Y392583D01*
X381623D01*
X381650Y392592D01*
X381687Y392601D01*
X381743Y392610D01*
X381808D01*
X381891Y392620D01*
X381983Y392629D01*
X382150D01*
X382196Y392620D01*
X382251D01*
X382316Y392610D01*
X382464Y392583D01*
X382630Y392536D01*
X382806Y392472D01*
X382972Y392379D01*
X383130Y392250D01*
X383139D01*
X383148Y392231D01*
X383194Y392185D01*
X383259Y392102D01*
X383333Y391982D01*
X383398Y391843D01*
X383462Y391667D01*
X383509Y391464D01*
X383527Y391353D01*
Y391233D01*
Y391223D01*
Y391196D01*
Y391159D01*
X383518Y391112D01*
X383509Y391048D01*
X383499Y390974D01*
X383472Y390807D01*
X383416Y390613D01*
X383333Y390419D01*
X383278Y390326D01*
X383213Y390234D01*
X383139Y390151D01*
X383056Y390068D01*
X383046D01*
X383037Y390049D01*
X383009Y390031D01*
X382972Y390003D01*
X382917Y389975D01*
X382862Y389938D01*
X382788Y389901D01*
X382714Y389864D01*
X382621Y389827D01*
X382519Y389790D01*
X382408Y389753D01*
X382288Y389726D01*
X382159Y389698D01*
X382020Y389679D01*
X381863Y389670D01*
X381706Y389661D01*
X381576D01*
X381512Y389670D01*
X381438D01*
X381271Y389689D01*
X381077Y389716D01*
X380864Y389763D01*
X380661Y389818D01*
X380476Y389892D01*
Y390733D01*
X380485Y390724D01*
X380522Y390715D01*
X380569Y390687D01*
X380643Y390650D01*
X380726Y390622D01*
X380827Y390585D01*
X380929Y390548D01*
X381049Y390512D01*
X381068D01*
X381105Y390502D01*
X381170Y390484D01*
X381253Y390475D01*
X381345Y390456D01*
X381447Y390438D01*
X381669Y390428D01*
X381706D01*
X381752Y390438D01*
X381808D01*
X381872Y390447D01*
X381946Y390465D01*
X382113Y390521D01*
X382196Y390558D01*
X382279Y390604D01*
X382353Y390669D01*
X382418Y390733D01*
X382473Y390817D01*
X382519Y390918D01*
X382547Y391029D01*
X382556Y391159D01*
Y391168D01*
Y391186D01*
X382547Y391223D01*
X382538Y391270D01*
X382510Y391371D01*
X382482Y391436D01*
X382445Y391501D01*
X382390Y391566D01*
X382335Y391630D01*
X382261Y391686D01*
X382168Y391732D01*
X382066Y391778D01*
X381946Y391815D01*
X381798Y391834D01*
X381641Y391843D01*
X381530D01*
X381475Y391834D01*
X381419Y391824D01*
X381271Y391806D01*
X381244D01*
X381207Y391797D01*
X381160Y391787D01*
X381059Y391769D01*
X380957Y391741D01*
X380569Y391945D01*
X380744Y394274D01*
X383213D01*
Y393452D01*
D02*
G37*
G36*
X482627Y348330D02*
X482692D01*
X482766Y348321D01*
X482840Y348311D01*
X482932Y348302D01*
X483135Y348256D01*
X483367Y348200D01*
X483607Y348126D01*
X483857Y348016D01*
X483542Y347230D01*
X483533Y347239D01*
X483496Y347248D01*
X483450Y347276D01*
X483385Y347304D01*
X483302Y347331D01*
X483219Y347368D01*
X483025Y347442D01*
X483015D01*
X482978Y347461D01*
X482932Y347470D01*
X482867Y347489D01*
X482784Y347507D01*
X482701Y347516D01*
X482516Y347535D01*
X482461D01*
X482424Y347525D01*
X482331Y347516D01*
X482202Y347479D01*
X482072Y347433D01*
X481924Y347359D01*
X481786Y347257D01*
X481730Y347193D01*
X481665Y347119D01*
X481656Y347100D01*
X481638Y347072D01*
X481619Y347045D01*
X481573Y346952D01*
X481518Y346823D01*
X481462Y346666D01*
X481416Y346471D01*
X481379Y346240D01*
X481370Y345981D01*
Y345963D01*
Y345917D01*
X481379Y345843D01*
X481388Y345741D01*
X481407Y345630D01*
X481434Y345501D01*
X481462Y345362D01*
X481518Y345223D01*
X481573Y345075D01*
X481647Y344937D01*
X481739Y344807D01*
X481850Y344696D01*
X481989Y344595D01*
X482137Y344521D01*
X482313Y344474D01*
X482516Y344456D01*
X482599D01*
X482645Y344465D01*
X482701D01*
X482840Y344484D01*
X483015Y344511D01*
X483209Y344558D01*
X483431Y344613D01*
X483681Y344696D01*
Y343883D01*
X483672D01*
X483653Y343873D01*
X483626Y343864D01*
X483579Y343846D01*
X483533Y343827D01*
X483468Y343809D01*
X483394Y343790D01*
X483311Y343772D01*
X483126Y343735D01*
X482914Y343698D01*
X482673Y343670D01*
X482424Y343661D01*
X482331D01*
X482257Y343670D01*
X482174Y343679D01*
X482081Y343689D01*
X481980Y343707D01*
X481860Y343735D01*
X481619Y343809D01*
X481490Y343855D01*
X481370Y343910D01*
X481240Y343975D01*
X481120Y344058D01*
X481009Y344151D01*
X480907Y344253D01*
X480898Y344262D01*
X480889Y344280D01*
X480861Y344317D01*
X480824Y344364D01*
X480787Y344428D01*
X480741Y344502D01*
X480695Y344595D01*
X480648Y344696D01*
X480593Y344807D01*
X480547Y344937D01*
X480500Y345085D01*
X480464Y345233D01*
X480427Y345399D01*
X480399Y345584D01*
X480390Y345778D01*
X480380Y345981D01*
Y345991D01*
Y346009D01*
Y346055D01*
Y346102D01*
X480390Y346166D01*
X480399Y346231D01*
X480417Y346407D01*
X480445Y346601D01*
X480491Y346804D01*
X480556Y347026D01*
X480639Y347230D01*
Y347239D01*
X480648Y347257D01*
X480667Y347285D01*
X480685Y347322D01*
X480750Y347415D01*
X480833Y347535D01*
X480935Y347664D01*
X481064Y347803D01*
X481212Y347932D01*
X481379Y348052D01*
X481388D01*
X481397Y348062D01*
X481425Y348080D01*
X481462Y348099D01*
X481508Y348117D01*
X481564Y348145D01*
X481702Y348200D01*
X481869Y348247D01*
X482063Y348293D01*
X482285Y348330D01*
X482516Y348339D01*
X482581D01*
X482627Y348330D01*
D02*
G37*
G36*
X487074Y345408D02*
X487620D01*
Y344659D01*
X487074D01*
Y343716D01*
X486131D01*
Y344659D01*
X484180D01*
Y345325D01*
X486187Y348274D01*
X487074D01*
Y345408D01*
D02*
G37*
G36*
X482627Y334330D02*
X482692D01*
X482766Y334321D01*
X482840Y334311D01*
X482932Y334302D01*
X483135Y334256D01*
X483367Y334200D01*
X483607Y334127D01*
X483857Y334016D01*
X483542Y333230D01*
X483533Y333239D01*
X483496Y333248D01*
X483450Y333276D01*
X483385Y333304D01*
X483302Y333331D01*
X483219Y333368D01*
X483025Y333442D01*
X483015D01*
X482978Y333461D01*
X482932Y333470D01*
X482867Y333489D01*
X482784Y333507D01*
X482701Y333516D01*
X482516Y333535D01*
X482461D01*
X482424Y333526D01*
X482331Y333516D01*
X482202Y333479D01*
X482072Y333433D01*
X481924Y333359D01*
X481786Y333257D01*
X481730Y333193D01*
X481665Y333119D01*
X481656Y333100D01*
X481638Y333073D01*
X481619Y333045D01*
X481573Y332952D01*
X481518Y332823D01*
X481462Y332666D01*
X481416Y332472D01*
X481379Y332240D01*
X481370Y331982D01*
Y331963D01*
Y331917D01*
X481379Y331843D01*
X481388Y331741D01*
X481407Y331630D01*
X481434Y331501D01*
X481462Y331362D01*
X481518Y331223D01*
X481573Y331075D01*
X481647Y330937D01*
X481739Y330807D01*
X481850Y330696D01*
X481989Y330595D01*
X482137Y330521D01*
X482313Y330475D01*
X482516Y330456D01*
X482599D01*
X482645Y330465D01*
X482701D01*
X482840Y330484D01*
X483015Y330512D01*
X483209Y330558D01*
X483431Y330613D01*
X483681Y330696D01*
Y329883D01*
X483672D01*
X483653Y329874D01*
X483626Y329864D01*
X483579Y329846D01*
X483533Y329827D01*
X483468Y329809D01*
X483394Y329790D01*
X483311Y329772D01*
X483126Y329735D01*
X482914Y329698D01*
X482673Y329670D01*
X482424Y329661D01*
X482331D01*
X482257Y329670D01*
X482174Y329679D01*
X482081Y329689D01*
X481980Y329707D01*
X481860Y329735D01*
X481619Y329809D01*
X481490Y329855D01*
X481370Y329911D01*
X481240Y329975D01*
X481120Y330058D01*
X481009Y330151D01*
X480907Y330253D01*
X480898Y330262D01*
X480889Y330280D01*
X480861Y330317D01*
X480824Y330364D01*
X480787Y330428D01*
X480741Y330502D01*
X480695Y330595D01*
X480648Y330696D01*
X480593Y330807D01*
X480547Y330937D01*
X480500Y331085D01*
X480464Y331233D01*
X480427Y331399D01*
X480399Y331584D01*
X480390Y331778D01*
X480380Y331982D01*
Y331991D01*
Y332009D01*
Y332056D01*
Y332102D01*
X480390Y332166D01*
X480399Y332231D01*
X480417Y332407D01*
X480445Y332601D01*
X480491Y332804D01*
X480556Y333026D01*
X480639Y333230D01*
Y333239D01*
X480648Y333257D01*
X480667Y333285D01*
X480685Y333322D01*
X480750Y333415D01*
X480833Y333535D01*
X480935Y333664D01*
X481064Y333803D01*
X481212Y333932D01*
X481379Y334053D01*
X481388D01*
X481397Y334062D01*
X481425Y334080D01*
X481462Y334099D01*
X481508Y334117D01*
X481564Y334145D01*
X481702Y334200D01*
X481869Y334247D01*
X482063Y334293D01*
X482285Y334330D01*
X482516Y334339D01*
X482581D01*
X482627Y334330D01*
D02*
G37*
G36*
X485983D02*
X486057Y334321D01*
X486214Y334302D01*
X486390Y334265D01*
X486584Y334219D01*
X486760Y334145D01*
X486926Y334053D01*
X486936D01*
X486945Y334043D01*
X486991Y333997D01*
X487056Y333932D01*
X487139Y333849D01*
X487213Y333729D01*
X487278Y333590D01*
X487324Y333433D01*
X487342Y333341D01*
Y333248D01*
Y333230D01*
Y333174D01*
X487333Y333100D01*
X487314Y332999D01*
X487278Y332888D01*
X487231Y332758D01*
X487167Y332638D01*
X487083Y332518D01*
X487074Y332509D01*
X487037Y332472D01*
X486973Y332416D01*
X486898Y332361D01*
X486787Y332287D01*
X486667Y332222D01*
X486519Y332157D01*
X486353Y332111D01*
Y332093D01*
X486381D01*
X486409Y332083D01*
X486446Y332074D01*
X486547Y332056D01*
X486667Y332028D01*
X486797Y331982D01*
X486936Y331926D01*
X487074Y331852D01*
X487185Y331760D01*
X487194Y331750D01*
X487231Y331713D01*
X487278Y331649D01*
X487333Y331566D01*
X487379Y331464D01*
X487425Y331344D01*
X487463Y331196D01*
X487472Y331039D01*
Y331029D01*
Y331011D01*
Y330974D01*
X487463Y330928D01*
X487453Y330872D01*
X487444Y330817D01*
X487416Y330669D01*
X487351Y330502D01*
X487268Y330336D01*
X487213Y330253D01*
X487148Y330169D01*
X487074Y330095D01*
X486991Y330021D01*
X486982D01*
X486973Y330003D01*
X486945Y329985D01*
X486908Y329966D01*
X486852Y329938D01*
X486797Y329911D01*
X486723Y329874D01*
X486649Y329846D01*
X486556Y329809D01*
X486455Y329772D01*
X486344Y329744D01*
X486224Y329716D01*
X486085Y329698D01*
X485946Y329679D01*
X485798Y329661D01*
X485512D01*
X485447Y329670D01*
X485364D01*
X485280Y329679D01*
X485188Y329689D01*
X484985Y329716D01*
X484763Y329763D01*
X484541Y329818D01*
X484319Y329892D01*
Y330715D01*
X484328Y330706D01*
X484365Y330696D01*
X484421Y330669D01*
X484495Y330641D01*
X484578Y330604D01*
X484679Y330567D01*
X484790Y330530D01*
X484901Y330493D01*
X484920D01*
X484957Y330484D01*
X485022Y330465D01*
X485096Y330456D01*
X485197Y330438D01*
X485299Y330419D01*
X485530Y330410D01*
X485613D01*
X485697Y330419D01*
X485798Y330428D01*
X485909Y330447D01*
X486029Y330484D01*
X486140Y330521D01*
X486233Y330576D01*
X486242Y330585D01*
X486270Y330604D01*
X486307Y330650D01*
X486353Y330706D01*
X486390Y330780D01*
X486427Y330863D01*
X486455Y330974D01*
X486464Y331094D01*
Y331112D01*
Y331149D01*
X486455Y331205D01*
X486427Y331270D01*
X486399Y331344D01*
X486353Y331418D01*
X486288Y331492D01*
X486196Y331547D01*
X486187Y331556D01*
X486150Y331566D01*
X486085Y331593D01*
X485992Y331621D01*
X485882Y331639D01*
X485733Y331667D01*
X485567Y331676D01*
X485364Y331686D01*
X485022D01*
Y332425D01*
X485456D01*
X485549Y332435D01*
X485669Y332444D01*
X485789Y332462D01*
X485919Y332481D01*
X486039Y332518D01*
X486140Y332564D01*
X486150Y332573D01*
X486177Y332592D01*
X486224Y332629D01*
X486270Y332675D01*
X486307Y332740D01*
X486353Y332823D01*
X486381Y332925D01*
X486390Y333045D01*
Y333054D01*
Y333063D01*
X486381Y333128D01*
X486353Y333211D01*
X486307Y333304D01*
X486279Y333350D01*
X486233Y333396D01*
X486177Y333442D01*
X486122Y333479D01*
X486039Y333516D01*
X485955Y333544D01*
X485854Y333553D01*
X485743Y333563D01*
X485660D01*
X485604Y333553D01*
X485530Y333544D01*
X485456Y333526D01*
X485280Y333479D01*
X485271D01*
X485243Y333461D01*
X485197Y333442D01*
X485133Y333424D01*
X485059Y333387D01*
X484966Y333341D01*
X484874Y333285D01*
X484772Y333220D01*
X484328Y333886D01*
X484338Y333895D01*
X484356Y333905D01*
X484393Y333932D01*
X484439Y333960D01*
X484495Y333988D01*
X484569Y334034D01*
X484652Y334071D01*
X484744Y334117D01*
X484846Y334154D01*
X484966Y334200D01*
X485216Y334265D01*
X485493Y334321D01*
X485650Y334330D01*
X485807Y334339D01*
X485928D01*
X485983Y334330D01*
D02*
G37*
G36*
X428678Y394330D02*
X428743D01*
X428817Y394321D01*
X428890Y394311D01*
X428983Y394302D01*
X429186Y394256D01*
X429417Y394201D01*
X429658Y394127D01*
X429907Y394016D01*
X429593Y393230D01*
X429584Y393239D01*
X429547Y393248D01*
X429501Y393276D01*
X429436Y393304D01*
X429353Y393331D01*
X429270Y393368D01*
X429075Y393442D01*
X429066D01*
X429029Y393461D01*
X428983Y393470D01*
X428918Y393489D01*
X428835Y393507D01*
X428752Y393516D01*
X428567Y393535D01*
X428512D01*
X428475Y393526D01*
X428382Y393516D01*
X428253Y393479D01*
X428123Y393433D01*
X427975Y393359D01*
X427836Y393257D01*
X427781Y393193D01*
X427716Y393119D01*
X427707Y393100D01*
X427689Y393073D01*
X427670Y393045D01*
X427624Y392952D01*
X427568Y392823D01*
X427513Y392666D01*
X427467Y392472D01*
X427430Y392240D01*
X427421Y391982D01*
Y391963D01*
Y391917D01*
X427430Y391843D01*
X427439Y391741D01*
X427458Y391630D01*
X427485Y391501D01*
X427513Y391362D01*
X427568Y391223D01*
X427624Y391075D01*
X427698Y390937D01*
X427790Y390807D01*
X427901Y390696D01*
X428040Y390595D01*
X428188Y390521D01*
X428363Y390475D01*
X428567Y390456D01*
X428650D01*
X428696Y390465D01*
X428752D01*
X428890Y390484D01*
X429066Y390512D01*
X429260Y390558D01*
X429482Y390613D01*
X429732Y390696D01*
Y389883D01*
X429723D01*
X429704Y389874D01*
X429676Y389864D01*
X429630Y389846D01*
X429584Y389827D01*
X429519Y389809D01*
X429445Y389790D01*
X429362Y389772D01*
X429177Y389735D01*
X428965Y389698D01*
X428724Y389670D01*
X428475Y389661D01*
X428382D01*
X428308Y389670D01*
X428225Y389679D01*
X428132Y389689D01*
X428031Y389707D01*
X427910Y389735D01*
X427670Y389809D01*
X427541Y389855D01*
X427421Y389911D01*
X427291Y389975D01*
X427171Y390058D01*
X427060Y390151D01*
X426958Y390253D01*
X426949Y390262D01*
X426940Y390280D01*
X426912Y390317D01*
X426875Y390364D01*
X426838Y390428D01*
X426792Y390502D01*
X426746Y390595D01*
X426699Y390696D01*
X426644Y390807D01*
X426598Y390937D01*
X426551Y391085D01*
X426514Y391233D01*
X426477Y391399D01*
X426450Y391584D01*
X426440Y391778D01*
X426431Y391982D01*
Y391991D01*
Y392009D01*
Y392056D01*
Y392102D01*
X426440Y392166D01*
X426450Y392231D01*
X426468Y392407D01*
X426496Y392601D01*
X426542Y392804D01*
X426607Y393026D01*
X426690Y393230D01*
Y393239D01*
X426699Y393257D01*
X426718Y393285D01*
X426736Y393322D01*
X426801Y393415D01*
X426884Y393535D01*
X426986Y393664D01*
X427115Y393803D01*
X427263Y393932D01*
X427430Y394053D01*
X427439D01*
X427448Y394062D01*
X427476Y394080D01*
X427513Y394099D01*
X427559Y394117D01*
X427615Y394145D01*
X427753Y394201D01*
X427920Y394247D01*
X428114Y394293D01*
X428336Y394330D01*
X428567Y394339D01*
X428632D01*
X428678Y394330D01*
D02*
G37*
G36*
X432145D02*
X432247Y394321D01*
X432367Y394302D01*
X432496Y394274D01*
X432626Y394237D01*
X432746Y394182D01*
X432764Y394173D01*
X432801Y394154D01*
X432857Y394117D01*
X432931Y394071D01*
X433014Y394006D01*
X433097Y393932D01*
X433181Y393840D01*
X433255Y393738D01*
X433264Y393729D01*
X433282Y393692D01*
X433310Y393627D01*
X433347Y393553D01*
X433384Y393461D01*
X433412Y393350D01*
X433430Y393230D01*
X433439Y393100D01*
Y393091D01*
Y393045D01*
X433430Y392989D01*
Y392906D01*
X433412Y392814D01*
X433393Y392721D01*
X433365Y392610D01*
X433328Y392509D01*
X433319Y392499D01*
X433310Y392462D01*
X433282Y392407D01*
X433245Y392333D01*
X433199Y392250D01*
X433134Y392157D01*
X433069Y392056D01*
X432986Y391945D01*
X432977Y391935D01*
X432940Y391889D01*
X432885Y391824D01*
X432801Y391732D01*
X432691Y391621D01*
X432542Y391473D01*
X432376Y391316D01*
X432173Y391122D01*
X431581Y390567D01*
Y390521D01*
X433569D01*
Y389716D01*
X430379D01*
Y390382D01*
X431525Y391538D01*
X431535Y391547D01*
X431544Y391566D01*
X431572Y391584D01*
X431609Y391621D01*
X431692Y391713D01*
X431803Y391824D01*
X431914Y391945D01*
X432025Y392065D01*
X432117Y392176D01*
X432191Y392259D01*
X432201Y392268D01*
X432219Y392296D01*
X432247Y392333D01*
X432274Y392379D01*
X432348Y392499D01*
X432413Y392629D01*
Y392638D01*
X432422Y392656D01*
X432441Y392693D01*
X432450Y392740D01*
X432478Y392860D01*
X432487Y392989D01*
Y392999D01*
Y393036D01*
X432478Y393082D01*
X432469Y393147D01*
X432450Y393211D01*
X432422Y393276D01*
X432385Y393341D01*
X432330Y393396D01*
X432321Y393405D01*
X432302Y393415D01*
X432274Y393442D01*
X432228Y393470D01*
X432173Y393489D01*
X432099Y393516D01*
X432025Y393526D01*
X431932Y393535D01*
X431886D01*
X431831Y393526D01*
X431766Y393516D01*
X431692Y393507D01*
X431600Y393489D01*
X431507Y393452D01*
X431415Y393415D01*
X431405Y393405D01*
X431368Y393396D01*
X431322Y393368D01*
X431257Y393322D01*
X431174Y393276D01*
X431091Y393220D01*
X430998Y393147D01*
X430897Y393063D01*
X430370Y393683D01*
X430388Y393692D01*
X430425Y393729D01*
X430490Y393784D01*
X430564Y393840D01*
X430656Y393905D01*
X430749Y393979D01*
X430841Y394034D01*
X430925Y394090D01*
X430934Y394099D01*
X430961Y394108D01*
X431008Y394136D01*
X431073Y394154D01*
X431137Y394191D01*
X431220Y394219D01*
X431405Y394274D01*
X431415D01*
X431452Y394284D01*
X431507Y394293D01*
X431581Y394311D01*
X431664Y394321D01*
X431766Y394330D01*
X431877Y394339D01*
X432071D01*
X432145Y394330D01*
D02*
G37*
G36*
X414080D02*
X414145D01*
X414219Y394321D01*
X414293Y394311D01*
X414385Y394302D01*
X414589Y394256D01*
X414820Y394201D01*
X415060Y394127D01*
X415310Y394016D01*
X414995Y393230D01*
X414986Y393239D01*
X414949Y393248D01*
X414903Y393276D01*
X414838Y393304D01*
X414755Y393331D01*
X414672Y393368D01*
X414478Y393442D01*
X414468D01*
X414431Y393461D01*
X414385Y393470D01*
X414320Y393489D01*
X414237Y393507D01*
X414154Y393516D01*
X413969Y393535D01*
X413914D01*
X413877Y393526D01*
X413784Y393516D01*
X413655Y393479D01*
X413525Y393433D01*
X413377Y393359D01*
X413239Y393257D01*
X413183Y393193D01*
X413119Y393119D01*
X413109Y393100D01*
X413091Y393073D01*
X413072Y393045D01*
X413026Y392952D01*
X412971Y392823D01*
X412915Y392666D01*
X412869Y392472D01*
X412832Y392240D01*
X412823Y391982D01*
Y391963D01*
Y391917D01*
X412832Y391843D01*
X412841Y391741D01*
X412860Y391630D01*
X412887Y391501D01*
X412915Y391362D01*
X412971Y391223D01*
X413026Y391075D01*
X413100Y390937D01*
X413192Y390807D01*
X413303Y390696D01*
X413442Y390595D01*
X413590Y390521D01*
X413766Y390475D01*
X413969Y390456D01*
X414052D01*
X414099Y390465D01*
X414154D01*
X414293Y390484D01*
X414468Y390512D01*
X414663Y390558D01*
X414884Y390613D01*
X415134Y390696D01*
Y389883D01*
X415125D01*
X415106Y389874D01*
X415079Y389864D01*
X415032Y389846D01*
X414986Y389827D01*
X414921Y389809D01*
X414847Y389790D01*
X414764Y389772D01*
X414579Y389735D01*
X414367Y389698D01*
X414126Y389670D01*
X413877Y389661D01*
X413784D01*
X413710Y389670D01*
X413627Y389679D01*
X413535Y389689D01*
X413433Y389707D01*
X413313Y389735D01*
X413072Y389809D01*
X412943Y389855D01*
X412823Y389911D01*
X412693Y389975D01*
X412573Y390058D01*
X412462Y390151D01*
X412360Y390253D01*
X412351Y390262D01*
X412342Y390280D01*
X412314Y390317D01*
X412277Y390364D01*
X412240Y390428D01*
X412194Y390502D01*
X412148Y390595D01*
X412102Y390696D01*
X412046Y390807D01*
X412000Y390937D01*
X411954Y391085D01*
X411917Y391233D01*
X411880Y391399D01*
X411852Y391584D01*
X411843Y391778D01*
X411833Y391982D01*
Y391991D01*
Y392009D01*
Y392056D01*
Y392102D01*
X411843Y392166D01*
X411852Y392231D01*
X411870Y392407D01*
X411898Y392601D01*
X411944Y392804D01*
X412009Y393026D01*
X412092Y393230D01*
Y393239D01*
X412102Y393257D01*
X412120Y393285D01*
X412138Y393322D01*
X412203Y393415D01*
X412286Y393535D01*
X412388Y393664D01*
X412518Y393803D01*
X412665Y393932D01*
X412832Y394053D01*
X412841D01*
X412850Y394062D01*
X412878Y394080D01*
X412915Y394099D01*
X412961Y394117D01*
X413017Y394145D01*
X413156Y394201D01*
X413322Y394247D01*
X413516Y394293D01*
X413738Y394330D01*
X413969Y394339D01*
X414034D01*
X414080Y394330D01*
D02*
G37*
G36*
X418167Y389716D02*
X417205D01*
Y392351D01*
X417214Y392786D01*
X417224Y393257D01*
X417214Y393248D01*
X417187Y393220D01*
X417140Y393174D01*
X417094Y393128D01*
X416983Y393026D01*
X416928Y392980D01*
X416891Y392943D01*
X416373Y392527D01*
X415901Y393100D01*
X417371Y394274D01*
X418167D01*
Y389716D01*
D02*
G37*
%LPC*%
G36*
X342553Y338150D02*
X342317D01*
Y337167D01*
X342627D01*
X342694Y337174D01*
X342775Y337182D01*
X342864Y337197D01*
X342952Y337219D01*
X343034Y337248D01*
X343108Y337285D01*
X343115Y337293D01*
X343137Y337307D01*
X343167Y337337D01*
X343196Y337381D01*
X343226Y337433D01*
X343256Y337500D01*
X343278Y337581D01*
X343285Y337670D01*
Y337684D01*
Y337714D01*
X343278Y337758D01*
X343263Y337810D01*
X343241Y337877D01*
X343211Y337936D01*
X343167Y337995D01*
X343108Y338039D01*
X343100Y338046D01*
X343071Y338054D01*
X343034Y338076D01*
X342975Y338098D01*
X342893Y338113D01*
X342797Y338135D01*
X342686Y338143D01*
X342553Y338150D01*
D02*
G37*
G36*
X331902Y338202D02*
X331858D01*
X331828Y338194D01*
X331747Y338187D01*
X331644Y338165D01*
X331533Y338128D01*
X331414Y338069D01*
X331304Y337987D01*
X331252Y337943D01*
X331208Y337884D01*
X331200Y337869D01*
X331171Y337825D01*
X331134Y337751D01*
X331089Y337655D01*
X331045Y337522D01*
X331008Y337366D01*
X330978Y337182D01*
X330971Y336967D01*
Y336960D01*
Y336938D01*
Y336908D01*
X330978Y336864D01*
Y336812D01*
X330986Y336760D01*
X331001Y336620D01*
X331030Y336472D01*
X331067Y336317D01*
X331126Y336169D01*
X331200Y336043D01*
X331215Y336029D01*
X331245Y335992D01*
X331296Y335947D01*
X331377Y335888D01*
X331474Y335829D01*
X331592Y335785D01*
X331732Y335748D01*
X331895Y335733D01*
X331932D01*
X331984Y335740D01*
X332043Y335755D01*
X332109Y335770D01*
X332191Y335799D01*
X332272Y335836D01*
X332361Y335888D01*
X332449Y335955D01*
X332531Y336036D01*
X332612Y336132D01*
X332678Y336250D01*
X332738Y336398D01*
X332789Y336561D01*
X332819Y336753D01*
X332826Y336967D01*
Y336982D01*
Y337019D01*
X332819Y337078D01*
X332812Y337160D01*
X332797Y337256D01*
X332775Y337359D01*
X332752Y337470D01*
X332708Y337588D01*
X332664Y337699D01*
X332604Y337810D01*
X332523Y337914D01*
X332435Y338010D01*
X332331Y338091D01*
X332205Y338150D01*
X332065Y338187D01*
X331902Y338202D01*
D02*
G37*
G36*
X346493D02*
X346449D01*
X346419Y338194D01*
X346338Y338187D01*
X346234Y338165D01*
X346123Y338128D01*
X346005Y338069D01*
X345894Y337987D01*
X345843Y337943D01*
X345798Y337884D01*
X345791Y337869D01*
X345761Y337825D01*
X345724Y337751D01*
X345680Y337655D01*
X345635Y337522D01*
X345599Y337366D01*
X345569Y337182D01*
X345562Y336967D01*
Y336960D01*
Y336938D01*
Y336908D01*
X345569Y336864D01*
Y336812D01*
X345576Y336760D01*
X345591Y336620D01*
X345621Y336472D01*
X345658Y336317D01*
X345717Y336169D01*
X345791Y336043D01*
X345806Y336029D01*
X345835Y335992D01*
X345887Y335947D01*
X345968Y335888D01*
X346064Y335829D01*
X346183Y335785D01*
X346323Y335748D01*
X346485Y335733D01*
X346522D01*
X346574Y335740D01*
X346633Y335755D01*
X346700Y335770D01*
X346781Y335799D01*
X346862Y335836D01*
X346951Y335888D01*
X347040Y335955D01*
X347121Y336036D01*
X347202Y336132D01*
X347269Y336250D01*
X347328Y336398D01*
X347380Y336561D01*
X347410Y336753D01*
X347417Y336967D01*
Y336982D01*
Y337019D01*
X347410Y337078D01*
X347402Y337160D01*
X347387Y337256D01*
X347365Y337359D01*
X347343Y337470D01*
X347299Y337588D01*
X347254Y337699D01*
X347195Y337810D01*
X347114Y337914D01*
X347025Y338010D01*
X346922Y338091D01*
X346796Y338150D01*
X346656Y338187D01*
X346493Y338202D01*
D02*
G37*
G36*
X365500Y416000D02*
D01*
Y411062D01*
X365457Y411509D01*
X365415Y411935D01*
X365351Y412318D01*
X365287Y412679D01*
X365202Y413020D01*
X365117Y413318D01*
X365032Y413595D01*
X364947Y413829D01*
X364861Y414042D01*
X364776Y414212D01*
X364712Y414361D01*
X364649Y414468D01*
X364606Y414553D01*
X364585Y414595D01*
X364563Y414617D01*
X364393Y414851D01*
X364180Y415064D01*
X363967Y415255D01*
X363755Y415425D01*
X363520Y415553D01*
X363308Y415659D01*
X362861Y415830D01*
X362456Y415936D01*
X362286Y415957D01*
X362137Y415979D01*
X362009Y416000D01*
X361839D01*
X361498Y415979D01*
X361179Y415936D01*
X360881Y415872D01*
X360604Y415787D01*
X360370Y415702D01*
X360136Y415574D01*
X359923Y415468D01*
X359753Y415340D01*
X359583Y415213D01*
X359434Y415106D01*
X359327Y414978D01*
X359221Y414893D01*
X359157Y414808D01*
X359093Y414744D01*
X359072Y414702D01*
X359050Y414680D01*
X358901Y414425D01*
X358753Y414127D01*
X358646Y413808D01*
X358540Y413488D01*
X358369Y412807D01*
X358263Y412126D01*
X358242Y411828D01*
X358199Y411530D01*
X358178Y411253D01*
Y411019D01*
X358157Y410849D01*
Y410572D01*
X358178Y410083D01*
X358199Y409636D01*
X358242Y409210D01*
X358306Y408827D01*
X358369Y408465D01*
X358455Y408125D01*
X358540Y407826D01*
X358625Y407571D01*
X358710Y407337D01*
X358774Y407124D01*
X358859Y406954D01*
X358923Y406805D01*
X358987Y406698D01*
X359029Y406613D01*
X359072Y406571D01*
Y406549D01*
X359263Y406315D01*
X359455Y406102D01*
X359668Y405932D01*
X359902Y405783D01*
X360136Y405655D01*
X360370Y405528D01*
X360817Y405379D01*
X361222Y405272D01*
X361392Y405251D01*
X361541Y405230D01*
X361669Y405208D01*
X358157D01*
X365500D01*
Y416000D01*
D02*
G37*
G36*
X321844Y416000D02*
D01*
Y411062D01*
X321801Y411509D01*
X321759Y411935D01*
X321695Y412318D01*
X321631Y412679D01*
X321546Y413020D01*
X321461Y413318D01*
X321376Y413595D01*
X321291Y413829D01*
X321205Y414042D01*
X321120Y414212D01*
X321057Y414361D01*
X320993Y414468D01*
X320950Y414553D01*
X320929Y414595D01*
X320908Y414617D01*
X320737Y414851D01*
X320524Y415064D01*
X320312Y415255D01*
X320099Y415425D01*
X319865Y415553D01*
X319652Y415659D01*
X319205Y415830D01*
X318800Y415936D01*
X318630Y415957D01*
X318481Y415979D01*
X318353Y416000D01*
X318183D01*
X317842Y415979D01*
X317523Y415936D01*
X317225Y415872D01*
X316948Y415787D01*
X316714Y415702D01*
X316480Y415574D01*
X316267Y415468D01*
X316097Y415340D01*
X315927Y415213D01*
X315778Y415106D01*
X315671Y414978D01*
X315565Y414893D01*
X315501Y414808D01*
X315437Y414744D01*
X315416Y414702D01*
X315395Y414680D01*
X315246Y414425D01*
X315097Y414127D01*
X314990Y413808D01*
X314884Y413488D01*
X314713Y412807D01*
X314607Y412126D01*
X314586Y411828D01*
X314543Y411530D01*
X314522Y411253D01*
Y411019D01*
X314501Y410849D01*
Y410572D01*
X314522Y410083D01*
X314543Y409636D01*
X314586Y409210D01*
X314650Y408827D01*
X314713Y408465D01*
X314799Y408125D01*
X314884Y407826D01*
X314969Y407571D01*
X315054Y407337D01*
X315118Y407124D01*
X315203Y406954D01*
X315267Y406805D01*
X315331Y406698D01*
X315373Y406613D01*
X315416Y406571D01*
Y406549D01*
X315607Y406315D01*
X315799Y406102D01*
X316012Y405932D01*
X316246Y405783D01*
X316480Y405655D01*
X316714Y405528D01*
X317161Y405379D01*
X317566Y405272D01*
X317736Y405251D01*
X317885Y405230D01*
X318013Y405208D01*
X314501D01*
X321844D01*
Y416000D01*
D02*
G37*
G36*
X305454Y415830D02*
D01*
Y409231D01*
X304199D01*
Y415830D01*
X305454D01*
X302155D01*
X297536Y409040D01*
Y407507D01*
X302027D01*
Y405336D01*
X304199D01*
Y407507D01*
X305454D01*
Y405528D01*
Y415830D01*
D02*
G37*
G36*
X335041Y410168D02*
X331188D01*
Y408380D01*
X335041D01*
Y410168D01*
D02*
G37*
G36*
X345045Y415830D02*
X339390D01*
X342789D01*
X340809Y409572D01*
X340724Y409274D01*
X340660Y408997D01*
X340575Y408742D01*
X340532Y408529D01*
X340426Y408125D01*
X340362Y407805D01*
X340298Y407571D01*
X340277Y407401D01*
X340256Y407316D01*
Y407273D01*
X340234Y407401D01*
X340213Y407550D01*
X340128Y407869D01*
X340107Y408039D01*
X340064Y408167D01*
X340043Y408252D01*
Y408274D01*
X339979Y408550D01*
X339915Y408784D01*
X339851Y409019D01*
X339809Y409210D01*
X339766Y409359D01*
X339724Y409465D01*
X339702Y409551D01*
Y409572D01*
X337723Y415830D01*
X335488D01*
D01*
X339043Y405336D01*
X341469D01*
X345045Y415830D01*
D02*
G37*
G36*
X296834Y415979D02*
D01*
Y407188D01*
X292258D01*
Y407294D01*
X293620Y408572D01*
X294088Y409019D01*
X294471Y409380D01*
X294812Y409721D01*
X295067Y409976D01*
X295259Y410189D01*
X295387Y410338D01*
X295472Y410445D01*
X295493Y410466D01*
X295685Y410721D01*
X295833Y410955D01*
X295982Y411168D01*
X296089Y411360D01*
X296174Y411530D01*
X296238Y411658D01*
X296259Y411743D01*
X296280Y411764D01*
X296366Y411998D01*
X296430Y412254D01*
X296472Y412467D01*
X296515Y412679D01*
Y412871D01*
X296536Y412999D01*
Y413105D01*
Y413126D01*
X296515Y413424D01*
X296472Y413701D01*
X296408Y413957D01*
X296323Y414170D01*
X296238Y414340D01*
X296174Y414489D01*
X296131Y414574D01*
X296110Y414595D01*
X295940Y414829D01*
X295748Y415042D01*
X295557Y415213D01*
X295365Y415362D01*
X295195Y415468D01*
X295067Y415553D01*
X294982Y415596D01*
X294939Y415617D01*
X294663Y415745D01*
X294365Y415830D01*
X294067Y415894D01*
X293790Y415936D01*
X293556Y415957D01*
X293386Y415979D01*
X296834D01*
X289469D01*
D01*
X292939D01*
X292683Y415957D01*
X292449Y415936D01*
X292258Y415915D01*
X292087Y415872D01*
X291960Y415851D01*
X291874Y415830D01*
X291853D01*
X291427Y415702D01*
X291236Y415638D01*
X291087Y415553D01*
X290938Y415510D01*
X290832Y415447D01*
X290768Y415425D01*
X290746Y415404D01*
X290555Y415276D01*
X290342Y415149D01*
X290129Y414978D01*
X289916Y414829D01*
X289746Y414702D01*
X289597Y414574D01*
X289512Y414489D01*
X289469Y414468D01*
D01*
X290683Y413041D01*
X290917Y413233D01*
X291129Y413403D01*
X291321Y413531D01*
X291513Y413637D01*
X291662Y413744D01*
X291768Y413808D01*
X291853Y413829D01*
X291874Y413850D01*
X292087Y413935D01*
X292300Y414021D01*
X292513Y414063D01*
X292683Y414084D01*
X292832Y414106D01*
X292960Y414127D01*
X293066D01*
X293279Y414106D01*
X293450Y414084D01*
X293620Y414021D01*
X293748Y413978D01*
X293854Y413914D01*
X293918Y413850D01*
X293960Y413829D01*
X293982Y413808D01*
X294109Y413680D01*
X294195Y413531D01*
X294258Y413382D01*
X294301Y413233D01*
X294322Y413084D01*
X294343Y412977D01*
Y412892D01*
Y412871D01*
X294322Y412573D01*
X294258Y412296D01*
X294237Y412190D01*
X294195Y412105D01*
X294173Y412062D01*
Y412041D01*
X294024Y411743D01*
X293854Y411466D01*
X293790Y411360D01*
X293726Y411275D01*
X293684Y411211D01*
X293662Y411190D01*
X293492Y410998D01*
X293279Y410743D01*
X293024Y410466D01*
X292768Y410189D01*
X292513Y409934D01*
X292321Y409721D01*
X292236Y409636D01*
X292172Y409593D01*
X292151Y409551D01*
X292130Y409529D01*
X289491Y406869D01*
Y405336D01*
X296834D01*
Y415979D01*
D02*
G37*
G36*
X345045Y415830D02*
D01*
Y406315D01*
Y415830D01*
D02*
G37*
G36*
X356879Y408018D02*
X354176D01*
Y406677D01*
X354198Y406485D01*
X354240Y406294D01*
X354304Y406124D01*
X354368Y405996D01*
X354432Y405868D01*
X354496Y405783D01*
X354538Y405741D01*
X354559Y405719D01*
X354708Y405592D01*
X354879Y405506D01*
X355049Y405421D01*
X355198Y405379D01*
X355326Y405357D01*
X355453Y405336D01*
X355538D01*
X355730Y405357D01*
X355922Y405400D01*
X356071Y405464D01*
X356220Y405528D01*
X356326Y405592D01*
X356411Y405655D01*
X356454Y405698D01*
X356475Y405719D01*
X356603Y405868D01*
X356709Y406039D01*
X356773Y406209D01*
X356837Y406358D01*
X356858Y406485D01*
X356879Y406592D01*
Y406677D01*
X356858Y406869D01*
X356816Y407060D01*
X356752Y407209D01*
X356688Y407358D01*
X356603Y407465D01*
X356539Y407550D01*
X356496Y407592D01*
X356475Y407614D01*
X356326Y407741D01*
X356156Y407848D01*
X356007Y407912D01*
X355858Y407976D01*
X355730Y407997D01*
X355624Y408018D01*
X356879D01*
D02*
G37*
G36*
X351111Y415830D02*
X349281D01*
X345896Y413126D01*
X346982Y411807D01*
X348174Y412765D01*
X348259Y412850D01*
X348387Y412956D01*
X348642Y413190D01*
X348749Y413297D01*
X348855Y413403D01*
X348919Y413467D01*
X348940Y413488D01*
X348919Y412403D01*
X348898Y411402D01*
Y405336D01*
X345896D01*
X351111D01*
Y415830D01*
D02*
G37*
G36*
X328442Y415830D02*
X323228D01*
D01*
X326612D01*
X323228Y413126D01*
X324313Y411807D01*
X325505Y412765D01*
X325590Y412850D01*
X325718Y412956D01*
X325973Y413190D01*
X326080Y413297D01*
X326186Y413403D01*
X326250Y413467D01*
X326271Y413488D01*
X326250Y412403D01*
X326229Y411402D01*
Y405336D01*
X328442D01*
Y415830D01*
D02*
G37*
G36*
X313479D02*
X307008D01*
Y405336D01*
X313479D01*
Y415830D01*
D02*
G37*
G36*
X302027Y405336D02*
X297536D01*
X302027D01*
D01*
D02*
G37*
G36*
X288171Y415830D02*
X282168D01*
Y405336D01*
X288171D01*
Y415830D01*
D02*
G37*
G36*
X280849D02*
D01*
Y405336D01*
X280700Y405549D01*
X280508Y405826D01*
X280295Y406145D01*
X280061Y406485D01*
X279806Y406847D01*
X279550Y407230D01*
X279039Y407997D01*
X278784Y408359D01*
X278550Y408721D01*
X278337Y409040D01*
X278146Y409316D01*
X277975Y409551D01*
X277869Y409742D01*
X277784Y409849D01*
X277762Y409891D01*
X278082Y410061D01*
X278380Y410253D01*
X278614Y410445D01*
X278827Y410615D01*
X278976Y410785D01*
X279103Y410913D01*
X279167Y410998D01*
X279188Y411019D01*
X279359Y411296D01*
X279487Y411594D01*
X279572Y411871D01*
X279636Y412126D01*
X279678Y412339D01*
X279699Y412531D01*
Y412637D01*
Y412679D01*
X279678Y412977D01*
X279657Y413233D01*
X279550Y413722D01*
X279380Y414127D01*
X279188Y414468D01*
X278997Y414723D01*
X278848Y414893D01*
X278720Y415000D01*
X278699Y415042D01*
X278678D01*
X278465Y415191D01*
X278252Y415298D01*
X277762Y415489D01*
X277230Y415638D01*
X276719Y415723D01*
X276464Y415766D01*
X276251Y415787D01*
X276038Y415808D01*
X275868D01*
X275719Y415830D01*
X280849D01*
X272462D01*
Y405336D01*
X280849D01*
Y415830D01*
D02*
G37*
G36*
X269802D02*
X260500D01*
Y405336D01*
X262480D01*
Y410274D01*
Y410466D01*
Y410657D01*
X262458Y411126D01*
X262437Y411615D01*
X262416Y412105D01*
X262394Y412552D01*
X262373Y412765D01*
Y412935D01*
Y413084D01*
X262352Y413190D01*
Y413254D01*
Y413275D01*
X262416D01*
X266971Y405336D01*
X269802D01*
Y415830D01*
D02*
G37*
%LPD*%
G36*
X362116Y414148D02*
X362328Y414063D01*
X362520Y413914D01*
X362690Y413765D01*
X362797Y413616D01*
X362882Y413467D01*
X362924Y413382D01*
X362946Y413339D01*
X363010Y413169D01*
X363052Y412977D01*
X363137Y412552D01*
X363201Y412105D01*
X363244Y411637D01*
X363265Y411232D01*
X363286Y411041D01*
Y410892D01*
Y410764D01*
Y410657D01*
Y410594D01*
Y410572D01*
Y410232D01*
X363265Y409912D01*
Y409614D01*
X363244Y409338D01*
X363201Y409082D01*
X363180Y408848D01*
X363159Y408657D01*
X363116Y408465D01*
X363095Y408316D01*
X363052Y408167D01*
X363031Y408061D01*
X363010Y407976D01*
X362967Y407848D01*
X362946Y407805D01*
X362797Y407528D01*
X362626Y407316D01*
X362456Y407188D01*
X362265Y407081D01*
X362094Y407018D01*
X361967Y406996D01*
X361881Y406975D01*
X361839D01*
X361562Y407018D01*
X361328Y407103D01*
X361115Y407230D01*
X360966Y407401D01*
X360839Y407550D01*
X360753Y407677D01*
X360711Y407763D01*
X360690Y407805D01*
X360626Y407976D01*
X360583Y408167D01*
X360498Y408593D01*
X360455Y409040D01*
X360413Y409508D01*
X360392Y409912D01*
X360370Y410104D01*
Y410253D01*
Y410381D01*
Y410487D01*
Y410551D01*
Y410572D01*
Y410913D01*
X360392Y411253D01*
X360413Y411551D01*
X360434Y411828D01*
X360455Y412084D01*
X360477Y412296D01*
X360519Y412509D01*
X360541Y412679D01*
X360583Y412850D01*
X360604Y412977D01*
X360626Y413084D01*
X360668Y413190D01*
X360690Y413297D01*
X360711Y413339D01*
X360860Y413616D01*
X361030Y413829D01*
X361222Y413978D01*
X361413Y414084D01*
X361562Y414148D01*
X361711Y414170D01*
X361796Y414191D01*
X361839D01*
X362116Y414148D01*
D02*
G37*
G36*
X365500Y405208D02*
X361839D01*
X362179Y405230D01*
X362499Y405272D01*
X362797Y405336D01*
X363052Y405421D01*
X363308Y405506D01*
X363542Y405613D01*
X363733Y405741D01*
X363925Y405868D01*
X364095Y405975D01*
X364223Y406102D01*
X364351Y406209D01*
X364436Y406315D01*
X364521Y406379D01*
X364563Y406443D01*
X364606Y406485D01*
Y406507D01*
X364755Y406762D01*
X364904Y407060D01*
X365117Y407699D01*
X365287Y408380D01*
X365393Y409040D01*
X365436Y409338D01*
X365457Y409636D01*
X365479Y409891D01*
Y410125D01*
X365500Y410317D01*
Y405208D01*
D02*
G37*
G36*
X318460Y414148D02*
X318673Y414063D01*
X318864Y413914D01*
X319034Y413765D01*
X319141Y413616D01*
X319226Y413467D01*
X319268Y413382D01*
X319290Y413339D01*
X319354Y413169D01*
X319396Y412977D01*
X319481Y412552D01*
X319545Y412105D01*
X319588Y411637D01*
X319609Y411232D01*
X319630Y411041D01*
Y410892D01*
Y410764D01*
Y410657D01*
Y410594D01*
Y410572D01*
Y410232D01*
X319609Y409912D01*
Y409614D01*
X319588Y409338D01*
X319545Y409082D01*
X319524Y408848D01*
X319503Y408657D01*
X319460Y408465D01*
X319439Y408316D01*
X319396Y408167D01*
X319375Y408061D01*
X319354Y407976D01*
X319311Y407848D01*
X319290Y407805D01*
X319141Y407528D01*
X318971Y407316D01*
X318800Y407188D01*
X318609Y407081D01*
X318438Y407018D01*
X318311Y406996D01*
X318225Y406975D01*
X318183D01*
X317906Y407018D01*
X317672Y407103D01*
X317459Y407230D01*
X317310Y407401D01*
X317183Y407550D01*
X317097Y407677D01*
X317055Y407763D01*
X317034Y407805D01*
X316970Y407976D01*
X316927Y408167D01*
X316842Y408593D01*
X316799Y409040D01*
X316757Y409508D01*
X316736Y409912D01*
X316714Y410104D01*
Y410253D01*
Y410381D01*
Y410487D01*
Y410551D01*
Y410572D01*
Y410913D01*
X316736Y411253D01*
X316757Y411551D01*
X316778Y411828D01*
X316799Y412084D01*
X316821Y412296D01*
X316863Y412509D01*
X316885Y412679D01*
X316927Y412850D01*
X316948Y412977D01*
X316970Y413084D01*
X317012Y413190D01*
X317034Y413297D01*
X317055Y413339D01*
X317204Y413616D01*
X317374Y413829D01*
X317566Y413978D01*
X317757Y414084D01*
X317906Y414148D01*
X318055Y414170D01*
X318140Y414191D01*
X318183D01*
X318460Y414148D01*
D02*
G37*
G36*
X321844Y405208D02*
X318183D01*
X318524Y405230D01*
X318843Y405272D01*
X319141Y405336D01*
X319396Y405421D01*
X319652Y405506D01*
X319886Y405613D01*
X320077Y405741D01*
X320269Y405868D01*
X320439Y405975D01*
X320567Y406102D01*
X320695Y406209D01*
X320780Y406315D01*
X320865Y406379D01*
X320908Y406443D01*
X320950Y406485D01*
Y406507D01*
X321099Y406762D01*
X321248Y407060D01*
X321461Y407699D01*
X321631Y408380D01*
X321738Y409040D01*
X321780Y409338D01*
X321801Y409636D01*
X321823Y409891D01*
Y410125D01*
X321844Y410317D01*
Y405208D01*
D02*
G37*
G36*
X302113Y413190D02*
X302091Y413063D01*
Y412914D01*
X302070Y412743D01*
Y412573D01*
X302049Y412424D01*
Y412339D01*
Y412296D01*
Y411998D01*
X302027Y411743D01*
Y411509D01*
Y411339D01*
Y411190D01*
Y411083D01*
Y411019D01*
Y410998D01*
Y409231D01*
X299494D01*
X301432Y412126D01*
X301687Y412552D01*
X301793Y412743D01*
X301879Y412914D01*
X301964Y413063D01*
X302027Y413169D01*
X302049Y413254D01*
X302070Y413275D01*
X302113D01*
Y413190D01*
D02*
G37*
G36*
X355326Y407997D02*
X355134Y407954D01*
X354964Y407890D01*
X354836Y407826D01*
X354708Y407741D01*
X354623Y407677D01*
X354581Y407635D01*
X354559Y407614D01*
X354432Y407465D01*
X354347Y407316D01*
X354261Y407145D01*
X354219Y406996D01*
X354198Y406869D01*
X354176Y406762D01*
Y408018D01*
X355517D01*
X355326Y407997D01*
D02*
G37*
G36*
X313479Y407167D02*
X309222D01*
Y415830D01*
X313479D01*
Y407167D01*
D02*
G37*
G36*
X288171Y405336D02*
X284340D01*
Y409487D01*
X287915D01*
Y411296D01*
X284340D01*
Y413999D01*
X288171D01*
Y405336D01*
D02*
G37*
G36*
X275740Y413978D02*
X276059Y413957D01*
X276336Y413893D01*
X276570Y413850D01*
X276741Y413786D01*
X276847Y413722D01*
X276932Y413701D01*
X276954Y413680D01*
X277124Y413552D01*
X277251Y413382D01*
X277337Y413212D01*
X277400Y413020D01*
X277443Y412871D01*
X277464Y412743D01*
Y412658D01*
Y412616D01*
X277443Y412360D01*
X277379Y412126D01*
X277294Y411935D01*
X277209Y411786D01*
X277124Y411658D01*
X277039Y411573D01*
X276975Y411530D01*
X276954Y411509D01*
X276741Y411402D01*
X276507Y411317D01*
X276251Y411253D01*
X275996Y411211D01*
X275762Y411190D01*
X275570Y411168D01*
X274676D01*
Y413999D01*
X275357D01*
X275740Y413978D01*
D02*
G37*
G36*
X278380Y405336D02*
X274676D01*
Y409359D01*
X275868D01*
X278380Y405336D01*
D02*
G37*
G36*
X267801Y410849D02*
Y410679D01*
Y410487D01*
X267822Y410040D01*
X267843Y409551D01*
X267865Y409082D01*
Y408657D01*
X267886Y408465D01*
Y408295D01*
X267907Y408146D01*
Y408039D01*
Y407976D01*
Y407954D01*
X267865D01*
X263310Y415830D01*
X267801D01*
Y410849D01*
D02*
G37*
%LPC*%
G36*
X347545Y361150D02*
X347131D01*
Y358777D01*
X347515D01*
X347567Y358785D01*
X347641Y358800D01*
X347722Y358814D01*
X347818Y358844D01*
X347914Y358881D01*
X348025Y358925D01*
X348129Y358992D01*
X348225Y359073D01*
X348321Y359169D01*
X348402Y359280D01*
X348476Y359420D01*
X348535Y359583D01*
X348565Y359768D01*
X348579Y359975D01*
Y359990D01*
Y360027D01*
X348572Y360086D01*
X348565Y360160D01*
X348550Y360248D01*
X348528Y360344D01*
X348491Y360455D01*
X348454Y360566D01*
X348395Y360670D01*
X348328Y360780D01*
X348247Y360877D01*
X348143Y360965D01*
X348025Y361039D01*
X347885Y361098D01*
X347729Y361135D01*
X347545Y361150D01*
D02*
G37*
G36*
X343760D02*
X343346D01*
Y358777D01*
X343731D01*
X343782Y358785D01*
X343856Y358800D01*
X343938Y358814D01*
X344034Y358844D01*
X344130Y358881D01*
X344241Y358925D01*
X344344Y358992D01*
X344440Y359073D01*
X344536Y359169D01*
X344618Y359280D01*
X344692Y359420D01*
X344751Y359583D01*
X344780Y359768D01*
X344795Y359975D01*
Y359990D01*
Y360027D01*
X344788Y360086D01*
X344780Y360160D01*
X344766Y360248D01*
X344743Y360344D01*
X344706Y360455D01*
X344669Y360566D01*
X344610Y360670D01*
X344544Y360780D01*
X344463Y360877D01*
X344359Y360965D01*
X344241Y361039D01*
X344100Y361098D01*
X343945Y361135D01*
X343760Y361150D01*
D02*
G37*
G36*
X331195D02*
X330781D01*
Y358777D01*
X331165D01*
X331217Y358785D01*
X331291Y358800D01*
X331372Y358814D01*
X331468Y358844D01*
X331564Y358881D01*
X331675Y358925D01*
X331779Y358992D01*
X331875Y359073D01*
X331971Y359169D01*
X332052Y359280D01*
X332126Y359420D01*
X332185Y359583D01*
X332215Y359768D01*
X332230Y359975D01*
Y359990D01*
Y360027D01*
X332222Y360086D01*
X332215Y360160D01*
X332200Y360248D01*
X332178Y360344D01*
X332141Y360455D01*
X332104Y360566D01*
X332045Y360670D01*
X331978Y360780D01*
X331897Y360877D01*
X331794Y360965D01*
X331675Y361039D01*
X331535Y361098D01*
X331380Y361135D01*
X331195Y361150D01*
D02*
G37*
G36*
X267927Y270989D02*
D01*
Y268169D01*
X267916Y268447D01*
X267872Y268713D01*
X267805Y268946D01*
X267738Y269157D01*
X267672Y269335D01*
X267638Y269402D01*
X267605Y269468D01*
X267583Y269513D01*
X267561Y269546D01*
X267550Y269568D01*
Y269579D01*
X267394Y269812D01*
X267228Y270012D01*
X267050Y270190D01*
X266884Y270345D01*
X266739Y270456D01*
X266617Y270545D01*
X266573Y270578D01*
X266540Y270589D01*
X266518Y270611D01*
X266506D01*
X266262Y270734D01*
X266007Y270833D01*
X265774Y270900D01*
X265563Y270944D01*
X265374Y270967D01*
X265296Y270978D01*
X265230Y270989D01*
X267927D01*
X265108D01*
X264830Y270978D01*
X264575Y270933D01*
X264331Y270867D01*
X264120Y270800D01*
X263942Y270734D01*
X263876Y270700D01*
X263809Y270667D01*
X263765Y270645D01*
X263731Y270623D01*
X263709Y270611D01*
X263698D01*
X263465Y270456D01*
X263265Y270290D01*
X263088Y270123D01*
X262932Y269957D01*
X262821Y269801D01*
X262732Y269690D01*
X262710Y269646D01*
X262688Y269613D01*
X262666Y269590D01*
Y269579D01*
X262544Y269335D01*
X262444Y269080D01*
X262377Y268847D01*
X262333Y268625D01*
X262311Y268447D01*
X262299Y268369D01*
Y268303D01*
X262288Y268247D01*
Y268169D01*
X262299Y267892D01*
X262344Y267637D01*
X262399Y267404D01*
X262477Y267193D01*
X262544Y267026D01*
X262566Y266960D01*
X262599Y266893D01*
X262621Y266849D01*
X262644Y266815D01*
X262655Y266793D01*
Y266782D01*
X262799Y266549D01*
X262966Y266349D01*
X263143Y266172D01*
X263298Y266027D01*
X263454Y265905D01*
X263565Y265816D01*
X263609Y265794D01*
X263643Y265772D01*
X263665Y265750D01*
X263676D01*
X263931Y265628D01*
X264175Y265528D01*
X264420Y265461D01*
X264642Y265417D01*
X264830Y265395D01*
X264908Y265383D01*
X264975D01*
X265030Y265372D01*
X265108D01*
X265396Y265383D01*
X265663Y265428D01*
X265907Y265494D01*
X266118Y265561D01*
X266296Y265628D01*
X266362Y265661D01*
X266429Y265694D01*
X266473Y265716D01*
X266506Y265739D01*
X266528Y265750D01*
X266540D01*
X266773Y265905D01*
X266973Y266072D01*
X267150Y266249D01*
X267294Y266416D01*
X267405Y266560D01*
X267494Y266671D01*
X267528Y266716D01*
X267539Y266749D01*
X267561Y266771D01*
Y266782D01*
X267683Y267026D01*
X267772Y267271D01*
X267838Y267515D01*
X267883Y267726D01*
X267905Y267903D01*
X267916Y267981D01*
X267927Y268047D01*
Y265894D01*
Y268047D01*
Y270989D01*
D02*
G37*
G36*
X287485D02*
D01*
Y267026D01*
X287474Y267215D01*
X287430Y267393D01*
X287374Y267537D01*
X287318Y267659D01*
X287252Y267759D01*
X287196Y267836D01*
X287152Y267881D01*
X287141Y267892D01*
X287008Y268003D01*
X286841Y268092D01*
X286675Y268158D01*
X286519Y268214D01*
X286375Y268247D01*
X286253Y268269D01*
X286208Y268281D01*
X286175Y268292D01*
X286142D01*
Y268314D01*
X286342Y268369D01*
X286519Y268447D01*
X286664Y268525D01*
X286797Y268613D01*
X286886Y268680D01*
X286963Y268747D01*
X287008Y268791D01*
X287019Y268802D01*
X287119Y268946D01*
X287196Y269091D01*
X287252Y269246D01*
X287296Y269379D01*
X287318Y269501D01*
X287330Y269590D01*
Y269657D01*
Y269679D01*
Y269790D01*
X287307Y269901D01*
X287252Y270090D01*
X287174Y270256D01*
X287085Y270401D01*
X286985Y270501D01*
X286908Y270578D01*
X286852Y270634D01*
X286841Y270645D01*
X286830D01*
X286630Y270756D01*
X286419Y270845D01*
X286186Y270900D01*
X285975Y270944D01*
X285787Y270967D01*
X285698Y270978D01*
X285631Y270989D01*
X285487D01*
X285298Y270978D01*
X285110Y270967D01*
X284777Y270900D01*
X284477Y270822D01*
X284333Y270767D01*
X284210Y270723D01*
X284100Y270667D01*
X284000Y270623D01*
X283911Y270567D01*
X283844Y270534D01*
X283789Y270501D01*
X283744Y270467D01*
X283722Y270456D01*
X283711Y270445D01*
X284244Y269646D01*
X284366Y269723D01*
X284477Y269790D01*
X284588Y269846D01*
X284677Y269890D01*
X284754Y269912D01*
X284810Y269934D01*
X284843Y269957D01*
X284854D01*
X285065Y270012D01*
X285154Y270034D01*
X285243Y270045D01*
X285309Y270056D01*
X285409D01*
X285543Y270045D01*
X285665Y270034D01*
X285765Y270001D01*
X285864Y269957D01*
X285931Y269912D01*
X285998Y269857D01*
X286053Y269801D01*
X286086Y269746D01*
X286142Y269635D01*
X286175Y269535D01*
X286186Y269457D01*
Y269446D01*
Y269435D01*
X286175Y269291D01*
X286142Y269168D01*
X286086Y269069D01*
X286042Y268991D01*
X285986Y268935D01*
X285931Y268891D01*
X285898Y268869D01*
X285887Y268858D01*
X285765Y268802D01*
X285620Y268758D01*
X285465Y268736D01*
X285320Y268713D01*
X285176Y268702D01*
X285065Y268691D01*
X284543D01*
Y267803D01*
X284954D01*
X285198Y267792D01*
X285398Y267781D01*
X285576Y267748D01*
X285709Y267726D01*
X285820Y267692D01*
X285898Y267659D01*
X285942Y267648D01*
X285953Y267637D01*
X286064Y267570D01*
X286142Y267481D01*
X286197Y267393D01*
X286231Y267304D01*
X286264Y267226D01*
X286275Y267160D01*
Y267115D01*
Y267093D01*
X286264Y266949D01*
X286231Y266815D01*
X286186Y266716D01*
X286142Y266627D01*
X286086Y266560D01*
X286042Y266505D01*
X286009Y266482D01*
X285998Y266471D01*
X285887Y266405D01*
X285753Y266360D01*
X285609Y266316D01*
X285476Y266294D01*
X285354Y266283D01*
X285254Y266271D01*
X285154D01*
X284876Y266283D01*
X284754Y266305D01*
X284632Y266327D01*
X284543Y266338D01*
X284466Y266360D01*
X284421Y266371D01*
X284399D01*
X284266Y266416D01*
X284133Y266460D01*
X284011Y266505D01*
X283911Y266549D01*
X283822Y266582D01*
X283755Y266616D01*
X283711Y266627D01*
X283700Y266638D01*
Y265372D01*
Y265650D01*
X283966Y265561D01*
X284233Y265494D01*
X284499Y265439D01*
X284743Y265406D01*
X284854Y265395D01*
X284954Y265383D01*
X285054D01*
X285132Y265372D01*
X283700D01*
X287485D01*
Y270989D01*
D02*
G37*
G36*
X274421D02*
D01*
Y266405D01*
X272034D01*
Y266460D01*
X272744Y267126D01*
X272989Y267359D01*
X273188Y267548D01*
X273366Y267726D01*
X273499Y267859D01*
X273599Y267970D01*
X273666Y268047D01*
X273710Y268103D01*
X273721Y268114D01*
X273821Y268247D01*
X273899Y268369D01*
X273976Y268480D01*
X274032Y268580D01*
X274076Y268669D01*
X274110Y268736D01*
X274121Y268780D01*
X274132Y268791D01*
X274176Y268913D01*
X274210Y269046D01*
X274232Y269157D01*
X274254Y269268D01*
Y269368D01*
X274265Y269435D01*
Y269490D01*
Y269501D01*
X274254Y269657D01*
X274232Y269801D01*
X274198Y269934D01*
X274154Y270045D01*
X274110Y270134D01*
X274076Y270212D01*
X274054Y270256D01*
X274043Y270267D01*
X273954Y270389D01*
X273854Y270501D01*
X273755Y270589D01*
X273655Y270667D01*
X273566Y270723D01*
X273499Y270767D01*
X273455Y270789D01*
X273433Y270800D01*
X273288Y270867D01*
X273133Y270911D01*
X272978Y270944D01*
X272833Y270967D01*
X272711Y270978D01*
X272622Y270989D01*
X274421D01*
X272389D01*
X272256Y270978D01*
X272134Y270967D01*
X272034Y270956D01*
X271945Y270933D01*
X271879Y270922D01*
X271834Y270911D01*
X271823D01*
X271601Y270845D01*
X271501Y270811D01*
X271424Y270767D01*
X271346Y270745D01*
X271290Y270711D01*
X271257Y270700D01*
X271246Y270689D01*
X271146Y270623D01*
X271035Y270556D01*
X270924Y270467D01*
X270813Y270389D01*
X270724Y270323D01*
X270647Y270256D01*
X270602Y270212D01*
X270580Y270201D01*
D01*
X271213Y269457D01*
X271335Y269557D01*
X271446Y269646D01*
X271546Y269712D01*
X271646Y269768D01*
X271723Y269823D01*
X271779Y269857D01*
X271823Y269868D01*
X271834Y269879D01*
X271945Y269923D01*
X272056Y269968D01*
X272167Y269990D01*
X272256Y270001D01*
X272334Y270012D01*
X272400Y270023D01*
X272456D01*
X272567Y270012D01*
X272656Y270001D01*
X272744Y269968D01*
X272811Y269946D01*
X272866Y269912D01*
X272900Y269879D01*
X272922Y269868D01*
X272933Y269857D01*
X273000Y269790D01*
X273044Y269712D01*
X273077Y269635D01*
X273100Y269557D01*
X273111Y269479D01*
X273122Y269424D01*
Y269379D01*
Y269368D01*
X273111Y269213D01*
X273077Y269069D01*
X273066Y269013D01*
X273044Y268969D01*
X273033Y268946D01*
Y268935D01*
X272955Y268780D01*
X272866Y268636D01*
X272833Y268580D01*
X272800Y268536D01*
X272778Y268503D01*
X272767Y268491D01*
X272678Y268391D01*
X272567Y268258D01*
X272434Y268114D01*
X272300Y267970D01*
X272167Y267836D01*
X272067Y267726D01*
X272023Y267681D01*
X271990Y267659D01*
X271979Y267637D01*
X271968Y267626D01*
X270591Y266238D01*
Y265439D01*
X270580D01*
X274421D01*
Y270989D01*
D02*
G37*
G36*
X278761Y271000D02*
X274931D01*
D01*
X276851D01*
X276674Y270989D01*
X276507Y270967D01*
X276352Y270933D01*
X276208Y270889D01*
X276085Y270845D01*
X275963Y270778D01*
X275852Y270723D01*
X275764Y270656D01*
X275675Y270589D01*
X275597Y270534D01*
X275542Y270467D01*
X275486Y270423D01*
X275453Y270378D01*
X275420Y270345D01*
X275408Y270323D01*
X275397Y270312D01*
X275320Y270179D01*
X275242Y270023D01*
X275186Y269857D01*
X275131Y269690D01*
X275042Y269335D01*
X274987Y268980D01*
X274975Y268824D01*
X274953Y268669D01*
X274942Y268525D01*
Y268403D01*
X274931Y268314D01*
Y268169D01*
X274942Y267914D01*
X274953Y267681D01*
X274975Y267459D01*
X275009Y267259D01*
X275042Y267071D01*
X275086Y266893D01*
X275131Y266738D01*
X275175Y266604D01*
X275220Y266482D01*
X275253Y266371D01*
X275297Y266283D01*
X275331Y266205D01*
X275364Y266149D01*
X275386Y266105D01*
X275408Y266083D01*
Y266072D01*
X275508Y265950D01*
X275608Y265839D01*
X275719Y265750D01*
X275841Y265672D01*
X275963Y265606D01*
X276085Y265539D01*
X276319Y265461D01*
X276530Y265406D01*
X276618Y265395D01*
X276696Y265383D01*
X276763Y265372D01*
X276851D01*
X277029Y265383D01*
X277195Y265406D01*
X277351Y265439D01*
X277484Y265483D01*
X277617Y265528D01*
X277739Y265583D01*
X277839Y265650D01*
X277939Y265716D01*
X278028Y265772D01*
X278095Y265839D01*
X278161Y265894D01*
X278206Y265950D01*
X278250Y265983D01*
X278272Y266016D01*
X278294Y266038D01*
Y266049D01*
X278372Y266183D01*
X278450Y266338D01*
X278561Y266671D01*
X278650Y267026D01*
X278705Y267370D01*
X278727Y267526D01*
X278738Y267681D01*
X278749Y267814D01*
Y267936D01*
X278761Y268036D01*
Y265894D01*
Y268036D01*
Y271000D01*
D02*
G37*
G36*
X318675Y270911D02*
X314191D01*
Y265439D01*
X315345D01*
Y267792D01*
X317521D01*
Y265439D01*
X318675D01*
Y270911D01*
D02*
G37*
G36*
X308164D02*
X305012D01*
Y265439D01*
X308164D01*
Y270911D01*
D02*
G37*
G36*
X304168D02*
X300028D01*
Y269946D01*
X301515D01*
Y265439D01*
X302681D01*
Y269946D01*
X304168D01*
Y265439D01*
D01*
D01*
Y270911D01*
D02*
G37*
G36*
X299872Y270933D02*
Y265439D01*
X297930Y270933D01*
X299872D01*
X294589D01*
D01*
X296520D01*
X294589Y265439D01*
D01*
X295832D01*
X296232Y266738D01*
X298230D01*
X298629Y265439D01*
X299872D01*
Y270933D01*
D02*
G37*
G36*
X294234Y270911D02*
X290460D01*
Y265439D01*
X291614D01*
Y267381D01*
X292114D01*
X292302Y267393D01*
X292480Y267404D01*
X292635Y267426D01*
X292791Y267459D01*
X292935Y267493D01*
X293057Y267526D01*
X293179Y267570D01*
X293279Y267615D01*
X293368Y267659D01*
X293457Y267703D01*
X293523Y267737D01*
X293579Y267770D01*
X293623Y267803D01*
X293657Y267825D01*
X293668Y267848D01*
X293679D01*
X293779Y267936D01*
X293867Y268036D01*
X293934Y268147D01*
X294001Y268258D01*
X294100Y268480D01*
X294167Y268702D01*
X294200Y268902D01*
X294223Y268980D01*
Y269058D01*
X294234Y269113D01*
Y265439D01*
D01*
Y270911D01*
D02*
G37*
G36*
X283167Y270989D02*
X279327D01*
D01*
X281136D01*
X281003Y270978D01*
X280881Y270967D01*
X280781Y270956D01*
X280692Y270933D01*
X280625Y270922D01*
X280581Y270911D01*
X280570D01*
X280348Y270845D01*
X280248Y270811D01*
X280170Y270767D01*
X280093Y270745D01*
X280037Y270711D01*
X280004Y270700D01*
X279993Y270689D01*
X279893Y270623D01*
X279782Y270556D01*
X279671Y270467D01*
X279560Y270389D01*
X279471Y270323D01*
X279393Y270256D01*
X279349Y270212D01*
X279327Y270201D01*
D01*
X279959Y269457D01*
X280081Y269557D01*
X280192Y269646D01*
X280292Y269712D01*
X280392Y269768D01*
X280470Y269823D01*
X280525Y269857D01*
X280570Y269868D01*
X280581Y269879D01*
X280692Y269923D01*
X280803Y269968D01*
X280914Y269990D01*
X281003Y270001D01*
X281080Y270012D01*
X281147Y270023D01*
X281203D01*
X281313Y270012D01*
X281402Y270001D01*
X281491Y269968D01*
X281558Y269946D01*
X281613Y269912D01*
X281646Y269879D01*
X281669Y269868D01*
X281680Y269857D01*
X281746Y269790D01*
X281791Y269712D01*
X281824Y269635D01*
X281846Y269557D01*
X281857Y269479D01*
X281868Y269424D01*
Y269379D01*
Y269368D01*
X281857Y269213D01*
X281824Y269069D01*
X281813Y269013D01*
X281791Y268969D01*
X281780Y268946D01*
Y268935D01*
X281702Y268780D01*
X281613Y268636D01*
X281580Y268580D01*
X281547Y268536D01*
X281524Y268503D01*
X281513Y268491D01*
X281425Y268391D01*
X281313Y268258D01*
X281180Y268114D01*
X281047Y267970D01*
X280914Y267836D01*
X280814Y267726D01*
X280770Y267681D01*
X280736Y267659D01*
X280725Y267637D01*
X280714Y267626D01*
X279338Y266238D01*
Y265439D01*
X283167D01*
Y270989D01*
D02*
G37*
G36*
X313237D02*
X309063D01*
D01*
X311627D01*
X311350Y270978D01*
X311083Y270933D01*
X310850Y270878D01*
X310650Y270822D01*
X310484Y270756D01*
X310417Y270723D01*
X310362Y270700D01*
X310317Y270678D01*
X310284Y270656D01*
X310273Y270645D01*
X310262D01*
X310062Y270501D01*
X309884Y270345D01*
X309729Y270179D01*
X309607Y270023D01*
X309507Y269879D01*
X309429Y269768D01*
X309407Y269723D01*
X309385Y269690D01*
X309374Y269668D01*
Y269657D01*
X309274Y269413D01*
X309196Y269146D01*
X309141Y268902D01*
X309107Y268669D01*
X309085Y268458D01*
X309074Y268380D01*
X309063Y268303D01*
Y268158D01*
X309074Y267914D01*
X309085Y267681D01*
X309118Y267459D01*
X309163Y267259D01*
X309207Y267082D01*
X309263Y266904D01*
X309318Y266749D01*
X309385Y266616D01*
X309440Y266493D01*
X309496Y266383D01*
X309551Y266294D01*
X309596Y266216D01*
X309640Y266161D01*
X309674Y266116D01*
X309685Y266094D01*
X309696Y266083D01*
X309818Y265961D01*
X309951Y265850D01*
X310095Y265750D01*
X310251Y265672D01*
X310395Y265606D01*
X310550Y265550D01*
X310839Y265461D01*
X310983Y265428D01*
X311105Y265406D01*
X311216Y265395D01*
X311316Y265383D01*
X311405Y265372D01*
X311516D01*
X311816Y265383D01*
X312104Y265417D01*
X312360Y265461D01*
X312582Y265506D01*
X312682Y265528D01*
X312770Y265550D01*
X312848Y265572D01*
X312903Y265594D01*
X312959Y265617D01*
X312992Y265628D01*
X313015Y265639D01*
X313026D01*
Y266616D01*
X312726Y266516D01*
X312460Y266449D01*
X312226Y266394D01*
X312015Y266360D01*
X311849Y266338D01*
X311782D01*
X311727Y266327D01*
X311627D01*
X311383Y266349D01*
X311172Y266405D01*
X310994Y266493D01*
X310828Y266616D01*
X310695Y266749D01*
X310584Y266904D01*
X310495Y267071D01*
X310428Y267248D01*
X310362Y267415D01*
X310328Y267581D01*
X310295Y267737D01*
X310273Y267870D01*
X310262Y267992D01*
X310251Y268081D01*
Y268136D01*
Y268158D01*
X310262Y268469D01*
X310306Y268747D01*
X310362Y268980D01*
X310428Y269168D01*
X310495Y269324D01*
X310550Y269435D01*
X310573Y269468D01*
X310595Y269501D01*
X310606Y269524D01*
X310684Y269613D01*
X310750Y269690D01*
X310917Y269812D01*
X311094Y269901D01*
X311250Y269957D01*
X311405Y270001D01*
X311516Y270012D01*
X311560Y270023D01*
X311627D01*
X311849Y270001D01*
X311949Y269990D01*
X312049Y269968D01*
X312127Y269946D01*
X312182Y269934D01*
X312226Y269912D01*
X312237D01*
X312471Y269823D01*
X312570Y269779D01*
X312670Y269746D01*
X312748Y269712D01*
X312804Y269679D01*
X312848Y269668D01*
X312859Y269657D01*
X313237Y270600D01*
X312937Y270734D01*
X312648Y270822D01*
X312371Y270889D01*
X312127Y270944D01*
X312015Y270956D01*
X311927Y270967D01*
X311838Y270978D01*
X311760D01*
X311705Y270989D01*
X313237D01*
Y265372D01*
D01*
Y270989D01*
D02*
G37*
%LPD*%
G36*
X265330Y270445D02*
X265541Y270412D01*
X265729Y270356D01*
X265907Y270301D01*
X266040Y270245D01*
X266151Y270190D01*
X266218Y270156D01*
X266229Y270145D01*
X266240D01*
X266429Y270023D01*
X266595Y269890D01*
X266739Y269746D01*
X266861Y269613D01*
X266961Y269501D01*
X267028Y269402D01*
X267072Y269335D01*
X267083Y269324D01*
Y269313D01*
X267183Y269113D01*
X267261Y268913D01*
X267317Y268713D01*
X267361Y268547D01*
X267383Y268391D01*
X267394Y268269D01*
Y268225D01*
Y268192D01*
Y268181D01*
Y268169D01*
X267383Y267948D01*
X267350Y267737D01*
X267294Y267537D01*
X267239Y267370D01*
X267183Y267226D01*
X267128Y267115D01*
X267117Y267082D01*
X267095Y267048D01*
X267083Y267037D01*
Y267026D01*
X266961Y266838D01*
X266828Y266671D01*
X266684Y266538D01*
X266551Y266416D01*
X266440Y266316D01*
X266340Y266249D01*
X266273Y266205D01*
X266262Y266194D01*
X266251D01*
X266051Y266094D01*
X265851Y266016D01*
X265652Y265961D01*
X265485Y265927D01*
X265330Y265905D01*
X265208Y265883D01*
X265108D01*
X264886Y265894D01*
X264675Y265927D01*
X264475Y265983D01*
X264309Y266038D01*
X264164Y266083D01*
X264053Y266138D01*
X264020Y266161D01*
X263987Y266172D01*
X263976Y266183D01*
X263965D01*
X263776Y266305D01*
X263609Y266449D01*
X263465Y266582D01*
X263343Y266727D01*
X263243Y266838D01*
X263176Y266938D01*
X263132Y267004D01*
X263121Y267015D01*
Y267026D01*
X263021Y267226D01*
X262943Y267426D01*
X262899Y267626D01*
X262854Y267803D01*
X262832Y267948D01*
X262821Y268070D01*
Y268114D01*
Y268147D01*
Y268158D01*
Y268169D01*
X262832Y268391D01*
X262866Y268602D01*
X262921Y268802D01*
X262977Y268969D01*
X263021Y269113D01*
X263076Y269224D01*
X263099Y269257D01*
X263110Y269291D01*
X263121Y269302D01*
Y269313D01*
X263243Y269501D01*
X263387Y269668D01*
X263521Y269812D01*
X263665Y269934D01*
X263776Y270023D01*
X263876Y270090D01*
X263942Y270134D01*
X263953Y270145D01*
X263965D01*
X264164Y270245D01*
X264364Y270323D01*
X264564Y270378D01*
X264741Y270423D01*
X264886Y270445D01*
X265008Y270456D01*
X265108D01*
X265330Y270445D01*
D02*
G37*
%LPC*%
G36*
X265319Y269923D02*
X265219D01*
X264952Y269901D01*
X264719Y269846D01*
X264520Y269779D01*
X264353Y269690D01*
X264231Y269601D01*
X264131Y269535D01*
X264076Y269479D01*
X264053Y269457D01*
X263920Y269268D01*
X263820Y269069D01*
X263743Y268858D01*
X263698Y268647D01*
X263665Y268469D01*
X263654Y268380D01*
Y268314D01*
X263643Y268258D01*
Y268214D01*
Y268192D01*
Y268181D01*
X263665Y267881D01*
X263709Y267626D01*
X263776Y267404D01*
X263853Y267215D01*
X263931Y267071D01*
X263998Y266971D01*
X264042Y266904D01*
X264064Y266882D01*
X264231Y266727D01*
X264431Y266616D01*
X264619Y266527D01*
X264808Y266471D01*
X264986Y266438D01*
X265052Y266427D01*
X265119D01*
X265174Y266416D01*
X265241D01*
X265430Y266427D01*
X265596Y266449D01*
X265763Y266482D01*
X265896Y266527D01*
X266018Y266560D01*
X266107Y266593D01*
X266162Y266616D01*
X266185Y266627D01*
Y267348D01*
X266029Y267271D01*
X265874Y267226D01*
X265818Y267204D01*
X265774Y267193D01*
X265741Y267182D01*
X265729D01*
X265552Y267148D01*
X265474Y267137D01*
X265408D01*
X265352Y267126D01*
X265263D01*
X265130Y267137D01*
X265019Y267171D01*
X264919Y267226D01*
X264830Y267293D01*
X264753Y267370D01*
X264697Y267459D01*
X264608Y267648D01*
X264553Y267836D01*
X264531Y267925D01*
X264520Y268003D01*
X264508Y268070D01*
Y268125D01*
Y268158D01*
Y268169D01*
X264520Y268347D01*
X264542Y268491D01*
X264575Y268625D01*
X264608Y268736D01*
X264642Y268824D01*
X264675Y268880D01*
X264697Y268924D01*
X264708Y268935D01*
X264786Y269024D01*
X264875Y269091D01*
X264975Y269146D01*
X265063Y269180D01*
X265141Y269202D01*
X265208Y269213D01*
X265263D01*
X265419Y269202D01*
X265563Y269180D01*
X265696Y269146D01*
X265829Y269113D01*
X265929Y269069D01*
X266018Y269035D01*
X266062Y269013D01*
X266085Y269002D01*
X266362Y269624D01*
X266140Y269723D01*
X265940Y269801D01*
X265741Y269846D01*
X265574Y269890D01*
X265430Y269912D01*
X265319Y269923D01*
D02*
G37*
%LPD*%
G36*
X287485Y265372D02*
X285476D01*
X285653Y265395D01*
X285820Y265417D01*
X285986Y265439D01*
X286131Y265472D01*
X286264Y265506D01*
X286386Y265550D01*
X286497Y265594D01*
X286586Y265628D01*
X286675Y265672D01*
X286741Y265705D01*
X286808Y265739D01*
X286852Y265761D01*
X286886Y265783D01*
X286897Y265805D01*
X286908D01*
X287008Y265894D01*
X287097Y265983D01*
X287174Y266083D01*
X287241Y266183D01*
X287341Y266383D01*
X287418Y266582D01*
X287452Y266760D01*
X287463Y266826D01*
X287474Y266893D01*
X287485Y266949D01*
Y265372D01*
D02*
G37*
G36*
X278761Y268425D02*
X278738Y268658D01*
X278716Y268880D01*
X278683Y269080D01*
X278650Y269268D01*
X278605Y269446D01*
X278561Y269601D01*
X278516Y269746D01*
X278472Y269868D01*
X278428Y269979D01*
X278383Y270068D01*
X278350Y270145D01*
X278316Y270201D01*
X278294Y270245D01*
X278283Y270267D01*
X278272Y270278D01*
X278183Y270401D01*
X278072Y270512D01*
X277961Y270611D01*
X277850Y270700D01*
X277728Y270767D01*
X277617Y270822D01*
X277384Y270911D01*
X277173Y270967D01*
X277085Y270978D01*
X277007Y270989D01*
X276940Y271000D01*
X278761D01*
Y268425D01*
D02*
G37*
G36*
X276996Y270034D02*
X277107Y269990D01*
X277207Y269912D01*
X277295Y269834D01*
X277351Y269757D01*
X277395Y269679D01*
X277418Y269635D01*
X277429Y269613D01*
X277462Y269524D01*
X277484Y269424D01*
X277528Y269202D01*
X277562Y268969D01*
X277584Y268724D01*
X277595Y268514D01*
X277606Y268414D01*
Y268336D01*
Y268269D01*
Y268214D01*
Y268181D01*
Y268169D01*
Y267992D01*
X277595Y267825D01*
Y267670D01*
X277584Y267526D01*
X277562Y267393D01*
X277551Y267271D01*
X277540Y267171D01*
X277517Y267071D01*
X277506Y266993D01*
X277484Y266915D01*
X277473Y266860D01*
X277462Y266815D01*
X277440Y266749D01*
X277429Y266727D01*
X277351Y266582D01*
X277262Y266471D01*
X277173Y266405D01*
X277073Y266349D01*
X276985Y266316D01*
X276918Y266305D01*
X276874Y266294D01*
X276851D01*
X276707Y266316D01*
X276585Y266360D01*
X276474Y266427D01*
X276396Y266516D01*
X276330Y266593D01*
X276285Y266660D01*
X276263Y266704D01*
X276252Y266727D01*
X276219Y266815D01*
X276196Y266915D01*
X276152Y267137D01*
X276130Y267370D01*
X276108Y267615D01*
X276097Y267825D01*
X276085Y267925D01*
Y268003D01*
Y268070D01*
Y268125D01*
Y268158D01*
Y268169D01*
Y268347D01*
X276097Y268525D01*
X276108Y268680D01*
X276119Y268824D01*
X276130Y268958D01*
X276141Y269069D01*
X276163Y269180D01*
X276174Y269268D01*
X276196Y269357D01*
X276208Y269424D01*
X276219Y269479D01*
X276241Y269535D01*
X276252Y269590D01*
X276263Y269613D01*
X276341Y269757D01*
X276430Y269868D01*
X276530Y269946D01*
X276629Y270001D01*
X276707Y270034D01*
X276785Y270045D01*
X276829Y270056D01*
X276851D01*
X276996Y270034D01*
D02*
G37*
G36*
X317521Y268758D02*
X315345D01*
Y270911D01*
X317521D01*
Y268758D01*
D02*
G37*
G36*
X308164Y266394D02*
X306166D01*
Y267803D01*
X308020D01*
Y268758D01*
X306166D01*
Y269957D01*
X308164D01*
Y266394D01*
D02*
G37*
G36*
X297264Y269968D02*
X297297Y269846D01*
X297308Y269790D01*
X297319Y269757D01*
X297330Y269723D01*
Y269712D01*
X297353Y269657D01*
X297375Y269557D01*
X297408Y269446D01*
X297453Y269302D01*
X297508Y269146D01*
X297553Y268980D01*
X297663Y268625D01*
X297719Y268447D01*
X297775Y268281D01*
X297819Y268136D01*
X297863Y267992D01*
X297897Y267881D01*
X297930Y267792D01*
X297941Y267737D01*
X297952Y267715D01*
X296520D01*
X296620Y268047D01*
X296720Y268358D01*
X296809Y268636D01*
X296875Y268880D01*
X296942Y269102D01*
X297009Y269291D01*
X297053Y269457D01*
X297097Y269601D01*
X297131Y269723D01*
X297164Y269823D01*
X297186Y269912D01*
X297197Y269979D01*
X297220Y270023D01*
Y270056D01*
X297231Y270079D01*
X297264Y269968D01*
D02*
G37*
G36*
X294234Y269357D02*
X294212Y269501D01*
X294156Y269757D01*
X294067Y269979D01*
X293978Y270156D01*
X293878Y270301D01*
X293790Y270401D01*
X293734Y270456D01*
X293723Y270478D01*
X293712D01*
X293612Y270556D01*
X293501Y270623D01*
X293257Y270734D01*
X293013Y270811D01*
X292768Y270856D01*
X292547Y270889D01*
X292447Y270900D01*
X292369D01*
X292302Y270911D01*
X294234D01*
Y269357D01*
D02*
G37*
G36*
X292313Y269946D02*
X292458Y269923D01*
X292580Y269890D01*
X292680Y269857D01*
X292746Y269823D01*
X292802Y269790D01*
X292835Y269768D01*
X292846Y269757D01*
X292924Y269679D01*
X292979Y269579D01*
X293013Y269479D01*
X293046Y269391D01*
X293057Y269302D01*
X293068Y269224D01*
Y269180D01*
Y269157D01*
X293057Y269013D01*
X293024Y268891D01*
X292979Y268791D01*
X292935Y268702D01*
X292891Y268636D01*
X292846Y268591D01*
X292813Y268558D01*
X292802Y268547D01*
X292691Y268480D01*
X292569Y268425D01*
X292435Y268391D01*
X292302Y268358D01*
X292180Y268347D01*
X292091Y268336D01*
X291614D01*
Y269957D01*
X292147D01*
X292313Y269946D01*
D02*
G37*
G36*
X283167Y266405D02*
X280781D01*
Y266460D01*
X281491Y267126D01*
X281735Y267359D01*
X281935Y267548D01*
X282113Y267726D01*
X282246Y267859D01*
X282346Y267970D01*
X282412Y268047D01*
X282457Y268103D01*
X282468Y268114D01*
X282568Y268247D01*
X282645Y268369D01*
X282723Y268480D01*
X282779Y268580D01*
X282823Y268669D01*
X282856Y268736D01*
X282868Y268780D01*
X282879Y268791D01*
X282923Y268913D01*
X282956Y269046D01*
X282978Y269157D01*
X283001Y269268D01*
Y269368D01*
X283012Y269435D01*
Y269490D01*
Y269501D01*
X283001Y269657D01*
X282978Y269801D01*
X282945Y269934D01*
X282901Y270045D01*
X282856Y270134D01*
X282823Y270212D01*
X282801Y270256D01*
X282790Y270267D01*
X282701Y270389D01*
X282601Y270501D01*
X282501Y270589D01*
X282401Y270667D01*
X282313Y270723D01*
X282246Y270767D01*
X282201Y270789D01*
X282179Y270800D01*
X282035Y270867D01*
X281880Y270911D01*
X281724Y270944D01*
X281580Y270967D01*
X281458Y270978D01*
X281369Y270989D01*
X283167D01*
Y266405D01*
D02*
G37*
%LPC*%
G36*
X345538Y346202D02*
X345494D01*
X345465Y346194D01*
X345383Y346187D01*
X345280Y346165D01*
X345169Y346128D01*
X345051Y346069D01*
X344940Y345987D01*
X344888Y345943D01*
X344844Y345884D01*
X344836Y345869D01*
X344807Y345825D01*
X344770Y345751D01*
X344725Y345655D01*
X344681Y345522D01*
X344644Y345367D01*
X344615Y345182D01*
X344607Y344967D01*
Y344960D01*
Y344938D01*
Y344908D01*
X344615Y344864D01*
Y344812D01*
X344622Y344760D01*
X344637Y344620D01*
X344666Y344472D01*
X344703Y344317D01*
X344762Y344169D01*
X344836Y344044D01*
X344851Y344029D01*
X344881Y343992D01*
X344932Y343947D01*
X345014Y343888D01*
X345110Y343829D01*
X345228Y343785D01*
X345368Y343748D01*
X345531Y343733D01*
X345568D01*
X345620Y343740D01*
X345679Y343755D01*
X345746Y343770D01*
X345827Y343800D01*
X345908Y343837D01*
X345997Y343888D01*
X346086Y343955D01*
X346167Y344036D01*
X346248Y344132D01*
X346315Y344250D01*
X346374Y344398D01*
X346426Y344561D01*
X346455Y344753D01*
X346463Y344967D01*
Y344982D01*
Y345019D01*
X346455Y345078D01*
X346448Y345160D01*
X346433Y345256D01*
X346411Y345359D01*
X346389Y345470D01*
X346344Y345588D01*
X346300Y345699D01*
X346241Y345810D01*
X346159Y345914D01*
X346071Y346010D01*
X345967Y346091D01*
X345842Y346150D01*
X345701Y346187D01*
X345538Y346202D01*
D02*
G37*
G36*
X331146Y370909D02*
X330702D01*
Y369559D01*
X331100D01*
X331174Y369568D01*
X331275Y369578D01*
X331386Y369605D01*
X331497Y369633D01*
X331599Y369679D01*
X331692Y369735D01*
X331701Y369744D01*
X331729Y369772D01*
X331766Y369809D01*
X331802Y369864D01*
X331839Y369938D01*
X331876Y370021D01*
X331904Y370123D01*
X331913Y370243D01*
Y370262D01*
Y370299D01*
X331904Y370364D01*
X331895Y370438D01*
X331867Y370512D01*
X331839Y370595D01*
X331793Y370678D01*
X331729Y370743D01*
X331719Y370752D01*
X331692Y370770D01*
X331645Y370798D01*
X331590Y370826D01*
X331507Y370854D01*
X331405Y370881D01*
X331285Y370900D01*
X331146Y370909D01*
D02*
G37*
G36*
X394716Y393479D02*
X394421D01*
Y392250D01*
X394809D01*
X394892Y392259D01*
X394994Y392268D01*
X395105Y392287D01*
X395216Y392314D01*
X395317Y392351D01*
X395410Y392398D01*
X395419Y392407D01*
X395447Y392425D01*
X395484Y392462D01*
X395521Y392518D01*
X395558Y392583D01*
X395595Y392666D01*
X395622Y392767D01*
X395632Y392878D01*
Y392897D01*
Y392934D01*
X395622Y392989D01*
X395604Y393054D01*
X395576Y393137D01*
X395539Y393211D01*
X395484Y393285D01*
X395410Y393341D01*
X395401Y393350D01*
X395364Y393359D01*
X395317Y393387D01*
X395243Y393415D01*
X395142Y393433D01*
X395021Y393461D01*
X394883Y393470D01*
X394716Y393479D01*
D02*
G37*
G36*
X394118Y335424D02*
X393823D01*
Y334194D01*
X394211D01*
X394294Y334203D01*
X394396Y334213D01*
X394507Y334231D01*
X394618Y334259D01*
X394720Y334296D01*
X394812Y334342D01*
X394821Y334351D01*
X394849Y334370D01*
X394886Y334407D01*
X394923Y334462D01*
X394960Y334527D01*
X394997Y334610D01*
X395025Y334712D01*
X395034Y334823D01*
Y334841D01*
Y334878D01*
X395025Y334934D01*
X395006Y334999D01*
X394978Y335082D01*
X394941Y335156D01*
X394886Y335230D01*
X394812Y335285D01*
X394803Y335294D01*
X394766Y335304D01*
X394720Y335331D01*
X394646Y335359D01*
X394544Y335378D01*
X394424Y335405D01*
X394285Y335415D01*
X394118Y335424D01*
D02*
G37*
G36*
X423905Y335553D02*
X423858D01*
X423803Y335544D01*
X423738Y335526D01*
X423664Y335498D01*
X423581Y335461D01*
X423507Y335415D01*
X423442Y335341D01*
X423433Y335331D01*
X423415Y335304D01*
X423387Y335257D01*
X423359Y335193D01*
X423331Y335109D01*
X423304Y335008D01*
X423285Y334888D01*
X423276Y334749D01*
Y334730D01*
Y334693D01*
X423285Y334638D01*
X423294Y334564D01*
X423313Y334481D01*
X423341Y334398D01*
X423378Y334305D01*
X423424Y334231D01*
X423433Y334222D01*
X423452Y334203D01*
X423489Y334166D01*
X423544Y334139D01*
X423609Y334102D01*
X423683Y334065D01*
X423775Y334046D01*
X423886Y334037D01*
X423932D01*
X423988Y334046D01*
X424062Y334065D01*
X424136Y334083D01*
X424219Y334111D01*
X424302Y334157D01*
X424385Y334222D01*
X424395Y334231D01*
X424422Y334259D01*
X424450Y334296D01*
X424496Y334351D01*
X424533Y334416D01*
X424561Y334490D01*
X424589Y334573D01*
X424598Y334666D01*
Y334684D01*
Y334730D01*
X424589Y334795D01*
X424570Y334888D01*
X424552Y334989D01*
X424515Y335091D01*
X424469Y335193D01*
X424404Y335294D01*
X424395Y335304D01*
X424367Y335331D01*
X424330Y335378D01*
X424265Y335424D01*
X424200Y335470D01*
X424108Y335516D01*
X424016Y335544D01*
X423905Y335553D01*
D02*
G37*
G36*
X367960Y335627D02*
X367923D01*
X367877Y335618D01*
X367812Y335609D01*
X367683Y335572D01*
X367618Y335544D01*
X367553Y335498D01*
X367544Y335489D01*
X367535Y335479D01*
X367507Y335452D01*
X367479Y335415D01*
X367452Y335368D01*
X367433Y335304D01*
X367415Y335239D01*
X367405Y335165D01*
Y335156D01*
Y335137D01*
X367415Y335100D01*
X367424Y335054D01*
X367461Y334943D01*
X367489Y334878D01*
X367525Y334823D01*
X367535Y334814D01*
X367553Y334795D01*
X367581Y334767D01*
X367627Y334730D01*
X367683Y334684D01*
X367757Y334638D01*
X367849Y334582D01*
X367960Y334527D01*
X367969Y334536D01*
X368006Y334555D01*
X368062Y334582D01*
X368126Y334619D01*
X368265Y334703D01*
X368330Y334758D01*
X368385Y334814D01*
X368395Y334823D01*
X368404Y334841D01*
X368422Y334869D01*
X368450Y334915D01*
X368478Y334962D01*
X368496Y335026D01*
X368506Y335091D01*
X368515Y335165D01*
Y335174D01*
Y335202D01*
X368506Y335239D01*
X368496Y335285D01*
X368478Y335341D01*
X368450Y335396D01*
X368413Y335452D01*
X368358Y335498D01*
X368348Y335507D01*
X368330Y335516D01*
X368293Y335535D01*
X368247Y335563D01*
X368191Y335590D01*
X368126Y335609D01*
X368043Y335618D01*
X367960Y335627D01*
D02*
G37*
G36*
X367914Y333695D02*
X367905D01*
X367886Y333686D01*
X367849Y333667D01*
X367812Y333639D01*
X367701Y333575D01*
X367581Y333482D01*
X367461Y333371D01*
X367350Y333242D01*
X367313Y333168D01*
X367276Y333094D01*
X367257Y333011D01*
X367248Y332928D01*
Y332918D01*
Y332881D01*
X367257Y332835D01*
X367276Y332770D01*
X367294Y332706D01*
X367322Y332632D01*
X367368Y332567D01*
X367433Y332502D01*
X367442Y332493D01*
X367470Y332484D01*
X367516Y332456D01*
X367572Y332428D01*
X367646Y332401D01*
X367738Y332382D01*
X367840Y332364D01*
X367951Y332354D01*
X368006D01*
X368071Y332364D01*
X368154Y332373D01*
X368237Y332391D01*
X368330Y332419D01*
X368413Y332456D01*
X368487Y332511D01*
X368496Y332521D01*
X368515Y332539D01*
X368543Y332576D01*
X368579Y332622D01*
X368607Y332678D01*
X368635Y332752D01*
X368653Y332826D01*
X368663Y332918D01*
Y332928D01*
Y332955D01*
X368653Y332992D01*
X368644Y333048D01*
X368616Y333103D01*
X368589Y333168D01*
X368543Y333242D01*
X368487Y333307D01*
X368478Y333316D01*
X368450Y333344D01*
X368413Y333381D01*
X368348Y333427D01*
X368274Y333482D01*
X368173Y333547D01*
X368052Y333621D01*
X367914Y333695D01*
D02*
G37*
G36*
X485965Y389935D02*
X485919D01*
X485863Y389926D01*
X485789Y389908D01*
X485715Y389889D01*
X485623Y389852D01*
X485539Y389806D01*
X485456Y389741D01*
X485447Y389732D01*
X485428Y389704D01*
X485392Y389667D01*
X485354Y389621D01*
X485317Y389556D01*
X485280Y389482D01*
X485262Y389399D01*
X485253Y389307D01*
Y389288D01*
Y389242D01*
X485262Y389177D01*
X485280Y389085D01*
X485299Y388983D01*
X485336Y388881D01*
X485382Y388770D01*
X485447Y388669D01*
X485456Y388659D01*
X485484Y388632D01*
X485530Y388585D01*
X485586Y388548D01*
X485660Y388502D01*
X485743Y388456D01*
X485844Y388428D01*
X485946Y388419D01*
X485992D01*
X486048Y388428D01*
X486122Y388447D01*
X486196Y388465D01*
X486270Y388502D01*
X486353Y388558D01*
X486418Y388622D01*
X486427Y388632D01*
X486446Y388659D01*
X486473Y388706D01*
X486501Y388780D01*
X486529Y388863D01*
X486556Y388965D01*
X486575Y389085D01*
X486584Y389214D01*
Y389233D01*
Y389270D01*
X486575Y389334D01*
X486566Y389408D01*
X486547Y389492D01*
X486519Y389584D01*
X486482Y389667D01*
X486427Y389741D01*
X486418Y389750D01*
X486399Y389769D01*
X486362Y389806D01*
X486316Y389843D01*
X486251Y389871D01*
X486168Y389908D01*
X486076Y389926D01*
X485965Y389935D01*
D02*
G37*
G36*
X486168Y347165D02*
X486150D01*
X486140Y347156D01*
X486131Y347119D01*
X486103Y347072D01*
X486066Y347008D01*
X486029Y346934D01*
X485983Y346851D01*
X485872Y346666D01*
X485031Y345408D01*
X486131D01*
Y346176D01*
Y346185D01*
Y346213D01*
Y346259D01*
Y346324D01*
Y346398D01*
Y346499D01*
X486140Y346610D01*
Y346740D01*
Y346758D01*
Y346795D01*
X486150Y346860D01*
Y346934D01*
X486159Y347008D01*
Y347072D01*
X486168Y347128D01*
Y347165D01*
D02*
G37*
%LPD*%
D10*
X324000Y391000D02*
G03*
X324000Y391000I-2000J0D01*
G01*
X363000Y382000D02*
G03*
X363000Y382000I-2000J0D01*
G01*
X378500Y316000D02*
Y330000D01*
X355500Y316000D02*
Y330000D01*
X378500D01*
X355500Y316000D02*
X378500D01*
X375000Y396500D02*
X389000D01*
X375000Y419500D02*
X389000D01*
Y396500D02*
Y419500D01*
X375000Y396500D02*
Y419500D01*
X262000Y293400D02*
X317000D01*
X262000Y395000D02*
X317000D01*
Y293400D02*
Y395000D01*
X262000Y293400D02*
Y395000D01*
X476500Y383000D02*
Y397000D01*
X453500Y383000D02*
Y397000D01*
X476500D01*
X453500Y383000D02*
X476500D01*
X406500Y316000D02*
Y330000D01*
X383500Y316000D02*
Y330000D01*
X406500D01*
X383500Y316000D02*
X406500D01*
X435000Y339500D02*
X449000D01*
X435000Y383000D02*
X449000D01*
Y339500D02*
Y383000D01*
X435000Y339500D02*
Y383000D01*
X390000Y396500D02*
X404000D01*
X390000Y419500D02*
X404000D01*
Y396500D02*
Y419500D01*
X390000Y396500D02*
Y419500D01*
X410000Y396500D02*
X424000D01*
X410000Y419500D02*
X424000D01*
Y396500D02*
Y419500D01*
X410000Y396500D02*
Y419500D01*
X424000Y396500D02*
X438000D01*
X424000Y419500D02*
X438000D01*
Y396500D02*
Y419500D01*
X424000Y396500D02*
Y419500D01*
X476500Y325000D02*
Y339000D01*
X453500Y325000D02*
Y339000D01*
X476500D01*
X453500Y325000D02*
X476500D01*
Y369000D02*
Y383000D01*
X453500Y369000D02*
Y383000D01*
X476500D01*
X453500Y369000D02*
X476500D01*
X419000Y349500D02*
X433000D01*
X419000Y372500D02*
X433000D01*
Y349500D02*
Y372500D01*
X419000Y349500D02*
Y372500D01*
X476500Y339000D02*
Y353000D01*
X453500Y339000D02*
Y353000D01*
X476500D01*
X453500Y339000D02*
X476500D01*
X434500Y316000D02*
Y330000D01*
X411500Y316000D02*
Y330000D01*
X434500D01*
X411500Y316000D02*
X434500D01*
X408000Y343000D02*
Y350000D01*
X401000Y343000D02*
X408000D01*
X366000D02*
X372000D01*
X366000D02*
Y350000D01*
X408000Y379000D02*
Y385000D01*
X402000D02*
X408000D01*
X366000D02*
X372000D01*
X366000Y379000D02*
Y385000D01*
X338000Y262000D02*
X452000D01*
Y276000D01*
X338000Y262000D02*
Y276000D01*
Y296000D02*
Y310000D01*
X452000Y296000D02*
Y310000D01*
X338000D02*
X452000D01*
D11*
X319000Y332000D02*
X354000D01*
X319000Y365000D02*
X354000D01*
Y332000D02*
Y365000D01*
X319000Y332000D02*
Y365000D01*
M02*
