G04*
G04 #@! TF.GenerationSoftware,Altium Limited,Altium Designer,22.7.1 (60)*
G04*
G04 Layer_Physical_Order=1*
G04 Layer_Color=255*
%FSLAX44Y44*%
%MOMM*%
G71*
G04*
G04 #@! TF.SameCoordinates,7A3DA631-0345-4E00-B8C7-321365C47752*
G04*
G04*
G04 #@! TF.FilePolarity,Positive*
G04*
G01*
G75*
%ADD12R,0.6000X0.7000*%
%ADD13O,0.8000X0.3000*%
%ADD14O,0.3000X0.8000*%
%ADD15R,0.7000X0.6000*%
%ADD16O,5.0000X1.5000*%
%ADD23R,0.5000X2.7000*%
%ADD24R,3.9400X0.5000*%
%ADD25R,2.6400X0.5000*%
%ADD26R,4.9000X0.9000*%
%ADD27R,0.5000X5.0000*%
%ADD28R,4.9000X0.5000*%
%ADD29R,0.5000X2.0000*%
%ADD30C,0.5000*%
%ADD31C,0.5241*%
%ADD32C,0.2540*%
%ADD33O,2.2000X1.4000*%
%ADD34C,1.0000*%
%ADD35C,0.7000*%
G36*
X464000Y413156D02*
X462730Y412771D01*
X462718Y412789D01*
X462718Y412789D01*
X459789Y415718D01*
X458542Y416551D01*
X457071Y416844D01*
X457071Y416844D01*
X435770D01*
Y417270D01*
X431635D01*
Y413000D01*
Y408730D01*
X435770D01*
Y409156D01*
X455479D01*
X456156Y408479D01*
Y394770D01*
X455730D01*
Y390635D01*
X460000D01*
Y390000D01*
X460635D01*
Y385230D01*
X464000D01*
Y380770D01*
X455730D01*
Y379967D01*
X446770D01*
Y380270D01*
X437230D01*
Y371730D01*
X446770D01*
Y372033D01*
X455730D01*
Y371230D01*
X464000D01*
Y368000D01*
X479000D01*
Y256315D01*
X256315D01*
Y421685D01*
X464000D01*
Y413156D01*
D02*
G37*
%LPC*%
G36*
X416365Y417270D02*
X412230D01*
Y416844D01*
X401770D01*
Y417270D01*
X397635D01*
Y413000D01*
Y408730D01*
X401770D01*
Y409156D01*
X412230D01*
Y408730D01*
X416365D01*
Y413000D01*
Y417270D01*
D02*
G37*
G36*
X381365D02*
X377230D01*
Y416844D01*
X285000D01*
X285000Y416844D01*
X283529Y416551D01*
X282282Y415718D01*
X273582Y407018D01*
X272749Y405771D01*
X272456Y404300D01*
X272456Y404300D01*
Y390441D01*
X272300D01*
X270141Y390157D01*
X268129Y389324D01*
X266402Y387998D01*
X265076Y386271D01*
X264243Y384259D01*
X264042Y382735D01*
X276300D01*
Y382100D01*
X276935D01*
Y373759D01*
X280300D01*
X282459Y374043D01*
X284471Y374876D01*
X286198Y376202D01*
X287524Y377929D01*
X288357Y379941D01*
X288360Y379959D01*
X289641D01*
X289643Y379941D01*
X290476Y377929D01*
X291802Y376202D01*
X293529Y374876D01*
X295541Y374043D01*
X297700Y373759D01*
X305700D01*
X307859Y374043D01*
X309871Y374876D01*
X311598Y376202D01*
X312924Y377929D01*
X313579Y379510D01*
X367827D01*
X369243Y378094D01*
X368717Y376824D01*
X364500D01*
X363419Y376609D01*
X363390Y376590D01*
X339000D01*
X338009Y376393D01*
X337169Y375831D01*
X332927Y371590D01*
X278000D01*
X277009Y371393D01*
X276169Y370831D01*
X274469Y369131D01*
X273907Y368291D01*
X273710Y367300D01*
Y365041D01*
X272300D01*
X270141Y364757D01*
X268129Y363924D01*
X266402Y362598D01*
X265076Y360871D01*
X264243Y358859D01*
X263959Y356700D01*
X264243Y354541D01*
X265076Y352529D01*
X266402Y350802D01*
X268129Y349476D01*
X270141Y348643D01*
X272300Y348359D01*
X280300D01*
X282459Y348643D01*
X284471Y349476D01*
X286198Y350802D01*
X287524Y352529D01*
X288357Y354541D01*
X288360Y354559D01*
X289641D01*
X289643Y354541D01*
X290476Y352529D01*
X291802Y350802D01*
X293529Y349476D01*
X295541Y348643D01*
X297700Y348359D01*
X305700D01*
X307859Y348643D01*
X309871Y349476D01*
X311598Y350802D01*
X312924Y352529D01*
X313579Y354110D01*
X330700D01*
X331691Y354307D01*
X332167Y354625D01*
X332976Y353639D01*
X325927Y346590D01*
X279000D01*
X278009Y346393D01*
X277169Y345831D01*
X274469Y343131D01*
X273907Y342291D01*
X273710Y341300D01*
Y339641D01*
X272300D01*
X270141Y339357D01*
X268129Y338524D01*
X266402Y337198D01*
X265076Y335471D01*
X264243Y333459D01*
X263959Y331300D01*
X264243Y329141D01*
X265076Y327129D01*
X266402Y325402D01*
X268129Y324076D01*
X270141Y323243D01*
X272300Y322959D01*
X280300D01*
X282459Y323243D01*
X284471Y324076D01*
X286198Y325402D01*
X287524Y327129D01*
X288357Y329141D01*
X288360Y329159D01*
X289641D01*
X289643Y329141D01*
X290476Y327129D01*
X291802Y325402D01*
X293529Y324076D01*
X295541Y323243D01*
X297700Y322959D01*
X305700D01*
X307859Y323243D01*
X309871Y324076D01*
X311598Y325402D01*
X312924Y327129D01*
X313579Y328710D01*
X324300D01*
X325291Y328907D01*
X326131Y329469D01*
X352778Y356116D01*
X353556Y356015D01*
X354028Y354691D01*
X320927Y321590D01*
X279000D01*
X278009Y321393D01*
X277169Y320831D01*
X274469Y318131D01*
X273907Y317291D01*
X273710Y316300D01*
Y314241D01*
X272300D01*
X270141Y313957D01*
X268129Y313124D01*
X266402Y311798D01*
X265076Y310071D01*
X264243Y308059D01*
X263959Y305900D01*
X264243Y303741D01*
X265076Y301729D01*
X266402Y300002D01*
X268129Y298676D01*
X270141Y297843D01*
X272300Y297559D01*
X280300D01*
X282459Y297843D01*
X284471Y298676D01*
X286198Y300002D01*
X287524Y301729D01*
X288357Y303741D01*
X288360Y303759D01*
X289641D01*
X289643Y303741D01*
X290476Y301729D01*
X291802Y300002D01*
X293529Y298676D01*
X295541Y297843D01*
X297700Y297559D01*
X305700D01*
X307859Y297843D01*
X309871Y298676D01*
X311598Y300002D01*
X312924Y301729D01*
X313620Y303410D01*
X320000D01*
X320991Y303607D01*
X321831Y304169D01*
X359073Y341410D01*
X374194D01*
X374391Y340419D01*
X375003Y339503D01*
X375919Y338891D01*
X377000Y338676D01*
X378081Y338891D01*
X378997Y339503D01*
X380003D01*
X380919Y338891D01*
X382000Y338676D01*
X383081Y338891D01*
X383140Y338930D01*
X384314Y338303D01*
X384363Y337679D01*
X383339Y336590D01*
X363488D01*
X362497Y336393D01*
X361657Y335831D01*
X360169Y334343D01*
X359607Y333503D01*
X359410Y332512D01*
Y327770D01*
X357730D01*
Y323635D01*
X362000D01*
X366270D01*
Y327770D01*
X364590D01*
Y331410D01*
X385000D01*
X385991Y331607D01*
X386140Y331707D01*
X387410Y331028D01*
Y327770D01*
X385730D01*
Y326844D01*
X376270D01*
Y327770D01*
X367730D01*
Y318230D01*
X376270D01*
Y319156D01*
X385730D01*
Y318230D01*
X386156D01*
Y302510D01*
X339120D01*
X337850Y303780D01*
Y294846D01*
X327970D01*
X325681Y294544D01*
X323547Y293661D01*
X321715Y292255D01*
X320309Y290423D01*
X319426Y288289D01*
X319124Y286000D01*
X319426Y283711D01*
X320309Y281577D01*
X321715Y279745D01*
X323547Y278339D01*
X325681Y277456D01*
X327970Y277154D01*
X337850D01*
Y270760D01*
X452150D01*
Y277154D01*
X462030D01*
X464319Y277456D01*
X466453Y278339D01*
X468285Y279745D01*
X469691Y281577D01*
X470574Y283711D01*
X470876Y286000D01*
X470574Y288289D01*
X469691Y290423D01*
X468285Y292255D01*
X466453Y293661D01*
X464319Y294544D01*
X462030Y294846D01*
X452150D01*
Y302510D01*
X403844D01*
Y318230D01*
X404270D01*
Y319156D01*
X413730D01*
Y318230D01*
X422270D01*
Y327770D01*
X413730D01*
Y326844D01*
X404270D01*
Y327770D01*
X402590D01*
Y331000D01*
X402393Y331991D01*
X401831Y332831D01*
X399590Y335073D01*
Y340390D01*
X399609Y340419D01*
X399824Y341500D01*
Y346500D01*
X399609Y347581D01*
X398997Y348497D01*
X398081Y349109D01*
X397000Y349324D01*
X395919Y349109D01*
X395003Y348497D01*
X393997D01*
X393081Y349109D01*
X392000Y349324D01*
X391882Y349301D01*
X390488Y350233D01*
X390411Y350749D01*
X397831Y358169D01*
X398393Y359009D01*
X398590Y360000D01*
Y366410D01*
X401252D01*
X401930Y365140D01*
X401891Y365081D01*
X401676Y364000D01*
X401891Y362919D01*
X402503Y362003D01*
Y360997D01*
X401891Y360081D01*
X401676Y359000D01*
X401891Y357919D01*
X402503Y357003D01*
Y355997D01*
X401891Y355081D01*
X401676Y354000D01*
X401891Y352919D01*
X402503Y352003D01*
X403419Y351391D01*
X404410Y351194D01*
Y348000D01*
X404607Y347009D01*
X405090Y346287D01*
X405033Y346000D01*
X405335Y344482D01*
X406195Y343195D01*
X407482Y342335D01*
X409000Y342033D01*
X437230D01*
Y341730D01*
X446770D01*
Y342033D01*
X455730D01*
Y341230D01*
X456033D01*
Y336770D01*
X455730D01*
X455730Y327230D01*
X454620Y326844D01*
X432270D01*
Y327770D01*
X428635D01*
Y323000D01*
Y318230D01*
X432270D01*
Y319156D01*
X466571D01*
X466571Y319156D01*
X468042Y319449D01*
X469289Y320282D01*
X472718Y323711D01*
X473551Y324958D01*
X473788Y326148D01*
X474270Y327230D01*
X474270Y327230D01*
X474270Y327230D01*
Y331365D01*
X465683D01*
X465730Y331129D01*
Y328701D01*
X465540Y328574D01*
X464270Y329253D01*
Y336770D01*
X463967D01*
Y341230D01*
X464270D01*
Y350770D01*
X455730D01*
Y349967D01*
X446770D01*
Y350270D01*
X437230D01*
Y349967D01*
X409932D01*
X409807Y351237D01*
X410581Y351391D01*
X411497Y352003D01*
X412109Y352919D01*
X412280Y353776D01*
X412991Y354086D01*
X413552Y354157D01*
X414195Y353195D01*
X415482Y352335D01*
X417000Y352033D01*
X421230D01*
Y351730D01*
X430770D01*
Y352033D01*
X437230D01*
Y351730D01*
X446770D01*
Y360270D01*
X437230D01*
Y359967D01*
X430770D01*
Y360270D01*
X421230D01*
Y359967D01*
X417209D01*
X416469Y360711D01*
X416266Y360994D01*
X417000Y362033D01*
X421230D01*
Y361730D01*
X430770D01*
Y362033D01*
X437230D01*
Y361730D01*
X446770D01*
Y370270D01*
X437230D01*
Y369967D01*
X430770D01*
Y370270D01*
X421230D01*
Y369967D01*
X417000D01*
X415482Y369665D01*
X414195Y368805D01*
X413534Y367815D01*
X413380Y367799D01*
X412313Y368946D01*
X412324Y369000D01*
X412109Y370081D01*
X412070Y370140D01*
X412328Y370882D01*
X412721Y371452D01*
X413503Y371607D01*
X414343Y372169D01*
X415831Y373657D01*
X416393Y374497D01*
X416590Y375488D01*
Y385230D01*
X417949D01*
X419702Y385956D01*
X421044Y387298D01*
X421770Y389051D01*
Y390949D01*
X421044Y392702D01*
X419702Y394044D01*
X419590Y394090D01*
Y398730D01*
X421770D01*
Y400410D01*
X426230D01*
Y398730D01*
X435770D01*
Y407270D01*
X426230D01*
Y405590D01*
X421770D01*
Y407270D01*
X412230D01*
Y404872D01*
X412169Y404831D01*
X411607Y403991D01*
X411410Y403000D01*
X411607Y402009D01*
X412169Y401169D01*
X412230Y401128D01*
Y398730D01*
X414410D01*
Y394090D01*
X414298Y394044D01*
X412956Y392702D01*
X412759Y392225D01*
X412169Y391831D01*
X411607Y390991D01*
X411410Y390000D01*
Y377504D01*
X411330Y377418D01*
X410140Y376697D01*
X409500Y376824D01*
X404500D01*
X403419Y376609D01*
X402503Y375997D01*
X401891Y375081D01*
X401676Y374000D01*
X401891Y372919D01*
X401930Y372860D01*
X401252Y371590D01*
X398590D01*
Y372000D01*
X398393Y372991D01*
X397831Y373831D01*
X394590Y377073D01*
X394686Y378303D01*
X395860Y378930D01*
X395919Y378891D01*
X397000Y378676D01*
X398081Y378891D01*
X398997Y379503D01*
X399609Y380419D01*
X399824Y381500D01*
Y386500D01*
X399609Y387581D01*
X399590Y387610D01*
Y398730D01*
X401770D01*
Y407270D01*
X392230D01*
Y398730D01*
X394410D01*
Y389748D01*
X393140Y389070D01*
X393081Y389109D01*
X392635Y389198D01*
Y384000D01*
X391365D01*
Y389198D01*
X390919Y389109D01*
X390003Y388497D01*
X388997D01*
X388081Y389109D01*
X387000Y389324D01*
X385919Y389109D01*
X385860Y389070D01*
X384590Y389748D01*
Y398730D01*
X386770D01*
Y407270D01*
X377230D01*
Y399092D01*
X376141Y398292D01*
X375991Y398393D01*
X375000Y398590D01*
X358073D01*
X357590Y399073D01*
Y409156D01*
X377230D01*
Y408730D01*
X381365D01*
Y413000D01*
Y417270D01*
D02*
G37*
G36*
X421770D02*
X417635D01*
Y413000D01*
Y408730D01*
X421770D01*
Y409156D01*
X426230D01*
Y408730D01*
X430365D01*
Y413000D01*
Y417270D01*
X426230D01*
Y416844D01*
X421770D01*
Y417270D01*
D02*
G37*
G36*
X386770D02*
X382635D01*
Y413000D01*
Y408730D01*
X386770D01*
Y409156D01*
X392230D01*
Y408730D01*
X396365D01*
Y413000D01*
Y417270D01*
X392230D01*
Y416844D01*
X386770D01*
Y417270D01*
D02*
G37*
G36*
X459365Y389365D02*
X455730D01*
Y385230D01*
X459365D01*
Y389365D01*
D02*
G37*
G36*
X275665Y381465D02*
X264042D01*
X264243Y379941D01*
X265076Y377929D01*
X266402Y376202D01*
X268129Y374876D01*
X270141Y374043D01*
X272300Y373759D01*
X275665D01*
Y381465D01*
D02*
G37*
G36*
X474270Y350770D02*
X470635D01*
Y346635D01*
X474270D01*
Y350770D01*
D02*
G37*
G36*
X469365D02*
X465730D01*
Y346635D01*
X469365D01*
Y350770D01*
D02*
G37*
G36*
X474270Y345365D02*
X465730D01*
Y341230D01*
X466156D01*
Y336770D01*
X465730D01*
Y332635D01*
X474270D01*
Y336770D01*
X473844D01*
Y341230D01*
X474270D01*
Y345365D01*
D02*
G37*
G36*
X427365Y327770D02*
X423730D01*
Y323635D01*
X427365D01*
Y327770D01*
D02*
G37*
G36*
Y322365D02*
X423730D01*
Y318230D01*
X427365D01*
Y322365D01*
D02*
G37*
G36*
X366270D02*
X362635D01*
Y318230D01*
X366270D01*
Y322365D01*
D02*
G37*
G36*
X361365D02*
X357730D01*
Y318230D01*
X361365D01*
Y322365D01*
D02*
G37*
%LPD*%
G36*
X352410Y398000D02*
X352607Y397009D01*
X353169Y396169D01*
X355169Y394169D01*
X356009Y393607D01*
X357000Y393410D01*
X373927D01*
X374410Y392927D01*
Y387610D01*
X374391Y387581D01*
X374176Y386500D01*
Y384635D01*
X377000D01*
Y383365D01*
X374176D01*
Y382283D01*
X372906Y381757D01*
X370731Y383931D01*
X369891Y384493D01*
X368900Y384690D01*
X313579D01*
X312924Y386271D01*
X311598Y387998D01*
X309871Y389324D01*
X307859Y390157D01*
X305700Y390441D01*
X297700D01*
X295541Y390157D01*
X293529Y389324D01*
X291802Y387998D01*
X290476Y386271D01*
X289643Y384259D01*
X289641Y384241D01*
X288360D01*
X288357Y384259D01*
X287524Y386271D01*
X286198Y387998D01*
X284471Y389324D01*
X282459Y390157D01*
X280300Y390441D01*
X280144D01*
Y402708D01*
X286592Y409156D01*
X352410D01*
Y398000D01*
D02*
G37*
D12*
X470000Y390000D02*
D03*
Y376000D02*
D03*
X460000Y390000D02*
D03*
Y376000D02*
D03*
X470000Y346000D02*
D03*
X460000D02*
D03*
X470000Y332000D02*
D03*
X460000D02*
D03*
X390000Y323000D02*
D03*
X400000D02*
D03*
X362000D02*
D03*
X372000D02*
D03*
X428000D02*
D03*
X418000D02*
D03*
D13*
X407000Y374000D02*
D03*
X367000Y364000D02*
D03*
X407000D02*
D03*
Y359000D02*
D03*
Y354000D02*
D03*
X367000Y359000D02*
D03*
Y354000D02*
D03*
X407000Y369000D02*
D03*
X367000D02*
D03*
Y374000D02*
D03*
D14*
X387000Y384000D02*
D03*
X382000Y344000D02*
D03*
X397000Y384000D02*
D03*
Y344000D02*
D03*
X392000D02*
D03*
X382000Y384000D02*
D03*
X377000Y344000D02*
D03*
Y384000D02*
D03*
X392000D02*
D03*
X387000Y344000D02*
D03*
D15*
X417000Y403000D02*
D03*
Y413000D02*
D03*
X397000Y403000D02*
D03*
Y413000D02*
D03*
X431000D02*
D03*
Y403000D02*
D03*
X382000Y413000D02*
D03*
Y403000D02*
D03*
X442000Y376000D02*
D03*
Y366000D02*
D03*
Y346000D02*
D03*
Y356000D02*
D03*
X426000Y356000D02*
D03*
Y366000D02*
D03*
D16*
X345470Y286000D02*
D03*
X444530D02*
D03*
D23*
X552000Y285000D02*
D03*
Y332000D02*
D03*
D24*
X529800Y274000D02*
D03*
D25*
X536300Y296000D02*
D03*
Y368000D02*
D03*
Y343000D02*
D03*
Y321000D02*
D03*
D26*
X525000Y411000D02*
D03*
D27*
X552000Y390500D02*
D03*
D28*
X525000Y390000D02*
D03*
D29*
X525600Y355500D02*
D03*
Y308500D02*
D03*
D30*
X529800Y274000D02*
X552000D01*
Y285000D01*
X417000Y413000D02*
X431000D01*
X382000D02*
X397000D01*
X355000D02*
X382000D01*
X285000D02*
X355000D01*
X276300Y382100D02*
Y404300D01*
X285000Y413000D01*
X460000Y390000D02*
X460000Y390000D01*
X460000Y390000D02*
Y410071D01*
X431000Y413000D02*
X457071D01*
X460000Y410071D01*
X470000Y326429D02*
Y332000D01*
X428000Y323000D02*
X466571D01*
X469500Y331500D02*
X470000Y332000D01*
X466571Y323000D02*
X470000Y326429D01*
Y332000D02*
Y346000D01*
X400000Y323000D02*
X418000D01*
X405929Y286000D02*
X444530D01*
X400000Y291929D02*
X405929Y286000D01*
X400000Y291929D02*
Y323000D01*
X383000Y286000D02*
X390000Y293000D01*
X345470Y286000D02*
X383000D01*
X390000Y293000D02*
Y323000D01*
X372000D02*
X390000D01*
X414000Y413000D02*
X417000D01*
X397000D02*
X414000D01*
D31*
X470000Y390000D02*
X470000Y390000D01*
X525000D01*
X470000Y376000D02*
Y390000D01*
X417000Y366000D02*
X426000D01*
X442000Y346000D02*
X460000D01*
X409000D02*
X442000D01*
X417000Y356000D02*
X426000D01*
X460000Y332000D02*
Y346000D01*
X426000Y356000D02*
X442000D01*
X442000Y356000D01*
X426000Y366000D02*
X442000D01*
Y376000D02*
X460000D01*
X460000Y376000D01*
D32*
X417000Y390000D02*
Y403000D01*
X414000Y403000D02*
X431000D01*
X417000D02*
X431000D01*
X382000Y367388D02*
Y369000D01*
X396000D02*
Y372000D01*
X392000Y376000D02*
X396000Y372000D01*
Y360000D02*
Y369000D01*
X407000D01*
X392000Y376000D02*
Y384000D01*
X387000Y351000D02*
X396000Y360000D01*
X368900Y382100D02*
X382000Y369000D01*
X301700Y382100D02*
X368900D01*
X358000Y344000D02*
X377000D01*
X320000Y306000D02*
X358000Y344000D01*
X382000Y384000D02*
X382000Y384000D01*
X355000Y398000D02*
X357000Y396000D01*
X375000D01*
X377000Y394000D01*
Y384000D02*
Y394000D01*
X382000Y384000D02*
Y403000D01*
X355000Y398000D02*
Y413000D01*
X414000Y375488D02*
Y390000D01*
X397000Y384000D02*
Y403000D01*
X397000Y384000D02*
X397000Y384000D01*
X362000Y323000D02*
Y332512D01*
X363488Y334000D02*
X385000D01*
X362000Y332512D02*
X363488Y334000D01*
X385000D02*
X387000Y336000D01*
Y344000D01*
Y351000D01*
Y372388D02*
Y384000D01*
X382000Y344000D02*
Y367388D01*
X387000Y372388D01*
X415000Y364000D02*
X417000Y366000D01*
X407000Y364000D02*
X415000D01*
X407000Y348000D02*
Y354000D01*
Y348000D02*
X409000Y346000D01*
X414088Y358912D02*
X417000Y356000D01*
X407000Y359000D02*
X407088Y358912D01*
X414088D01*
X407000Y374000D02*
X412512D01*
X414000Y375488D01*
X407000Y374000D02*
X407000Y374000D01*
X276300Y367300D02*
X278000Y369000D01*
X276300Y356700D02*
Y367300D01*
X278000Y369000D02*
X334000D01*
X339000Y374000D01*
X367000D01*
X343000Y369000D02*
X367000D01*
X301700Y356700D02*
X330700D01*
X343000Y369000D01*
X327000Y344000D02*
X347000Y364000D01*
X279000Y344000D02*
X327000D01*
X347000Y364000D02*
X367000D01*
X276300Y331300D02*
Y341300D01*
X279000Y344000D01*
X301700Y331300D02*
X324300D01*
X352000Y359000D02*
X367000D01*
X324300Y331300D02*
X352000Y359000D01*
X279000Y319000D02*
X322000D01*
X357000Y354000D01*
X367000D01*
X276300Y316300D02*
X279000Y319000D01*
X276300Y305900D02*
Y316300D01*
X301700Y305900D02*
X301800Y306000D01*
X320000D01*
X390000Y332000D02*
X392000Y334000D01*
X390000Y323000D02*
Y332000D01*
X392000Y334000D02*
X392000Y334000D01*
X392000Y334000D02*
Y344000D01*
X400000Y323000D02*
Y331000D01*
X397000Y334000D02*
Y344000D01*
Y334000D02*
X400000Y331000D01*
D33*
X276300Y382100D02*
D03*
X301700D02*
D03*
Y356700D02*
D03*
X276300D02*
D03*
Y331300D02*
D03*
X301700D02*
D03*
X276300Y305900D02*
D03*
X301700D02*
D03*
D34*
X505000Y411000D02*
D03*
D35*
X417000Y390000D02*
D03*
X470000Y360000D02*
D03*
X460000Y300000D02*
D03*
Y260000D02*
D03*
X450000Y400000D02*
D03*
X440000Y260000D02*
D03*
X420000D02*
D03*
X400000D02*
D03*
X380000D02*
D03*
X360000D02*
D03*
X350000Y320000D02*
D03*
X340000Y260000D02*
D03*
X330000Y400000D02*
D03*
X320000Y260000D02*
D03*
X310000Y400000D02*
D03*
Y280000D02*
D03*
X300000Y260000D02*
D03*
X290000Y400000D02*
D03*
Y280000D02*
D03*
X280000Y260000D02*
D03*
X260000Y380000D02*
D03*
Y340000D02*
D03*
Y300000D02*
D03*
X270000Y280000D02*
D03*
X260000Y260000D02*
D03*
M02*
