G04*
G04 #@! TF.GenerationSoftware,Altium Limited,Altium Designer,22.7.1 (60)*
G04*
G04 Layer_Physical_Order=2*
G04 Layer_Color=16711680*
%FSLAX44Y44*%
%MOMM*%
G71*
G04*
G04 #@! TF.SameCoordinates,7A3DA631-0345-4E00-B8C7-321365C47752*
G04*
G04*
G04 #@! TF.FilePolarity,Positive*
G04*
G01*
G75*
%ADD30C,0.5000*%
%ADD34C,1.0000*%
%ADD35C,0.7000*%
%ADD36C,1.4000*%
G36*
X505595Y398000D02*
X464000D01*
Y368000D01*
X479000D01*
Y256315D01*
X256315D01*
Y421685D01*
X505595D01*
Y398000D01*
D02*
G37*
%LPC*%
G36*
X417949Y394770D02*
X416051D01*
X414298Y394044D01*
X414082Y393828D01*
X414000Y393844D01*
X334000D01*
X334000Y393844D01*
X332529Y393551D01*
X332115Y393275D01*
X331282Y392718D01*
X331282Y392718D01*
X323408Y384844D01*
X309527D01*
X309406Y385292D01*
X308318Y387178D01*
X306778Y388718D01*
X304892Y389806D01*
X302789Y390370D01*
X300611D01*
X298508Y389806D01*
X296622Y388718D01*
X295082Y387178D01*
X293994Y385292D01*
X293430Y383189D01*
Y381011D01*
X293994Y378908D01*
X295082Y377022D01*
X296622Y375482D01*
X298508Y374394D01*
X300611Y373830D01*
X302789D01*
X304892Y374394D01*
X306778Y375482D01*
X308318Y377022D01*
X308395Y377156D01*
X325000D01*
X325000Y377156D01*
X326227Y377400D01*
X326471Y377449D01*
X327718Y378282D01*
X335592Y386156D01*
X414000D01*
X414082Y386172D01*
X414298Y385956D01*
X416051Y385230D01*
X417949D01*
X419702Y385956D01*
X421044Y387298D01*
X421770Y389051D01*
Y390949D01*
X421044Y392702D01*
X419702Y394044D01*
X417949Y394770D01*
D02*
G37*
G36*
X277389Y390370D02*
X276935D01*
Y382735D01*
X284570D01*
Y383189D01*
X284006Y385292D01*
X282918Y387178D01*
X281378Y388718D01*
X279492Y389806D01*
X277389Y390370D01*
D02*
G37*
G36*
X275665D02*
X275211D01*
X273108Y389806D01*
X271222Y388718D01*
X269682Y387178D01*
X268594Y385292D01*
X268030Y383189D01*
Y382735D01*
X275665D01*
Y390370D01*
D02*
G37*
G36*
X284570Y381465D02*
X276935D01*
Y373830D01*
X277389D01*
X279492Y374394D01*
X281378Y375482D01*
X282918Y377022D01*
X284006Y378908D01*
X284570Y381011D01*
Y381465D01*
D02*
G37*
G36*
X275665D02*
X268030D01*
Y381011D01*
X268594Y378908D01*
X269682Y377022D01*
X271222Y375482D01*
X273108Y374394D01*
X275211Y373830D01*
X275665D01*
Y381465D01*
D02*
G37*
G36*
X302789Y364970D02*
X300611D01*
X298508Y364406D01*
X296622Y363318D01*
X295082Y361778D01*
X293994Y359892D01*
X293430Y357789D01*
Y355611D01*
X293994Y353508D01*
X295082Y351622D01*
X296622Y350082D01*
X298508Y348994D01*
X300611Y348430D01*
X302789D01*
X304892Y348994D01*
X306778Y350082D01*
X308318Y351622D01*
X309406Y353508D01*
X309970Y355611D01*
Y357789D01*
X309406Y359892D01*
X308318Y361778D01*
X306778Y363318D01*
X304892Y364406D01*
X302789Y364970D01*
D02*
G37*
G36*
X277389D02*
X275211D01*
X273108Y364406D01*
X271222Y363318D01*
X269682Y361778D01*
X268594Y359892D01*
X268030Y357789D01*
Y355611D01*
X268594Y353508D01*
X269682Y351622D01*
X271222Y350082D01*
X273108Y348994D01*
X275211Y348430D01*
X277389D01*
X279492Y348994D01*
X281378Y350082D01*
X282918Y351622D01*
X284006Y353508D01*
X284570Y355611D01*
Y357789D01*
X284006Y359892D01*
X282918Y361778D01*
X281378Y363318D01*
X279492Y364406D01*
X277389Y364970D01*
D02*
G37*
G36*
X302789Y339570D02*
X300611D01*
X298508Y339006D01*
X296622Y337918D01*
X295082Y336378D01*
X293994Y334492D01*
X293430Y332389D01*
Y330211D01*
X293994Y328108D01*
X295082Y326222D01*
X296622Y324682D01*
X298508Y323594D01*
X300611Y323030D01*
X302789D01*
X304892Y323594D01*
X306778Y324682D01*
X308318Y326222D01*
X309406Y328108D01*
X309970Y330211D01*
Y332389D01*
X309406Y334492D01*
X308318Y336378D01*
X306778Y337918D01*
X304892Y339006D01*
X302789Y339570D01*
D02*
G37*
G36*
X277389D02*
X275211D01*
X273108Y339006D01*
X271222Y337918D01*
X269682Y336378D01*
X268594Y334492D01*
X268030Y332389D01*
Y330211D01*
X268594Y328108D01*
X269682Y326222D01*
X271222Y324682D01*
X273108Y323594D01*
X275211Y323030D01*
X277389D01*
X279492Y323594D01*
X281378Y324682D01*
X282918Y326222D01*
X284006Y328108D01*
X284570Y330211D01*
Y332389D01*
X284006Y334492D01*
X282918Y336378D01*
X281378Y337918D01*
X279492Y339006D01*
X277389Y339570D01*
D02*
G37*
G36*
X302789Y314170D02*
X300611D01*
X298508Y313606D01*
X296622Y312518D01*
X295082Y310978D01*
X293994Y309092D01*
X293430Y306989D01*
Y304811D01*
X293994Y302708D01*
X295082Y300822D01*
X296622Y299282D01*
X298508Y298194D01*
X300611Y297630D01*
X302789D01*
X304892Y298194D01*
X306778Y299282D01*
X308318Y300822D01*
X309406Y302708D01*
X309970Y304811D01*
Y306989D01*
X309406Y309092D01*
X308318Y310978D01*
X306778Y312518D01*
X304892Y313606D01*
X302789Y314170D01*
D02*
G37*
G36*
X277389D02*
X275211D01*
X273108Y313606D01*
X271222Y312518D01*
X269682Y310978D01*
X268594Y309092D01*
X268030Y306989D01*
Y304811D01*
X268594Y302708D01*
X269682Y300822D01*
X271222Y299282D01*
X273108Y298194D01*
X275211Y297630D01*
X277389D01*
X279492Y298194D01*
X281378Y299282D01*
X282918Y300822D01*
X284006Y302708D01*
X284570Y304811D01*
Y306989D01*
X284006Y309092D01*
X282918Y310978D01*
X281378Y312518D01*
X279492Y313606D01*
X277389Y314170D01*
D02*
G37*
%LPD*%
D30*
X325000Y381000D02*
X334000Y390000D01*
X414000D01*
X302800Y381000D02*
X325000D01*
X301700Y382100D02*
X302800Y381000D01*
D34*
X505000Y411000D02*
D03*
D35*
X417000Y390000D02*
D03*
X470000Y360000D02*
D03*
X460000Y300000D02*
D03*
Y260000D02*
D03*
X450000Y400000D02*
D03*
X440000Y260000D02*
D03*
X420000D02*
D03*
X400000D02*
D03*
X380000D02*
D03*
X360000D02*
D03*
X350000Y320000D02*
D03*
X340000Y260000D02*
D03*
X330000Y400000D02*
D03*
X320000Y260000D02*
D03*
X310000Y400000D02*
D03*
Y280000D02*
D03*
X300000Y260000D02*
D03*
X290000Y400000D02*
D03*
Y280000D02*
D03*
X280000Y260000D02*
D03*
X260000Y380000D02*
D03*
Y340000D02*
D03*
Y300000D02*
D03*
X270000Y280000D02*
D03*
X260000Y260000D02*
D03*
D36*
X276300Y382100D02*
D03*
X301700D02*
D03*
Y356700D02*
D03*
X276300D02*
D03*
Y331300D02*
D03*
X301700D02*
D03*
X276300Y305900D02*
D03*
X301700D02*
D03*
M02*
