M48
;Layer_Color=9474304
;FILE_FORMAT=4:4
METRIC,LZ
;TYPE=PLATED
T1F00S00C0.4000
T2F00S00C0.5000
T3F00S00C1.0000
%
T01
X0026Y0026
X0028
X003
X0032
X0034
X0036
X0038
X0035Y0032
X0031Y0028
X0029
X0027
X0026Y003
Y0034
Y0038
X00417Y0039
X0047Y0036
X0046Y003
Y0026
X0044
X0042
X004
X0045Y004
X0033
X0031
X0029
T02
X00505Y00411
T03
X002763Y003059
Y003313
Y003567
Y003821
X003017
Y003567
Y003313
Y003059
M30
